<svg width="20" height="22" viewBox="0 0 20 22" fill="none" xmlns="http://www.w3.org/2000/svg">
<path fill-rule="evenodd" clip-rule="evenodd" d="M17.8125 2.58575H16.7607V0.482178H14.6572V2.58575H6.24288V0.482178H4.1393V2.58575H3.08752C1.92004 2.58575 0.983948 3.53236 0.983948 4.68932V19.4143C0.983948 20.5713 1.92004 21.5179 3.08752 21.5179H17.8125C18.9695 21.5179 19.9161 20.5713 19.9161 19.4143V4.68932C19.9161 3.53236 18.9695 2.58575 17.8125 2.58575ZM17.8125 19.4143H3.08752V7.84468H17.8125V19.4143ZM4.6652 12.0518C4.6652 10.6004 5.8432 9.42236 7.29466 9.42236C8.74613 9.42236 9.92413 10.6004 9.92413 12.0518C9.92413 13.5033 8.74613 14.6813 7.29466 14.6813C5.8432 14.6813 4.6652 13.5033 4.6652 12.0518Z" fill="#003F5F"/>
</svg>
