<svg width="55" height="55" viewBox="0 0 55 55" fill="none" xmlns="http://www.w3.org/2000/svg">
<path d="M44.8554 32.0131C42.2825 41.6155 32.6557 47.3791 23.3534 44.8866C14.051 42.394 8.59582 32.5892 11.1688 22.9868C13.7417 13.3844 23.3685 7.62071 32.6708 10.1133C41.9732 12.6058 47.4284 22.4107 44.8554 32.0131Z" fill="#0099FF"/>
<path fill-rule="evenodd" clip-rule="evenodd" d="M45.9422 32.3042C43.2172 42.4739 32.997 48.6352 23.0623 45.9732C13.1275 43.3112 7.35721 32.8653 10.0822 22.6955C12.8072 12.5257 23.0274 6.36449 32.9621 9.0265C42.8968 11.6885 48.6672 22.1344 45.9422 32.3042ZM23.3534 44.8865C32.6558 47.379 42.2826 41.6154 44.8555 32.013C47.4285 22.4106 41.9732 12.6057 32.6709 10.1132C23.3686 7.62062 13.7418 13.3843 11.1689 22.9867C8.5959 32.5891 14.0511 42.3939 23.3534 44.8865Z" fill="#4C3BB2"/>
<path d="M43.7304 30.8881C41.1575 40.4905 31.5307 46.2541 22.2284 43.7616C12.926 41.269 7.47082 31.4642 10.0438 21.8618C12.6167 12.2594 22.2435 6.49571 31.5458 8.98825C40.8482 11.4808 46.3034 21.2857 43.7304 30.8881Z" fill="#4C3BB2"/>
<path fill-rule="evenodd" clip-rule="evenodd" d="M44.8172 31.1792C42.0922 41.3489 31.872 47.5102 21.9373 44.8482C12.0025 42.1862 6.23221 31.7403 8.95719 21.5705C11.6822 11.4007 21.9024 5.23949 31.8371 7.9015C41.7718 10.5635 47.5422 21.0094 44.8172 31.1792ZM22.2284 43.7615C31.5308 46.254 41.1576 40.4904 43.7305 30.888C46.3035 21.2856 40.8482 11.4807 31.5459 8.98816C22.2436 6.49562 12.6168 12.2593 10.0439 21.8617C7.4709 31.4641 12.9261 41.2689 22.2284 43.7615Z" fill="#4C3BB2"/>
<path d="M40.4707 30.0143C38.3802 37.8163 30.604 42.5115 23.1022 40.5014C15.6003 38.4913 11.2135 30.537 13.3041 22.7351C15.3946 14.9331 23.1708 10.2379 30.6726 12.248C38.1745 14.2582 42.5613 22.2124 40.4707 30.0143Z" fill="#0099FF"/>
<path fill-rule="evenodd" clip-rule="evenodd" d="M41.5575 30.3057C39.317 38.6672 30.9529 43.7698 22.8111 41.5882C14.6693 39.4066 9.97702 30.8056 12.2175 22.444C14.4579 14.0825 22.8221 8.97994 30.9639 11.1615C39.1057 13.3431 43.7979 21.9441 41.5575 30.3057ZM23.1023 40.5015C30.6041 42.5116 38.3803 37.8164 40.4708 30.0145C42.5613 22.2126 38.1746 14.2583 30.6727 12.2482C23.1708 10.2381 15.3947 14.9333 13.3042 22.7352C11.2136 30.5372 15.6004 38.4914 23.1023 40.5015Z" fill="#4C3BB2"/>
<path fill-rule="evenodd" clip-rule="evenodd" d="M37.3294 16.3586C35.7839 14.9813 33.9147 13.9404 31.7973 13.3731C24.2955 11.3629 16.5193 16.0581 14.4288 23.8601C13.0798 28.8946 14.428 33.9926 17.5699 37.5159C13.6397 34.0133 11.8033 28.335 13.3038 22.7351C15.3943 14.9331 23.1705 10.2379 30.6723 12.2481C33.3333 12.9611 35.6023 14.4219 37.3294 16.3586Z" fill="#0099FF"/>
<path fill-rule="evenodd" clip-rule="evenodd" d="M11.4404 20.9955C11.1494 20.8868 11.0016 20.5627 11.1104 20.2717C13.0519 15.0758 17.4 11.0547 22.8002 9.56426C23.0996 9.48161 23.4094 9.65737 23.492 9.95683C23.5747 10.2563 23.3989 10.5661 23.0995 10.6487C18.0496 12.0425 13.9805 15.8049 12.1642 20.6655C12.0554 20.9565 11.7314 21.1043 11.4404 20.9955Z" fill="#7761FF"/>
<path fill-rule="evenodd" clip-rule="evenodd" d="M40.9026 34.8993C41.1652 35.0652 41.2437 35.4126 41.0778 35.6752C39.7619 37.7582 38.0173 39.543 35.9677 40.9057C35.709 41.0777 35.3598 41.0075 35.1878 40.7488C35.0158 40.4901 35.0861 40.1409 35.3448 39.9689C37.2627 38.6937 38.8955 37.0234 40.1266 35.0744C40.2925 34.8118 40.64 34.7334 40.9026 34.8993Z" fill="#7761FF"/>
<path fill-rule="evenodd" clip-rule="evenodd" d="M17.637 13.3429C17.6369 13.343 17.6371 13.3428 17.637 13.3429L17.325 12.8749C17.637 13.3429 17.637 13.3429 17.637 13.3429L17.635 13.3443L17.6236 13.352C17.613 13.3593 17.5963 13.3708 17.5743 13.3863C17.5302 13.4174 17.4644 13.4647 17.3813 13.527C17.2149 13.6518 16.98 13.8363 16.711 14.0716C16.17 14.5451 15.5059 15.2113 14.9805 15.9994C14.8082 16.2579 14.459 16.3277 14.2005 16.1554C13.942 15.9831 13.8722 15.6338 14.0445 15.3753C14.6441 14.4759 15.3863 13.7359 15.9702 13.225C16.2638 12.9681 16.5211 12.7659 16.7063 12.627C16.7989 12.5575 16.8738 12.5037 16.9263 12.4667C16.9526 12.4481 16.9733 12.4338 16.988 12.4238L17.0053 12.412L17.0103 12.4086L17.012 12.4075L17.0126 12.4071C17.0127 12.4071 17.013 12.4068 17.325 12.8749L17.0126 12.4071C17.271 12.2348 17.6207 12.3044 17.793 12.5628C17.9653 12.8212 17.8952 13.1705 17.637 13.3429Z" fill="#C5BCFF"/>
<path fill-rule="evenodd" clip-rule="evenodd" d="M19.887 16.1554C19.8869 16.1555 19.8871 16.1553 19.887 16.1554L19.575 15.6874C19.887 16.1554 19.887 16.1554 19.887 16.1554L19.885 16.1568L19.8736 16.1645C19.863 16.1718 19.8463 16.1833 19.8243 16.1988C19.7802 16.2299 19.7144 16.2772 19.6313 16.3395C19.4649 16.4643 19.23 16.6488 18.961 16.8841C18.42 17.3576 17.7559 18.0238 17.2305 18.8119C17.0582 19.0704 16.709 19.1402 16.4505 18.9679C16.192 18.7956 16.1222 18.4463 16.2945 18.1878C16.8941 17.2884 17.6363 16.5484 18.2202 16.0375C18.5138 15.7806 18.7711 15.5784 18.9563 15.4395C19.0489 15.37 19.1238 15.3162 19.1763 15.2792C19.2026 15.2606 19.2233 15.2463 19.238 15.2363L19.2553 15.2245L19.2603 15.2211L19.262 15.22L19.2626 15.2196C19.2627 15.2196 19.263 15.2193 19.575 15.6874L19.2626 15.2196C19.521 15.0473 19.8707 15.1169 20.043 15.3753C20.2153 15.6337 20.1452 15.983 19.887 16.1554Z" fill="white"/>
<path d="M27.45 16.118L29.6687 22.9463L29.7809 23.2918H30.1442H37.3238L31.5154 27.5119L31.2215 27.7254L31.3337 28.0709L33.5524 34.8992L27.7439 30.6791L27.45 30.4656L27.1561 30.6791L21.3476 34.8992L23.5663 28.0709L23.6785 27.7254L23.3846 27.5119L17.5762 23.2918H24.7558H25.1191L25.2314 22.9463L27.45 16.118Z" fill="#4C3BB2" stroke="#4C3BB2"/>
</svg>
