<svg width="55" height="55" viewBox="0 0 55 55" fill="none" xmlns="http://www.w3.org/2000/svg">
<path d="M45.2552 32.0133C42.6822 41.6157 33.0554 47.3794 23.7531 44.8868C14.4508 42.3943 8.99557 32.5894 11.5685 22.987C14.1415 13.3846 23.7683 7.62095 33.0706 10.1135C42.3729 12.606 47.8281 22.4109 45.2552 32.0133Z" fill="#A35A38"/>
<path fill-rule="evenodd" clip-rule="evenodd" d="M46.3419 32.3044C43.617 42.4742 33.3968 48.6354 23.462 45.9734C13.5273 43.3114 7.75696 32.8655 10.4819 22.6957C13.2069 12.526 23.4271 6.36474 33.3619 9.02674C43.2966 11.6887 49.0669 22.1346 46.3419 32.3044ZM23.7532 44.8867C33.0555 47.3793 42.6823 41.6156 45.2553 32.0132C47.8282 22.4108 42.373 12.606 33.0707 10.1134C23.7684 7.62086 14.1416 13.3845 11.5686 22.9869C8.99565 32.5893 14.4509 42.3942 23.7532 44.8867Z" fill="#672001"/>
<path d="M44.1302 30.8883C41.5572 40.4907 31.9304 46.2544 22.6281 43.7618C13.3258 41.2693 7.87057 31.4644 10.4435 21.862C13.0165 12.2596 22.6433 6.49595 31.9456 8.9885C41.2479 11.481 46.7031 21.2859 44.1302 30.8883Z" fill="#C27C3B"/>
<path fill-rule="evenodd" clip-rule="evenodd" d="M45.2169 31.1794C42.492 41.3492 32.2718 47.5104 22.337 44.8484C12.4023 42.1864 6.63196 31.7405 9.35694 21.5707C12.0819 11.401 22.3021 5.23974 32.2369 7.90174C42.1716 10.5637 47.9419 21.0096 45.2169 31.1794ZM22.6282 43.7617C31.9305 46.2543 41.5573 40.4906 44.1303 30.8882C46.7032 21.2858 41.248 11.481 31.9457 8.98841C22.6434 6.49586 13.0166 12.2595 10.4436 21.8619C7.87065 31.4643 13.3259 41.2692 22.6282 43.7617Z" fill="#672001"/>
<path d="M40.871 30.0148C38.7805 37.8168 31.0043 42.512 23.5025 40.5019C16.0006 38.4917 11.6138 30.5375 13.7044 22.7356C15.7949 14.9336 23.5711 10.2384 31.0729 12.2485C38.5748 14.2586 42.9616 22.2129 40.871 30.0148Z" fill="#F6B981"/>
<path fill-rule="evenodd" clip-rule="evenodd" d="M41.9578 30.3059C39.7173 38.6674 31.3532 43.77 23.2114 41.5884C15.0696 39.4069 10.3773 30.8058 12.6178 22.4443C14.8582 14.0828 23.2224 8.98018 31.3642 11.1618C39.506 13.3434 44.1982 21.9444 41.9578 30.3059ZM23.5026 40.5018C31.0044 42.5119 38.7806 37.8167 40.8711 30.0147C42.9616 22.2128 38.5749 14.2586 31.073 12.2484C23.5711 10.2383 15.795 14.9335 13.7044 22.7355C11.6139 30.5374 16.0007 38.4917 23.5026 40.5018Z" fill="#A35A38"/>
<path fill-rule="evenodd" clip-rule="evenodd" d="M37.7297 16.3588C36.1842 14.9815 34.315 13.9406 32.1976 13.3733C24.6958 11.3632 16.9196 16.0584 14.8291 23.8603C13.4801 28.8949 14.8283 33.9929 17.9702 37.5161C14.04 34.0136 12.2036 28.3352 13.7041 22.7353C15.7946 14.9334 23.5708 10.2382 31.0726 12.2483C33.7336 12.9613 36.0026 14.4222 37.7297 16.3588Z" fill="#FCCA9B"/>
<path fill-rule="evenodd" clip-rule="evenodd" d="M11.8401 20.9958C11.5491 20.887 11.4014 20.563 11.5101 20.2719C13.4517 15.0761 17.7998 11.0549 23.1999 9.5645C23.4994 9.48185 23.8091 9.65761 23.8918 9.95707C23.9744 10.2565 23.7987 10.5663 23.4992 10.649C18.4494 12.0427 14.3802 15.8052 12.5639 20.6657C12.4552 20.9567 12.1311 21.1045 11.8401 20.9958Z" fill="#E29854"/>
<path fill-rule="evenodd" clip-rule="evenodd" d="M41.3029 34.8995C41.5655 35.0654 41.644 35.4128 41.478 35.6755C40.1622 37.7585 38.4176 39.5432 36.368 40.906C36.1093 41.078 35.7601 41.0077 35.5881 40.749C35.4161 40.4903 35.4864 40.1412 35.7451 39.9692C37.663 38.694 39.2958 37.0236 40.5269 35.0747C40.6928 34.812 41.0403 34.7336 41.3029 34.8995Z" fill="#E29854"/>
<path fill-rule="evenodd" clip-rule="evenodd" d="M18.0368 13.3431C18.0367 13.3432 18.0369 13.3431 18.0368 13.3431L17.7248 12.8751C18.0368 13.3431 18.0367 13.3432 18.0368 13.3431L18.0348 13.3445L18.0234 13.3523C18.0127 13.3596 17.9961 13.371 17.974 13.3866C17.9299 13.4177 17.8641 13.4649 17.781 13.5273C17.6146 13.652 17.3798 13.8365 17.1108 14.0719C16.5697 14.5453 15.9056 15.2116 15.3803 15.9996C15.208 16.2581 14.8587 16.328 14.6002 16.1556C14.3418 15.9833 14.2719 15.6341 14.4442 15.3756C15.0439 14.4761 15.786 13.7362 16.37 13.2252C16.6635 12.9684 16.9208 12.7661 17.106 12.6273C17.1987 12.5578 17.2735 12.5039 17.3261 12.4669C17.3524 12.4484 17.3731 12.4341 17.3877 12.424L17.405 12.4123L17.4101 12.4088L17.4117 12.4078L17.4123 12.4074C17.4124 12.4073 17.4127 12.4071 17.7248 12.8751L17.4123 12.4074C17.6708 12.235 18.0205 12.3046 18.1928 12.5631C18.365 12.8215 18.295 13.1707 18.0368 13.3431Z" fill="#F1BD98"/>
<path fill-rule="evenodd" clip-rule="evenodd" d="M20.2868 16.1556C20.2867 16.1557 20.2869 16.1556 20.2868 16.1556L19.9748 15.6876C20.2868 16.1556 20.2867 16.1557 20.2868 16.1556L20.2848 16.157L20.2734 16.1648C20.2627 16.1721 20.2461 16.1835 20.224 16.1991C20.1799 16.2302 20.1141 16.2774 20.031 16.3398C19.8646 16.4645 19.6298 16.649 19.3608 16.8844C18.8197 17.3578 18.1556 18.0241 17.6303 18.8121C17.458 19.0706 17.1087 19.1405 16.8502 18.9681C16.5918 18.7958 16.5219 18.4466 16.6942 18.1881C17.2939 17.2886 18.036 16.5487 18.62 16.0377C18.9135 15.7809 19.1708 15.5786 19.356 15.4398C19.4487 15.3703 19.5235 15.3164 19.5761 15.2794C19.6024 15.2609 19.6231 15.2466 19.6377 15.2365L19.655 15.2248L19.6601 15.2213L19.6617 15.2203L19.6623 15.2199C19.6624 15.2198 19.6627 15.2196 19.9748 15.6876L19.6623 15.2199C19.9208 15.0475 20.2705 15.1171 20.4428 15.3756C20.615 15.634 20.545 15.9832 20.2868 16.1556Z" fill="white"/>
<path d="M21.3161 34.8199C21.1293 34.8199 20.9733 34.8054 20.8481 34.7765C20.6748 34.7399 20.5477 34.6831 20.4668 34.6061C20.2857 34.2228 20.1307 33.8029 20.0017 33.3465C19.8225 32.7148 19.6974 32.0628 19.6261 31.3907C19.7128 31.2635 19.8312 31.1653 19.9814 31.096C20.1317 31.0247 20.2992 30.9891 20.4841 30.9891C20.7615 30.9891 20.9791 31.0421 21.137 31.148C21.2969 31.2539 21.3768 31.4051 21.3768 31.6016C21.3633 31.7479 21.3508 31.9627 21.3393 32.2458C21.3296 32.5289 21.3248 32.7851 21.3248 33.0143C21.3248 33.0778 21.3306 33.1279 21.3421 33.1645C21.3556 33.1992 21.3826 33.2165 21.423 33.2165C21.4384 33.2165 21.4577 33.2136 21.4808 33.2078C21.4789 33.1905 21.4779 33.1616 21.4779 33.1212V33.02C21.4779 32.7408 21.4876 32.4191 21.5068 32.0551C21.5261 31.6892 21.5492 31.4167 21.5761 31.2375C21.7514 31.1297 21.9575 31.0758 22.1944 31.0758C22.4313 31.0758 22.622 31.1085 22.7664 31.174C22.9397 31.2549 23.0312 31.3733 23.0409 31.5293C23.0312 31.7181 23.0129 31.9039 22.986 32.0869C22.9609 32.2699 22.9301 32.4808 22.8935 32.7196C22.8569 32.9584 22.8338 33.1163 22.8242 33.1934C22.8396 33.2011 22.8598 33.2049 22.8848 33.2049C22.9099 33.2049 22.933 33.1953 22.9542 33.176C22.9754 33.1568 22.9927 33.1106 23.0062 33.0374C23.0659 32.7292 23.115 32.4047 23.1535 32.0638C23.192 31.721 23.2171 31.4224 23.2286 31.1682C23.4058 31.0488 23.6504 30.9891 23.9624 30.9891C24.2147 30.9891 24.416 31.0565 24.5662 31.1913C24.7165 31.3242 24.7916 31.5033 24.7916 31.7287C24.7916 31.8789 24.7203 32.2728 24.5778 32.9103C24.5046 33.2454 24.4343 33.5323 24.3669 33.7712C24.2995 34.0081 24.2446 34.1747 24.2022 34.271C24.1136 34.4655 23.9807 34.6061 23.8035 34.6927C23.6283 34.7775 23.4039 34.8199 23.1304 34.8199C23.0206 34.8199 22.8935 34.8035 22.7491 34.7708C22.6065 34.738 22.4977 34.7014 22.4226 34.661C22.3841 34.6013 22.3408 34.5107 22.2926 34.3894C22.2445 34.2681 22.2146 34.1766 22.2031 34.115C22.1279 34.1169 22.0904 34.1573 22.0904 34.2363C22.0904 34.2979 22.1202 34.4116 22.1799 34.5772C21.9777 34.739 21.6898 34.8199 21.3161 34.8199ZM26.4941 34.8603C25.9606 34.8603 25.5398 34.712 25.2317 34.4154C24.9158 34.1169 24.7579 33.7086 24.7579 33.1905C24.7579 32.6705 24.9206 32.2583 25.2461 31.954C25.5465 31.6709 25.9269 31.5293 26.3872 31.5293C26.8475 31.5293 27.2164 31.6564 27.4937 31.9107C27.773 32.163 27.9126 32.474 27.9126 32.8438C27.9126 33.1732 27.798 33.4216 27.5688 33.5892C27.357 33.7471 27.0681 33.8261 26.7021 33.8261C26.4286 33.8261 26.1975 33.7692 26.0088 33.6556C25.9934 33.6672 25.9857 33.6884 25.9857 33.7192C25.9857 33.7769 26.0617 33.8299 26.2139 33.8781C26.3661 33.9301 26.5384 33.9561 26.731 33.9561C26.9255 33.9561 27.1018 33.932 27.2597 33.8838C27.4196 33.8338 27.5476 33.775 27.6439 33.7076C27.6902 33.7481 27.7268 33.8232 27.7537 33.933C27.7826 34.0408 27.7971 34.14 27.7971 34.2305C27.7971 34.3191 27.7884 34.3981 27.7711 34.4674C27.6208 34.5945 27.4667 34.685 27.3088 34.739C27.0854 34.8199 26.8138 34.8603 26.4941 34.8603ZM26.4566 32.9045C26.5529 32.9045 26.601 32.8679 26.601 32.7947C26.601 32.7254 26.55 32.6907 26.4479 32.6907C26.3458 32.6907 26.2871 32.7456 26.2717 32.8554C26.3256 32.8881 26.3872 32.9045 26.4566 32.9045ZM29.7943 34.8603C29.2608 34.8603 28.84 34.712 28.5318 34.4154C28.216 34.1169 28.058 33.7086 28.058 33.1905C28.058 32.6705 28.2208 32.2583 28.5463 31.954C28.8467 31.6709 29.2271 31.5293 29.6874 31.5293C30.1477 31.5293 30.5165 31.6564 30.7939 31.9107C31.0731 32.163 31.2128 32.474 31.2128 32.8438C31.2128 33.1732 31.0982 33.4216 30.869 33.5892C30.6571 33.7471 30.3682 33.8261 30.0023 33.8261C29.7288 33.8261 29.4977 33.7692 29.3089 33.6556C29.2935 33.6672 29.2858 33.6884 29.2858 33.7192C29.2858 33.7769 29.3619 33.8299 29.5141 33.8781C29.6662 33.9301 29.8386 33.9561 30.0312 33.9561C30.2257 33.9561 30.4019 33.932 30.5599 33.8838C30.7197 33.8338 30.8478 33.775 30.9441 33.7076C30.9903 33.7481 31.0269 33.8232 31.0539 33.933C31.0828 34.0408 31.0972 34.14 31.0972 34.2305C31.0972 34.3191 31.0885 34.3981 31.0712 34.4674C30.921 34.5945 30.7669 34.685 30.609 34.739C30.3856 34.8199 30.114 34.8603 29.7943 34.8603ZM29.7567 32.9045C29.853 32.9045 29.9012 32.8679 29.9012 32.7947C29.9012 32.7254 29.8501 32.6907 29.7481 32.6907C29.646 32.6907 29.5872 32.7456 29.5718 32.8554C29.6258 32.8881 29.6874 32.9045 29.7567 32.9045ZM32.8431 33.6845L32.7044 33.7452C32.7044 33.8742 32.7295 34.0119 32.7796 34.1583C32.8219 34.297 32.8807 34.4202 32.9558 34.5281C32.7651 34.7245 32.5003 34.8228 32.1613 34.8228C31.9668 34.8228 31.7983 34.7717 31.6557 34.6696C31.4901 34.5541 31.4073 34.401 31.4073 34.2103V30.8389C31.4997 30.7849 31.6105 30.7406 31.7395 30.706C31.8705 30.6713 32.0024 30.654 32.1353 30.654C32.3568 30.654 32.5398 30.6973 32.6842 30.784C32.8479 30.8861 32.9298 31.0324 32.9298 31.2231V31.5293C32.9298 31.7855 32.8845 32.0359 32.794 32.2805C32.7767 32.3055 32.7459 32.3421 32.7016 32.3902C32.6573 32.4365 32.6216 32.4788 32.5947 32.5174C32.5696 32.5559 32.5571 32.5896 32.5571 32.6185C32.5571 32.6454 32.5802 32.6705 32.6264 32.6936C32.7767 32.553 32.8942 32.3999 32.9789 32.2342C33.0656 32.0686 33.1445 31.849 33.2158 31.5756C33.2408 31.5717 33.2697 31.5669 33.3025 31.5611C33.3352 31.5553 33.3891 31.5467 33.4642 31.5351C33.5413 31.5216 33.5952 31.5149 33.626 31.5149C33.9226 31.5149 34.1537 31.5833 34.3194 31.72C34.485 31.8548 34.5678 32.0407 34.5678 32.2776C34.5678 32.5145 34.4927 32.7177 34.3425 32.8871C34.2038 33.0393 34.0237 33.1539 33.8022 33.2309C33.9794 33.3349 34.2029 33.4091 34.4725 33.4534C34.5765 33.6421 34.6285 33.8434 34.6285 34.0572C34.6285 34.269 34.5611 34.4462 34.4263 34.5887C34.276 34.7448 34.068 34.8228 33.8022 34.8228C33.5384 34.8228 33.3208 34.7216 33.1493 34.5194C32.9799 34.3153 32.8778 34.037 32.8431 33.6845Z" fill="#E09E61"/>
<path d="M20.8481 34.7765L21.1807 33.3353C21.1717 33.3332 21.1627 33.3312 21.1537 33.3293L20.8481 34.7765ZM20.4668 34.6061L19.1293 35.2378C19.2072 35.4026 19.3147 35.5515 19.4467 35.6772L20.4668 34.6061ZM20.0017 33.3465L21.425 32.9441L21.4247 32.943L20.0017 33.3465ZM19.6261 31.3907L18.404 30.5574C18.2064 30.8472 18.1182 31.1978 18.1552 31.5466L19.6261 31.3907ZM19.9814 31.096L20.6013 32.439C20.606 32.4368 20.6107 32.4346 20.6154 32.4324L19.9814 31.096ZM21.137 31.148L20.3131 32.3764L20.32 32.381L21.137 31.148ZM21.3768 31.6016L22.8497 31.7372C22.8539 31.6921 22.856 31.6468 22.856 31.6016H21.3768ZM21.3393 32.2458L19.8613 32.1855L19.861 32.1955L21.3393 32.2458ZM21.3421 33.1645L19.9316 33.6099C19.9413 33.6405 19.9519 33.6707 19.9636 33.7006L21.3421 33.1645ZM21.4808 33.2078L21.8396 34.6428C22.5578 34.4632 23.0327 33.7803 22.9509 33.0445L21.4808 33.2078ZM21.5068 32.0551L22.9839 32.1333L22.9839 32.1329L21.5068 32.0551ZM21.5761 31.2375L20.8009 29.9778C20.4299 30.2062 20.1783 30.5865 20.1135 31.0174L21.5761 31.2375ZM22.7664 31.174L23.3919 29.8336C23.387 29.8313 23.3821 29.829 23.3771 29.8268L22.7664 31.174ZM23.0409 31.5293L24.5181 31.6047C24.5209 31.5492 24.5206 31.4936 24.5172 31.4382L23.0409 31.5293ZM22.986 32.0869L21.5226 31.8713C21.5219 31.8763 21.5212 31.8813 21.5205 31.8864L22.986 32.0869ZM22.8242 33.1934L21.3565 33.0099C21.2787 33.6322 21.6018 34.2359 22.1627 34.5164L22.8242 33.1934ZM23.0062 33.0374L21.554 32.756L21.5515 32.7694L23.0062 33.0374ZM23.1535 32.0638L24.6233 32.2299L24.6234 32.2289L23.1535 32.0638ZM23.2286 31.1682L22.402 29.9416C22.0137 30.2033 21.7723 30.6333 21.751 31.101L23.2286 31.1682ZM24.5662 31.1913L23.5783 32.2922L23.5862 32.2992L24.5662 31.1913ZM24.5778 32.9103L23.1342 32.5875L23.1327 32.5947L24.5778 32.9103ZM24.3669 33.7712L25.7896 34.176L25.7904 34.173L24.3669 33.7712ZM24.2022 34.271L25.5483 34.884C25.551 34.8783 25.5535 34.8725 25.5561 34.8667L24.2022 34.271ZM23.8035 34.6927L24.4474 36.0244L24.4535 36.0215L23.8035 34.6927ZM22.7491 34.7708L22.4179 36.2124L22.4221 36.2133L22.7491 34.7708ZM22.4226 34.661L21.1797 35.4629C21.3151 35.6727 21.5014 35.8449 21.7213 35.9633L22.4226 34.661ZM22.2031 34.115L23.6569 33.8424C23.5231 33.1287 22.891 32.6177 22.1651 32.6363L22.2031 34.115ZM22.1799 34.5772L23.104 35.7322C23.5981 35.3369 23.7861 34.671 23.5714 34.0756L22.1799 34.5772ZM21.3161 33.3407C21.2599 33.3407 21.2204 33.3385 21.1954 33.3362C21.1697 33.3338 21.1665 33.332 21.1807 33.3353L20.5155 36.2178C20.7868 36.2804 21.0631 36.299 21.3161 36.299V33.3407ZM21.1537 33.3293C21.1432 33.3271 21.1726 33.332 21.2264 33.3561C21.2802 33.3801 21.3796 33.4328 21.4869 33.535L19.4467 35.6772C19.8107 36.0239 20.244 36.1608 20.5426 36.2238L21.1537 33.3293ZM21.8042 33.9743C21.662 33.6731 21.5344 33.331 21.425 32.9441L18.5783 33.7489C18.727 34.2749 18.9095 34.7725 19.1293 35.2378L21.8042 33.9743ZM21.4247 32.943C21.2692 32.3946 21.1596 31.8256 21.097 31.2347L18.1552 31.5466C18.2351 32.3 18.3759 33.0349 18.5786 33.75L21.4247 32.943ZM20.8482 32.2239C20.8136 32.2747 20.7713 32.3211 20.7241 32.3602C20.6774 32.399 20.634 32.4239 20.6013 32.439L19.3616 29.753C18.9872 29.9258 18.6529 30.1923 18.404 30.5574L20.8482 32.2239ZM20.6154 32.4324C20.5833 32.4476 20.5529 32.4572 20.5274 32.4626C20.5024 32.4679 20.487 32.4682 20.4841 32.4682V29.5099C20.1047 29.5099 19.7171 29.5843 19.3475 29.7596L20.6154 32.4324ZM20.4841 32.4682C20.5316 32.4682 20.5346 32.4731 20.5056 32.466C20.4747 32.4585 20.4018 32.4359 20.3131 32.3764L21.961 29.9196C21.4714 29.5912 20.9272 29.5099 20.4841 29.5099V32.4682ZM20.32 32.381C20.2191 32.3141 20.0984 32.2008 20.0092 32.0321C19.9208 31.8649 19.8977 31.7082 19.8977 31.6016H22.856C22.856 30.9237 22.5394 30.3029 21.9541 29.915L20.32 32.381ZM19.9039 31.4659C19.8869 31.6507 19.8732 31.8957 19.8613 32.1855L22.8172 32.3061C22.8285 32.0297 22.8398 31.8452 22.8497 31.7372L19.9039 31.4659ZM19.861 32.1955C19.8509 32.4917 19.8457 32.765 19.8457 33.0143H22.804C22.804 32.8052 22.8084 32.5662 22.8175 32.2961L19.861 32.1955ZM19.8457 33.0143C19.8457 33.1436 19.8545 33.3657 19.9316 33.6099L22.7526 32.7191C22.7825 32.8135 22.7938 32.8886 22.7985 32.9299C22.8036 32.9735 22.804 33.0032 22.804 33.0143H19.8457ZM19.9636 33.7006C20.0648 33.9608 20.2557 34.244 20.5726 34.4477C20.88 34.6453 21.193 34.6956 21.423 34.6956V31.7373C21.6126 31.7373 21.8919 31.779 22.1723 31.9593C22.4622 32.1456 22.633 32.4028 22.7207 32.6284L19.9636 33.7006ZM21.423 34.6956C21.6062 34.6956 21.7555 34.6638 21.8396 34.6428L21.1221 31.7728C21.1468 31.7667 21.1834 31.7585 21.2296 31.7515C21.2746 31.7448 21.3411 31.7373 21.423 31.7373V34.6956ZM22.9509 33.0445C22.9537 33.07 22.9551 33.0896 22.9558 33.1004C22.9565 33.1119 22.9568 33.1201 22.957 33.1239C22.9572 33.1309 22.9571 33.1309 22.9571 33.1212H19.9988C19.9988 33.1641 19.9989 33.265 20.0107 33.3712L22.9509 33.0445ZM22.9571 33.1212V33.02H19.9988V33.1212H22.9571ZM22.9571 33.02C22.9571 32.7733 22.9656 32.4786 22.9839 32.1333L20.0297 31.977C20.0095 32.3597 19.9988 32.7083 19.9988 33.02H22.9571ZM22.9839 32.1329C23.0027 31.7768 23.023 31.563 23.0388 31.4577L20.1135 31.0174C20.0754 31.2703 20.0495 31.6016 20.0297 31.9774L22.9839 32.1329ZM22.3514 32.4973C22.3103 32.5226 22.2699 32.5385 22.2366 32.5472C22.2046 32.5556 22.1884 32.5549 22.1944 32.5549V29.5966C21.7259 29.5966 21.2428 29.7059 20.8009 29.9778L22.3514 32.4973ZM22.1944 32.5549C22.2198 32.5549 22.2382 32.5558 22.2505 32.5567C22.2627 32.5577 22.2671 32.5585 22.2647 32.5581C22.2624 32.5577 22.2514 32.5557 22.2334 32.5505C22.2153 32.5452 22.1886 32.5361 22.1557 32.5212L23.3771 29.8268C22.97 29.6423 22.5472 29.5966 22.1944 29.5966V32.5549ZM22.1409 32.5144C22.0715 32.482 21.9275 32.3999 21.7944 32.2276C21.6508 32.0418 21.5771 31.8241 21.5645 31.6205L24.5172 31.4382C24.4662 30.6115 23.9259 30.0828 23.3919 29.8336L22.1409 32.5144ZM21.5636 31.454C21.5563 31.5968 21.5426 31.7358 21.5226 31.8713L24.4493 32.3026C24.4833 32.0721 24.5061 31.8394 24.5181 31.6047L21.5636 31.454ZM21.5205 31.8864C21.4968 32.0595 21.4672 32.2623 21.4314 32.4956L24.3556 32.9436C24.3931 32.6992 24.4251 32.4802 24.4515 32.2874L21.5205 31.8864ZM21.4314 32.4956C21.3954 32.7304 21.3691 32.909 21.3565 33.0099L24.2919 33.3768C24.2986 33.3237 24.3184 33.1864 24.3556 32.9436L21.4314 32.4956ZM22.1627 34.5164C22.4552 34.6626 22.7267 34.6841 22.8848 34.6841V31.7258C22.993 31.7258 23.224 31.7395 23.4857 31.8704L22.1627 34.5164ZM22.8848 34.6841C23.3307 34.6841 23.6976 34.4993 23.9492 34.2705L21.9592 32.0816C22.1684 31.8913 22.489 31.7258 22.8848 31.7258V34.6841ZM23.9492 34.2705C24.217 34.027 24.3286 33.7514 24.368 33.6463C24.4185 33.5118 24.4454 33.3892 24.4609 33.3053L21.5515 32.7694C21.5535 32.7587 21.565 32.6959 21.5981 32.6076C21.6154 32.5615 21.6454 32.49 21.6944 32.4066C21.742 32.3257 21.8251 32.2034 21.9592 32.0816L23.9492 34.2705ZM24.4583 33.3187C24.5261 32.9691 24.5808 32.6059 24.6233 32.2299L21.6837 31.8977C21.6492 32.2035 21.6057 32.4894 21.554 32.756L24.4583 33.3187ZM24.6234 32.2289C24.6644 31.8641 24.6928 31.5315 24.7063 31.2354L21.751 31.101C21.7414 31.3134 21.7197 31.5778 21.6836 31.8986L24.6234 32.2289ZM24.0553 32.3948C23.9756 32.4485 23.9136 32.4665 23.8957 32.4708C23.8797 32.4747 23.8977 32.4682 23.9624 32.4682V29.5099C23.4845 29.5099 22.9119 29.598 22.402 29.9416L24.0553 32.3948ZM23.9624 32.4682C23.9582 32.4682 23.9091 32.4678 23.8328 32.4422C23.752 32.4152 23.6612 32.3666 23.5783 32.2922L25.5542 30.0905C25.0694 29.6555 24.4847 29.5099 23.9624 29.5099V32.4682ZM23.5862 32.2992C23.5002 32.2232 23.4225 32.1198 23.3712 31.9974C23.3216 31.8791 23.3124 31.7813 23.3124 31.7287H26.2707C26.2707 31.1379 26.0551 30.5335 25.5463 30.0834L23.5862 32.2992ZM23.3124 31.7287C23.3124 31.6698 23.3178 31.6478 23.3116 31.6949C23.3068 31.731 23.2979 31.7889 23.2826 31.8734C23.2521 32.0421 23.2035 32.2779 23.1343 32.5875L26.0213 33.233C26.0946 32.9051 26.1529 32.6253 26.1936 32.4001C26.2274 32.2136 26.2707 31.9544 26.2707 31.7287H23.3124ZM23.1327 32.5947C23.0636 32.9109 23.0003 33.1675 22.9434 33.3694L25.7904 34.173C25.8683 33.8972 25.9456 33.5799 26.0229 33.2259L23.1327 32.5947ZM22.9442 33.3663C22.914 33.4724 22.8895 33.5528 22.8703 33.6109C22.8493 33.6746 22.842 33.6896 22.8483 33.6752L25.5561 34.8667C25.6433 34.6685 25.7215 34.415 25.7896 34.176L22.9442 33.3663ZM22.8561 33.6579C22.8723 33.6223 22.9045 33.5662 22.9611 33.5062C23.0189 33.4451 23.0861 33.397 23.1536 33.364L24.4535 36.0215C24.9652 35.7712 25.3304 35.3626 25.5483 34.884L22.8561 33.6579ZM23.1597 33.3611C23.2074 33.338 23.235 33.3336 23.2293 33.3346C23.2269 33.3351 23.2177 33.3367 23.2009 33.3381C23.1841 33.3395 23.1608 33.3407 23.1304 33.3407V36.299C23.5424 36.299 24.0071 36.2373 24.4474 36.0244L23.1597 33.3611ZM23.1304 33.3407C23.1481 33.3407 23.1527 33.342 23.1417 33.3406C23.131 33.3392 23.1095 33.3358 23.076 33.3282L22.4221 36.2133C22.6392 36.2625 22.8801 36.299 23.1304 36.299V33.3407ZM23.0802 33.3292C23.0442 33.3209 23.0299 33.316 23.032 33.3168C23.0337 33.3173 23.0424 33.3203 23.0567 33.3263C23.0708 33.3322 23.0941 33.3426 23.1239 33.3586L21.7213 35.9633C21.967 36.0956 22.2242 36.1678 22.4179 36.2124L23.0802 33.3292ZM23.6655 33.8591C23.6726 33.87 23.6781 33.8791 23.6823 33.8862C23.6865 33.8933 23.6896 33.8989 23.6917 33.9027C23.6957 33.9101 23.6969 33.9128 23.6954 33.9096C23.6939 33.9066 23.6907 33.8997 23.6858 33.8882C23.6809 33.8769 23.6748 33.8622 23.6675 33.8438L20.9178 34.935C20.9772 35.0848 21.0625 35.2812 21.1797 35.4629L23.6655 33.8591ZM23.6675 33.8438C23.6595 33.8238 23.6534 33.8077 23.6487 33.795C23.644 33.7822 23.6414 33.7743 23.6403 33.7709C23.6391 33.7672 23.6404 33.7709 23.643 33.7806C23.6444 33.7857 23.6464 33.7933 23.6487 33.8032C23.651 33.813 23.6538 33.8262 23.6569 33.8424L20.7492 34.3875C20.7885 34.5969 20.8637 34.7987 20.9178 34.935L23.6675 33.8438ZM22.1651 32.6363C21.8776 32.6437 21.4108 32.7352 21.0346 33.1402C20.6706 33.5323 20.6112 33.9835 20.6112 34.2363H23.5695C23.5695 34.4101 23.529 34.8016 23.2025 35.1532C22.8639 35.5178 22.4534 35.5882 22.241 35.5936L22.1651 32.6363ZM20.6112 34.2363C20.6112 34.4615 20.6585 34.6536 20.6822 34.7436C20.7123 34.8582 20.7502 34.9728 20.7884 35.0788L23.5714 34.0756C23.5499 34.0159 23.5431 33.991 23.5434 33.9919C23.5437 33.9931 23.5487 34.0119 23.5541 34.0439C23.557 34.0606 23.5606 34.0846 23.5636 34.1147C23.5665 34.1442 23.5695 34.1857 23.5695 34.2363H20.6112ZM21.2559 33.4222C21.3318 33.3615 21.3946 33.3401 21.4123 33.3352C21.4261 33.3313 21.3998 33.3407 21.3161 33.3407V36.299C21.881 36.299 22.5453 36.1792 23.104 35.7322L21.2559 33.4222ZM25.2317 34.4154L26.2574 33.3497L26.2477 33.3404L25.2317 34.4154ZM25.2461 31.954L26.2563 33.0345L26.2605 33.0305L25.2461 31.954ZM27.4937 31.9107L26.4942 33.0011L26.5021 33.0082L27.4937 31.9107ZM27.5688 33.5892L26.6958 32.395L26.6848 32.4033L27.5688 33.5892ZM26.0088 33.6556L26.7717 32.3884C26.2558 32.0778 25.6031 32.111 25.1213 32.4723L26.0088 33.6556ZM26.2139 33.8781L26.6923 32.4784C26.6816 32.4748 26.6709 32.4712 26.6602 32.4678L26.2139 33.8781ZM27.2597 33.8838L27.6911 35.2987L27.7019 35.2954L27.2597 33.8838ZM27.6439 33.7076L28.618 32.5944C28.1056 32.1461 27.3534 32.1054 26.7957 32.4958L27.6439 33.7076ZM27.7537 33.933L26.3173 34.2858C26.3197 34.2958 26.3223 34.3057 26.3249 34.3157L27.7537 33.933ZM27.7711 34.4674L28.7265 35.5966C28.9631 35.3964 29.1309 35.1269 29.206 34.8262L27.7711 34.4674ZM27.3088 34.739L26.8308 33.3392C26.8223 33.3421 26.8138 33.3451 26.8053 33.3482L27.3088 34.739ZM26.2717 32.8554L24.8069 32.6498C24.7247 33.235 24.9989 33.813 25.504 34.1197L26.2717 32.8554ZM26.4941 33.3812C26.363 33.3812 26.295 33.3628 26.27 33.354C26.2578 33.3497 26.2536 33.347 26.2545 33.3475C26.2546 33.3476 26.2553 33.348 26.2561 33.3486C26.257 33.3493 26.2574 33.3497 26.2574 33.3497L24.2059 35.4811C24.8538 36.1047 25.6775 36.3395 26.4941 36.3395V33.3812ZM26.2477 33.3404C26.247 33.3398 26.2496 33.3423 26.253 33.3474C26.2564 33.3524 26.2571 33.3548 26.2559 33.3517C26.2536 33.3458 26.237 33.2998 26.237 33.1905H23.2787C23.2787 34.0308 23.5479 34.8593 24.2156 35.4904L26.2477 33.3404ZM26.237 33.1905C26.237 33.0847 26.2534 33.0405 26.2557 33.0346C26.257 33.0312 26.2569 33.0324 26.2548 33.0354C26.2528 33.0384 26.2523 33.0382 26.2563 33.0345L24.2359 30.8735C23.5608 31.5047 23.2787 32.3356 23.2787 33.1905H26.237ZM26.2605 33.0305C26.2637 33.0275 26.266 33.0257 26.2672 33.0247C26.2685 33.0237 26.2691 33.0233 26.2693 33.0232C26.2694 33.0231 26.2695 33.0231 26.2697 33.023C26.27 33.0229 26.2709 33.0224 26.2726 33.0218C26.2772 33.0201 26.3098 33.0085 26.3872 33.0085V30.0502C25.5969 30.0502 24.839 30.3052 24.2317 30.8775L26.2605 33.0305ZM26.3872 33.0085C26.4822 33.0085 26.5228 33.0216 26.5271 33.0231C26.5292 33.0238 26.5249 33.0225 26.5168 33.0177C26.5085 33.0128 26.5006 33.0069 26.4942 33.001L28.4932 30.8203C27.8852 30.263 27.1308 30.0502 26.3872 30.0502V33.0085ZM26.5021 33.0082C26.5056 33.0114 26.4809 32.989 26.4585 32.939C26.4357 32.8883 26.4335 32.8499 26.4335 32.8438H29.3918C29.3918 32.0473 29.0687 31.3402 28.4853 30.8131L26.5021 33.0082ZM26.4335 32.8438C26.4335 32.8374 26.4348 32.7631 26.4835 32.6576C26.5356 32.5447 26.6154 32.4539 26.6958 32.3951L28.4418 34.7832C29.1166 34.2899 29.3918 33.5589 29.3918 32.8438H26.4335ZM26.6848 32.4033C26.7141 32.3814 26.7412 32.366 26.7629 32.3557C26.7844 32.3456 26.7988 32.3412 26.8033 32.34C26.8103 32.3381 26.7813 32.3469 26.7021 32.3469V35.3052C27.2666 35.3052 27.9037 35.1844 28.4529 34.7751L26.6848 32.4033ZM26.7021 32.3469C26.6671 32.3469 26.6611 32.3432 26.6768 32.3471C26.694 32.3513 26.7289 32.3627 26.7717 32.3884L25.2459 34.9228C25.7145 35.205 26.2243 35.3052 26.7021 35.3052V32.3469ZM25.1213 32.4723C24.5545 32.8974 24.5065 33.5046 24.5065 33.7192H27.4648C27.4648 33.8721 27.4323 34.4369 26.8963 34.8389L25.1213 32.4723ZM24.5065 33.7192C24.5065 34.4688 25.0074 34.8838 25.1976 35.0162C25.4151 35.1676 25.6362 35.2467 25.7676 35.2883L26.6602 32.4678C26.6606 32.468 26.6804 32.4741 26.7132 32.4887C26.7434 32.502 26.8082 32.5328 26.8879 32.5883C27.002 32.6677 27.4648 33.0273 27.4648 33.7192H24.5065ZM25.7355 35.2777C26.0687 35.3916 26.4069 35.4352 26.731 35.4352V32.4769C26.6699 32.4769 26.6634 32.4685 26.6923 32.4784L25.7355 35.2777ZM26.731 35.4352C27.0464 35.4352 27.371 35.3963 27.6911 35.2987L26.8283 32.469C26.8325 32.4677 26.8047 32.4769 26.731 32.4769V35.4352ZM27.7019 35.2954C27.9503 35.2175 28.2311 35.1021 28.4922 34.9194L26.7957 32.4958C26.815 32.4824 26.8305 32.473 26.8408 32.4672C26.8512 32.4614 26.8576 32.4584 26.859 32.4577C26.861 32.4568 26.8487 32.4626 26.8175 32.4723L27.7019 35.2954ZM26.6699 34.8208C26.5015 34.6734 26.4151 34.5218 26.3763 34.4421C26.3358 34.359 26.3207 34.2996 26.3173 34.2858L29.1902 33.5801C29.1434 33.3896 29.016 32.9427 28.618 32.5944L26.6699 34.8208ZM26.3249 34.3157C26.3278 34.3265 26.3179 34.2952 26.3179 34.2305H29.2762C29.2762 33.9848 29.2374 33.7551 29.1825 33.5502L26.3249 34.3157ZM26.3179 34.2305C26.3179 34.2257 26.3181 34.1807 26.3361 34.1087L29.206 34.8262C29.2587 34.6155 29.2762 34.4125 29.2762 34.2305H26.3179ZM26.8156 33.3382C26.7985 33.3527 26.7909 33.3568 26.7936 33.3553C26.7965 33.3536 26.809 33.3466 26.8308 33.3392L27.7868 36.1388C28.1476 36.0156 28.4602 35.8219 28.7265 35.5966L26.8156 33.3382ZM26.8053 33.3482C26.7884 33.3543 26.6977 33.3812 26.4941 33.3812V36.3395C26.93 36.3395 27.3824 36.2854 27.8124 36.1298L26.8053 33.3482ZM26.4566 34.3836C26.6501 34.3836 27.0658 34.3542 27.4599 34.0547C27.9307 33.6969 28.0802 33.1849 28.0802 32.7947H25.1219C25.1219 32.4777 25.2473 32.0206 25.6699 31.6994C26.0159 31.4365 26.3594 31.4253 26.4566 31.4253V34.3836ZM28.0802 32.7947C28.0802 32.3409 27.88 31.8233 27.3939 31.4931C27.01 31.2324 26.6201 31.2115 26.4479 31.2115V34.1698C26.3777 34.1698 26.0644 34.1663 25.7316 33.9403C25.5463 33.8144 25.3777 33.6334 25.2636 33.4008C25.1527 33.1749 25.1219 32.9593 25.1219 32.7947H28.0802ZM26.4479 31.2115C26.1271 31.2115 25.689 31.3039 25.3174 31.6511C24.9616 31.9836 24.844 32.3855 24.8069 32.6498L27.7365 33.061C27.7148 33.2155 27.6342 33.5351 27.3372 33.8126C27.0244 34.1049 26.6667 34.1698 26.4479 34.1698V31.2115ZM25.504 34.1197C25.8119 34.3067 26.1442 34.3836 26.4566 34.3836V31.4253C26.6303 31.4253 26.8393 31.4696 27.0393 31.591L25.504 34.1197ZM28.5318 34.4154L29.5576 33.3497L29.5478 33.3404L28.5318 34.4154ZM28.5463 31.954L29.5564 33.0345L29.5607 33.0305L28.5463 31.954ZM30.7939 31.9107L29.7943 33.0011L29.8023 33.0082L30.7939 31.9107ZM30.869 33.5892L29.996 32.395L29.9849 32.4033L30.869 33.5892ZM29.3089 33.6556L30.0719 32.3884C29.5559 32.0778 28.9032 32.111 28.4215 32.4723L29.3089 33.6556ZM29.5141 33.8781L29.9924 32.4784C29.9818 32.4748 29.9711 32.4712 29.9603 32.4678L29.5141 33.8781ZM30.5599 33.8838L30.9912 35.2987L31.002 35.2954L30.5599 33.8838ZM30.9441 33.7076L31.9181 32.5944C31.4058 32.1461 30.6536 32.1054 30.0959 32.4958L30.9441 33.7076ZM31.0539 33.933L29.6174 34.2858C29.6199 34.2958 29.6224 34.3057 29.6251 34.3157L31.0539 33.933ZM31.0712 34.4674L32.0267 35.5966C32.2633 35.3964 32.431 35.1269 32.5062 34.8262L31.0712 34.4674ZM30.609 34.739L30.131 33.3392C30.1224 33.3421 30.1139 33.3451 30.1054 33.3482L30.609 34.739ZM29.5718 32.8554L28.107 32.6498C28.0249 33.235 28.299 33.813 28.8042 34.1197L29.5718 32.8554ZM29.7943 33.3812C29.6631 33.3812 29.5952 33.3628 29.5702 33.354C29.558 33.3497 29.5538 33.347 29.5546 33.3475C29.5548 33.3476 29.5554 33.348 29.5563 33.3486C29.5571 33.3493 29.5576 33.3497 29.5576 33.3497L27.5061 35.4811C28.154 36.1047 28.9777 36.3395 29.7943 36.3395V33.3812ZM29.5478 33.3404C29.5471 33.3398 29.5498 33.3423 29.5532 33.3474C29.5566 33.3524 29.5572 33.3548 29.556 33.3517C29.5538 33.3458 29.5372 33.2998 29.5372 33.1905H26.5789C26.5789 34.0308 26.848 34.8593 27.5158 35.4904L29.5478 33.3404ZM29.5372 33.1905C29.5372 33.0847 29.5535 33.0405 29.5559 33.0346C29.5572 33.0312 29.557 33.0324 29.555 33.0354C29.5529 33.0384 29.5524 33.0382 29.5564 33.0345L27.5361 30.8735C26.8609 31.5047 26.5789 32.3356 26.5789 33.1905H29.5372ZM29.5607 33.0305C29.5639 33.0275 29.5661 33.0257 29.5674 33.0247C29.5686 33.0237 29.5693 33.0233 29.5694 33.0232C29.5695 33.0231 29.5696 33.0231 29.5699 33.023C29.5701 33.0229 29.571 33.0224 29.5728 33.0218C29.5773 33.0201 29.61 33.0085 29.6874 33.0085V30.0502C28.897 30.0502 28.1392 30.3052 27.5319 30.8775L29.5607 33.0305ZM29.6874 33.0085C29.7823 33.0085 29.823 33.0216 29.8273 33.0231C29.8293 33.0238 29.825 33.0225 29.8169 33.0177C29.8087 33.0128 29.8008 33.0069 29.7944 33.001L31.7934 30.8203C31.1854 30.263 30.431 30.0502 29.6874 30.0502V33.0085ZM29.8023 33.0082C29.8058 33.0114 29.7811 32.989 29.7586 32.939C29.7359 32.8883 29.7336 32.8499 29.7336 32.8438H32.6919C32.6919 32.0473 32.3689 31.3402 31.7855 30.8131L29.8023 33.0082ZM29.7336 32.8438C29.7336 32.8374 29.735 32.7631 29.7837 32.6576C29.8358 32.5447 29.9155 32.4539 29.996 32.3951L31.742 34.7832C32.4167 34.2899 32.6919 33.5589 32.6919 32.8438H29.7336ZM29.9849 32.4033C30.0143 32.3814 30.0413 32.366 30.0631 32.3557C30.0846 32.3456 30.099 32.3412 30.1034 32.34C30.1105 32.3381 30.0815 32.3469 30.0023 32.3469V35.3052C30.5668 35.3052 31.2039 35.1844 31.753 34.7751L29.9849 32.4033ZM30.0023 32.3469C29.9673 32.3469 29.9613 32.3432 29.977 32.3471C29.9942 32.3513 30.0291 32.3627 30.0719 32.3884L28.546 34.9228C29.0147 35.205 29.5245 35.3052 30.0023 35.3052V32.3469ZM28.4215 32.4723C27.8546 32.8974 27.8067 33.5046 27.8067 33.7192H30.765C30.765 33.8721 30.7324 34.4369 30.1964 34.8389L28.4215 32.4723ZM27.8067 33.7192C27.8067 34.4688 28.3076 34.8838 28.4977 35.0162C28.7153 35.1676 28.9364 35.2467 29.0678 35.2883L29.9603 32.4678C29.9608 32.468 29.9806 32.4741 30.0134 32.4887C30.0435 32.502 30.1083 32.5328 30.188 32.5883C30.3021 32.6677 30.765 33.0273 30.765 33.7192H27.8067ZM29.0357 35.2777C29.3689 35.3916 29.7071 35.4352 30.0312 35.4352V32.4769C29.9701 32.4769 29.9636 32.4685 29.9924 32.4784L29.0357 35.2777ZM30.0312 35.4352C30.3466 35.4352 30.6712 35.3963 30.9912 35.2987L30.1285 32.469C30.1327 32.4677 30.1048 32.4769 30.0312 32.4769V35.4352ZM31.002 35.2954C31.2505 35.2175 31.5313 35.1021 31.7923 34.9194L30.0959 32.4958C30.1151 32.4824 30.1306 32.473 30.141 32.4672C30.1514 32.4614 30.1578 32.4584 30.1592 32.4577C30.1612 32.4568 30.1489 32.4626 30.1177 32.4723L31.002 35.2954ZM29.9701 34.8208C29.8017 34.6734 29.7153 34.5218 29.6765 34.4421C29.636 34.359 29.6208 34.2996 29.6174 34.2858L32.4903 33.5801C32.4435 33.3896 32.3162 32.9427 31.9181 32.5944L29.9701 34.8208ZM29.6251 34.3157C29.628 34.3265 29.6181 34.2952 29.6181 34.2305H32.5764C32.5764 33.9848 32.5375 33.7551 32.4827 33.5502L29.6251 34.3157ZM29.6181 34.2305C29.6181 34.2257 29.6182 34.1807 29.6362 34.1087L32.5062 34.8262C32.5589 34.6155 32.5764 34.4125 32.5764 34.2305H29.6181ZM30.1158 33.3382C30.0987 33.3527 30.0911 33.3568 30.0937 33.3553C30.0967 33.3536 30.1092 33.3466 30.131 33.3392L31.087 36.1388C31.4478 36.0156 31.7603 35.8219 32.0267 35.5966L30.1158 33.3382ZM30.1054 33.3482C30.0885 33.3543 29.9978 33.3812 29.7943 33.3812V36.3395C30.2302 36.3395 30.6826 36.2854 31.1125 36.1298L30.1054 33.3482ZM29.7567 34.3836C29.9502 34.3836 30.366 34.3542 30.7601 34.0547C31.2308 33.6969 31.3803 33.1849 31.3803 32.7947H28.422C28.422 32.4777 28.5474 32.0206 28.9701 31.6994C29.316 31.4365 29.6596 31.4253 29.7567 31.4253V34.3836ZM31.3803 32.7947C31.3803 32.3409 31.1802 31.8233 30.694 31.4931C30.3102 31.2324 29.9203 31.2115 29.7481 31.2115V34.1698C29.6779 34.1698 29.3646 34.1663 29.0318 33.9403C28.8464 33.8144 28.6779 33.6334 28.5637 33.4008C28.4529 33.1749 28.422 32.9593 28.422 32.7947H31.3803ZM29.7481 31.2115C29.4272 31.2115 28.9891 31.3039 28.6176 31.6511C28.2618 31.9836 28.1441 32.3855 28.107 32.6498L31.0366 33.061C31.0149 33.2155 30.9344 33.5351 30.6373 33.8126C30.3245 34.1049 29.9668 34.1698 29.7481 34.1698V31.2115ZM28.8042 34.1197C29.1121 34.3067 29.4443 34.3836 29.7567 34.3836V31.4253C29.9304 31.4253 30.1395 31.4696 30.3395 31.591L28.8042 34.1197ZM32.8431 33.6845L34.3152 33.5397C34.2688 33.0684 33.9996 32.6479 33.5911 32.4084C33.1826 32.1689 32.6841 32.1396 32.2502 32.3294L32.8431 33.6845ZM32.7044 33.7452L32.1116 32.39C31.5732 32.6256 31.2253 33.1575 31.2253 33.7452H32.7044ZM32.7796 34.1583L34.1941 33.7261C34.1894 33.7105 34.1844 33.6949 34.1791 33.6795L32.7796 34.1583ZM32.9558 34.5281L34.0172 35.5583C34.5104 35.0502 34.5742 34.2638 34.1696 33.6828L32.9558 34.5281ZM31.6557 34.6696L32.517 33.4671C32.5121 33.4636 32.5071 33.46 32.5021 33.4565L31.6557 34.6696ZM31.4073 30.8389L30.662 29.5612C30.2076 29.8263 29.9281 30.3128 29.9281 30.8389H31.4073ZM31.7395 30.706L31.361 29.2761L31.3558 29.2775L31.7395 30.706ZM32.6842 30.784L33.4668 29.5288C33.4597 29.5244 33.4525 29.52 33.4452 29.5156L32.6842 30.784ZM32.794 32.2805L34.0101 33.1224C34.0807 33.0205 34.1382 32.9101 34.1812 32.7938L32.794 32.2805ZM32.7016 32.3902L33.7695 33.4137C33.7764 33.4064 33.7833 33.3991 33.7901 33.3917L32.7016 32.3902ZM32.5947 32.5174L31.3829 31.6691C31.3732 31.683 31.3637 31.697 31.3545 31.7112L32.5947 32.5174ZM32.6264 32.6936L31.9649 34.0166C32.5183 34.2933 33.1854 34.1963 33.6372 33.7735L32.6264 32.6936ZM32.9789 32.2342L31.6683 31.5484L31.6621 31.5605L32.9789 32.2342ZM33.2158 31.5756L32.9909 30.1136C32.4075 30.2034 31.9333 30.6314 31.7844 31.2026L33.2158 31.5756ZM33.4642 31.5351L33.6892 32.9971C33.6992 32.9955 33.7092 32.9939 33.7192 32.9921L33.4642 31.5351ZM34.3194 31.72L33.3777 32.8607L33.3856 32.8672L34.3194 31.72ZM34.3425 32.8871L35.4357 33.8835C35.4403 33.8785 35.4449 33.8734 35.4494 33.8683L34.3425 32.8871ZM33.8022 33.2309L33.3163 31.8339C32.7716 32.0234 32.3866 32.5122 32.3302 33.0862C32.2738 33.6602 32.5561 34.2146 33.0535 34.5066L33.8022 33.2309ZM34.4725 33.4534L35.768 32.7395C35.5491 32.3422 35.1599 32.0673 34.7123 31.9938L34.4725 33.4534ZM34.4263 34.5887L35.4918 35.6148L35.5008 35.6052L34.4263 34.5887ZM33.1493 34.5194L32.0113 35.4642C32.0145 35.4681 32.0177 35.472 32.021 35.4758L33.1493 34.5194ZM32.2502 32.3294L32.1116 32.39L33.2973 35.1003L33.436 35.0396L32.2502 32.3294ZM31.2253 33.7452C31.2253 34.0658 31.2874 34.3663 31.38 34.6371L34.1791 33.6795C34.1716 33.6575 34.1836 33.6826 34.1836 33.7452H31.2253ZM31.365 34.5905C31.4477 34.8614 31.5703 35.1268 31.742 35.3734L34.1696 33.6828C34.1911 33.7136 34.1961 33.7325 34.1941 33.7261L31.365 34.5905ZM31.8944 33.4979C31.9575 33.4329 32.0323 33.3873 32.0998 33.3623C32.1613 33.3395 32.1894 33.3436 32.1613 33.3436V36.3019C32.7988 36.3019 33.4845 36.1071 34.0172 35.5583L31.8944 33.4979ZM32.1613 33.3436C32.1943 33.3436 32.2493 33.3481 32.3178 33.3688C32.3877 33.39 32.4561 33.4235 32.517 33.4671L30.7945 35.8722C31.2155 36.1737 31.6933 36.3019 32.1613 36.3019V33.3436ZM32.5021 33.4565C32.5782 33.5096 32.6858 33.6079 32.7704 33.7644C32.8568 33.9241 32.8864 34.0839 32.8864 34.2103H29.9281C29.9281 34.9173 30.275 35.5099 30.8094 35.8827L32.5021 33.4565ZM32.8864 34.2103V30.8389H29.9281V34.2103H32.8864ZM32.1526 32.1165C32.1293 32.1301 32.1137 32.1367 32.109 32.1386C32.1044 32.1404 32.1084 32.1385 32.1233 32.1345L31.3558 29.2775C31.13 29.3381 30.8917 29.4272 30.662 29.5612L32.1526 32.1165ZM32.118 32.1359C32.1279 32.1333 32.1327 32.1331 32.1353 32.1331V29.1748C31.8722 29.1748 31.6131 29.2094 31.361 29.2761L32.118 32.1359ZM32.1353 32.1331C32.171 32.1331 32.0702 32.1405 31.9232 32.0523L33.4452 29.5156C33.0093 29.2541 32.5426 29.1748 32.1353 29.1748V32.1331ZM31.9016 32.0391C31.8039 31.9782 31.6755 31.8677 31.5774 31.6923C31.4789 31.5161 31.4506 31.3454 31.4506 31.2231H34.4089C34.4089 30.5145 34.0575 29.8971 33.4668 29.5288L31.9016 32.0391ZM31.4506 31.2231V31.5293H34.4089V31.2231H31.4506ZM31.4506 31.5293C31.4506 31.607 31.4376 31.6838 31.4068 31.7671L34.1812 32.7938C34.3314 32.388 34.4089 31.9639 34.4089 31.5293H31.4506ZM31.5779 31.4385C31.5935 31.4159 31.606 31.3996 31.6129 31.3908C31.6201 31.3815 31.625 31.3757 31.6265 31.3739C31.629 31.3709 31.6254 31.3753 31.613 31.3888L33.7901 33.3917C33.8406 33.3368 33.9308 33.237 34.0101 33.1224L31.5779 31.4385ZM31.6336 31.3668C31.5543 31.4496 31.4656 31.551 31.3829 31.6691L33.8064 33.3656C33.791 33.3877 33.7792 33.4021 33.7737 33.4087C33.768 33.4154 33.7662 33.4172 33.7695 33.4137L31.6336 31.3668ZM31.3545 31.7112C31.2576 31.8602 31.078 32.1806 31.078 32.6185H34.0363C34.0363 32.8169 33.9936 32.9774 33.9531 33.0865C33.9126 33.1954 33.8662 33.2752 33.8348 33.3235L31.3545 31.7112ZM31.078 32.6185C31.078 33.5789 31.8746 33.9714 31.9649 34.0166L33.2879 31.3706C33.3506 31.4019 33.5058 31.4857 33.6613 31.6542C33.8328 31.84 34.0363 32.1694 34.0363 32.6185H31.078ZM33.6372 33.7735C33.899 33.5285 34.1254 33.2409 34.2957 32.908L31.6621 31.5605C31.662 31.5607 31.66 31.5647 31.6537 31.5729C31.6473 31.5812 31.6356 31.595 31.6157 31.6136L33.6372 33.7735ZM34.2895 32.92C34.4473 32.6183 34.5604 32.2813 34.6471 31.9485L31.7844 31.2026C31.7286 31.4168 31.6838 31.5189 31.6683 31.5485L34.2895 32.92ZM33.4407 33.0375C33.4792 33.0316 33.5192 33.0249 33.5595 33.0178L33.0454 30.1045C33.0203 30.1089 33.0025 30.1118 32.9909 30.1136L33.4407 33.0375ZM33.5595 33.0178C33.5748 33.0151 33.6147 33.0085 33.6892 32.9971L33.2393 30.0732C33.1635 30.0848 33.0956 30.0956 33.0454 30.1045L33.5595 33.0178ZM33.7192 32.9921C33.7433 32.9879 33.7507 32.9871 33.7459 32.9877C33.7431 32.988 33.7325 32.9893 33.7159 32.9906C33.7009 32.9918 33.669 32.994 33.626 32.994V30.0357C33.4513 30.0357 33.281 30.0656 33.2093 30.0781L33.7192 32.9921ZM33.626 32.994C33.7089 32.994 33.5624 33.0132 33.3777 32.8607L35.2611 30.5794C34.745 30.1533 34.1364 30.0357 33.626 30.0357V32.994ZM33.3856 32.8672C33.2977 32.7956 33.2124 32.6921 33.1546 32.5625C33.0989 32.4374 33.0887 32.3328 33.0887 32.2776H36.047C36.047 31.6509 35.8045 31.0216 35.2531 30.5728L33.3856 32.8672ZM33.0887 32.2776C33.0887 32.2374 33.0955 32.172 33.1241 32.0948C33.153 32.0165 33.1946 31.9523 33.2356 31.906L35.4494 33.8683C35.8512 33.4149 36.047 32.8578 36.047 32.2776H33.0887ZM33.2493 31.8908C33.2713 31.8666 33.293 31.8497 33.3093 31.8393C33.3248 31.8294 33.3294 31.8293 33.3163 31.8339L34.2882 34.628C34.7096 34.4814 35.1093 34.2417 35.4357 33.8835L33.2493 31.8908ZM33.0535 34.5066C33.4299 34.7275 33.8394 34.8484 34.2327 34.913L34.7123 31.9938C34.6423 31.9823 34.5959 31.9698 34.5686 31.9607C34.5415 31.9517 34.5382 31.9478 34.551 31.9553L33.0535 34.5066ZM33.177 34.1672C33.1714 34.1572 33.1635 34.1395 33.1574 34.1159C33.1513 34.0923 33.1493 34.0716 33.1493 34.0572H36.1076C36.1076 33.5917 35.9914 33.1451 35.768 32.7395L33.177 34.1672ZM33.1493 34.0572C33.1493 34.0044 33.1582 33.921 33.1955 33.823C33.2335 33.723 33.2899 33.6376 33.3517 33.5723L35.5008 35.6052C35.9173 35.1649 36.1076 34.614 36.1076 34.0572H33.1493ZM33.3608 33.5627C33.4427 33.4777 33.5412 33.4157 33.6382 33.3793C33.7294 33.3451 33.7917 33.3436 33.8022 33.3436V36.3019C34.3724 36.3019 35.0015 36.1238 35.4917 35.6147L33.3608 33.5627ZM33.8022 33.3436C33.864 33.3436 33.9592 33.3566 34.0644 33.4055C34.1693 33.4542 34.2395 33.518 34.2777 33.563L32.021 35.4758C32.4719 36.0078 33.1014 36.3019 33.8022 36.3019V33.3436ZM34.2874 33.5746C34.3042 33.5949 34.3161 33.613 34.3239 33.6269C34.3315 33.6405 34.3344 33.6484 34.3344 33.6482C34.3338 33.6467 34.3225 33.6147 34.3152 33.5397L31.3711 33.8293C31.4252 34.3792 31.5994 34.9681 32.0113 35.4642L34.2874 33.5746Z" fill="#A35A38"/>
<path d="M25.3076 23.4092C25.6891 23.4092 26.0285 23.3737 26.3259 23.3026C26.6234 23.2314 26.7721 23.1247 26.7721 22.9825C26.7721 22.892 26.743 22.8176 26.6848 22.7594C26.2904 22.9017 25.8604 22.9728 25.3949 22.9728C24.7612 22.9728 24.2278 22.7562 23.7946 22.323C23.3614 21.8833 23.1448 21.2529 23.1448 20.4317C23.1448 19.8886 23.2579 19.3617 23.4842 18.8509C24.2989 18.7539 24.9326 18.5922 25.3852 18.3659C26.0188 18.0426 26.5619 17.5221 27.0145 16.8044H28.7506C29.3067 16.8044 29.7172 16.9079 29.9823 17.1148C30.2927 17.367 30.4479 17.8099 30.4479 18.4435V28.7435C30.1181 29.0474 29.7334 29.2802 29.2937 29.4418C28.8605 29.597 28.4144 29.6746 27.9553 29.6746C27.1988 29.6746 26.5846 29.4935 26.1126 29.1315C25.5759 28.7241 25.3076 28.1293 25.3076 27.3469V23.4092Z" fill="#E09E61"/>
<path d="M25.3076 23.4092V21.9301C24.4907 21.9301 23.8284 22.5923 23.8284 23.4092H25.3076ZM26.6848 22.7594L27.7307 21.7135C27.3253 21.3081 26.7222 21.1735 26.183 21.368L26.6848 22.7594ZM23.7946 22.323L22.7409 23.3612L22.7487 23.3689L23.7946 22.323ZM23.4842 18.8509L23.3094 17.3821C22.7909 17.4438 22.3434 17.7743 22.1319 18.2517L23.4842 18.8509ZM25.3852 18.3659L26.0467 19.689L26.0574 19.6835L25.3852 18.3659ZM27.0145 16.8044V15.3253C26.5067 15.3253 26.0343 15.5858 25.7634 16.0154L27.0145 16.8044ZM29.9823 17.1148L30.9151 15.9668C30.9076 15.9607 30.9 15.9547 30.8924 15.9488L29.9823 17.1148ZM30.4479 28.7435L31.4503 29.8312C31.7541 29.5512 31.927 29.1568 31.927 28.7435H30.4479ZM29.2937 29.4418L29.7926 30.8344L29.8041 30.8301L29.2937 29.4418ZM26.1126 29.1315L27.0129 27.9578L27.0069 27.9533L26.1126 29.1315ZM25.3076 24.8884C25.7777 24.8884 26.2361 24.8449 26.6699 24.7411L25.9819 21.864C25.8209 21.9025 25.6004 21.9301 25.3076 21.9301V24.8884ZM26.6699 24.7411C26.8968 24.6869 27.2223 24.5866 27.5227 24.3711C27.8615 24.1281 28.2512 23.6637 28.2512 22.9825H25.2929C25.2929 22.7456 25.3587 22.5175 25.4744 22.3239C25.5833 22.1416 25.7124 22.029 25.7983 21.9673C25.95 21.8585 26.0525 21.8471 25.9819 21.864L26.6699 24.7411ZM28.2512 22.9825C28.2512 22.5428 28.0953 22.0781 27.7307 21.7135L25.6389 23.8053C25.5282 23.6947 25.4349 23.5566 25.3728 23.3978C25.3118 23.2419 25.2929 23.0972 25.2929 22.9825H28.2512ZM26.183 21.368C25.9663 21.4462 25.7081 21.4936 25.3949 21.4936V24.4519C26.0127 24.4519 26.6145 24.3572 27.1866 24.1508L26.183 21.368ZM25.3949 21.4936C25.1385 21.4936 24.9859 21.4224 24.8405 21.2771L22.7487 23.3689C23.4697 24.0899 24.3839 24.4519 25.3949 24.4519V21.4936ZM24.8482 21.2848C24.7683 21.2037 24.6239 20.9968 24.6239 20.4317H21.6656C21.6656 21.509 21.9544 22.5629 22.7409 23.3611L24.8482 21.2848ZM24.6239 20.4317C24.6239 20.101 24.6914 19.7777 24.8366 19.45L22.1319 18.2517C21.8244 18.9456 21.6656 19.6763 21.6656 20.4317H24.6239ZM23.6591 20.3196C24.5514 20.2134 25.3763 20.0241 26.0467 19.6889L24.7237 17.0429C24.4888 17.1604 24.0464 17.2943 23.3094 17.3821L23.6591 20.3196ZM26.0574 19.6835C26.9701 19.2178 27.6987 18.4926 28.2657 17.5934L25.7634 16.0154C25.4252 16.5517 25.0675 16.8674 24.7129 17.0484L26.0574 19.6835ZM27.0145 18.2836H28.7506V15.3253H27.0145V18.2836ZM28.7506 18.2836C28.9424 18.2836 29.0572 18.302 29.1142 18.3164C29.1699 18.3304 29.1382 18.3323 29.0723 18.2808L30.8924 15.9488C30.2456 15.4439 29.4387 15.3253 28.7506 15.3253V18.2836ZM29.0496 18.2628C29.0076 18.2287 28.9771 18.1927 28.957 18.1628C28.9378 18.1341 28.9331 18.1183 28.9355 18.1252C28.9382 18.1328 28.9469 18.1606 28.9548 18.2151C28.9626 18.2695 28.9687 18.3445 28.9687 18.4435H31.927C31.927 17.6246 31.7321 16.6306 30.9151 15.9668L29.0496 18.2628ZM28.9687 18.4435V28.7435H31.927V18.4435H28.9687ZM29.4455 27.6558C29.2648 27.8223 29.0491 27.9558 28.7833 28.0535L29.8041 30.8301C30.4177 30.6045 30.9715 30.2724 31.4503 29.8312L29.4455 27.6558ZM28.7949 28.0493C28.5214 28.1473 28.244 28.1954 27.9553 28.1954V31.1537C28.5848 31.1537 29.1997 31.0467 29.7925 30.8343L28.7949 28.0493ZM27.9553 28.1954C27.4349 28.1954 27.1636 28.0734 27.0129 27.9578L25.2123 30.3051C26.0056 30.9136 26.9628 31.1537 27.9553 31.1537V28.1954ZM27.0069 27.9533C26.9011 27.873 26.7867 27.7512 26.7867 27.3469H23.8284C23.8284 28.5073 24.2507 29.5752 25.2183 30.3096L27.0069 27.9533ZM26.7867 27.3469V23.4092H23.8284V27.3469H26.7867Z" fill="#A35A38"/>
</svg>
