<svg width="55" height="55" viewBox="0 0 55 55" fill="none" xmlns="http://www.w3.org/2000/svg">
<path d="M44.9554 32.0131C42.3825 41.6155 32.7557 47.3791 23.4533 44.8866C14.151 42.394 8.69579 32.5892 11.2687 22.9868C13.8417 13.3844 23.4685 7.62071 32.7708 10.1133C42.0731 12.6058 47.5284 22.4107 44.9554 32.0131Z" fill="#A56402"/>
<path fill-rule="evenodd" clip-rule="evenodd" d="M46.0422 32.3042C43.3172 42.4739 33.097 48.6352 23.1622 45.9732C13.2275 43.3112 7.45719 32.8653 10.1822 22.6955C12.9071 12.5257 23.1274 6.36449 33.0621 9.0265C42.9968 11.6885 48.7671 22.1344 46.0422 32.3042ZM23.4534 44.8865C32.7557 47.379 42.3825 41.6154 44.9555 32.013C47.5284 22.4106 42.0732 12.6057 32.7709 10.1132C23.4686 7.62062 13.8418 13.3843 11.2688 22.9867C8.69588 32.5891 14.1511 42.3939 23.4534 44.8865Z" fill="#5B3303"/>
<path d="M43.8304 30.8881C41.2575 40.4905 31.6307 46.2541 22.3283 43.7616C13.026 41.269 7.57079 31.4642 10.1437 21.8618C12.7167 12.2594 22.3435 6.49571 31.6458 8.98825C40.9481 11.4808 46.4034 21.2857 43.8304 30.8881Z" fill="#FFB423"/>
<path fill-rule="evenodd" clip-rule="evenodd" d="M44.9172 31.1792C42.1922 41.3489 31.972 47.5102 22.0372 44.8482C12.1025 42.1862 6.33219 31.7403 9.05717 21.5705C11.7821 11.4007 22.0024 5.23949 31.9371 7.9015C41.8718 10.5635 47.6421 21.0094 44.9172 31.1792ZM22.3284 43.7615C31.6307 46.254 41.2575 40.4904 43.8305 30.888C46.4034 21.2856 40.9482 11.4807 31.6459 8.98816C22.3436 6.49562 12.7168 12.2593 10.1438 21.8617C7.57088 31.4641 13.0261 41.2689 22.3284 43.7615Z" fill="#5B3303"/>
<path d="M40.5707 30.0143C38.4802 37.8163 30.704 42.5115 23.2021 40.5014C15.7003 38.4913 11.3135 30.537 13.404 22.7351C15.4946 14.9331 23.2707 10.2379 30.7726 12.248C38.2745 14.2582 42.6612 22.2124 40.5707 30.0143Z" fill="#FFCF23"/>
<path fill-rule="evenodd" clip-rule="evenodd" d="M41.6575 30.3057C39.417 38.6672 31.0528 43.7698 22.9111 41.5882C14.7693 39.4066 10.077 30.8056 12.3175 22.444C14.5579 14.0825 22.9221 8.97994 31.0639 11.1615C39.2056 13.3431 43.8979 21.9441 41.6575 30.3057ZM23.2022 40.5015C30.7041 42.5116 38.4803 37.8164 40.5708 30.0145C42.6613 22.2126 38.2746 14.2583 30.7727 12.2482C23.2708 10.2381 15.4947 14.9333 13.4041 22.7352C11.3136 30.5372 15.7004 38.4914 23.2022 40.5015Z" fill="#DF8D12"/>
<path fill-rule="evenodd" clip-rule="evenodd" d="M37.4293 16.3586C35.8839 14.9813 34.0147 13.9404 31.8973 13.3731C24.3955 11.3629 16.6193 16.0581 14.5288 23.8601C13.1798 28.8946 14.5279 33.9926 17.6699 37.5159C13.7397 34.0133 11.9033 28.335 13.4038 22.7351C15.4943 14.9331 23.2705 10.2379 30.7723 12.2481C33.4333 12.9611 35.7023 14.4219 37.4293 16.3586Z" fill="#FFDD65"/>
<path fill-rule="evenodd" clip-rule="evenodd" d="M11.5404 20.9955C11.2493 20.8868 11.1016 20.5627 11.2103 20.2717C13.1519 15.0758 17.5 11.0547 22.9001 9.56426C23.1996 9.48161 23.5094 9.65737 23.592 9.95683C23.6747 10.2563 23.4989 10.5661 23.1994 10.6487C18.1496 12.0425 14.0805 15.8049 12.2642 20.6655C12.1554 20.9565 11.8314 21.1043 11.5404 20.9955Z" fill="#FFCF72"/>
<path fill-rule="evenodd" clip-rule="evenodd" d="M41.0026 34.8993C41.2652 35.0652 41.3436 35.4126 41.1777 35.6752C39.8619 37.7582 38.1173 39.543 36.0677 40.9057C35.809 41.0777 35.4598 41.0075 35.2878 40.7488C35.1158 40.4901 35.1861 40.1409 35.4448 39.9689C37.3627 38.6937 38.9954 37.0234 40.2266 35.0744C40.3925 34.8118 40.7399 34.7334 41.0026 34.8993Z" fill="#FFCF72"/>
<path fill-rule="evenodd" clip-rule="evenodd" d="M17.737 13.3429C17.7369 13.343 17.7371 13.3428 17.737 13.3429L17.425 12.8749C17.737 13.3429 17.7369 13.3429 17.737 13.3429L17.735 13.3443L17.7236 13.352C17.7129 13.3593 17.6963 13.3708 17.6743 13.3863C17.6301 13.4174 17.5643 13.4647 17.4812 13.527C17.3149 13.6518 17.08 13.8363 16.811 14.0716C16.27 14.5451 15.6059 15.2113 15.0805 15.9994C14.9082 16.2579 14.559 16.3277 14.3005 16.1554C14.042 15.9831 13.9721 15.6338 14.1445 15.3753C14.7441 14.4759 15.4863 13.7359 16.0702 13.225C16.3637 12.9681 16.6211 12.7659 16.8062 12.627C16.8989 12.5575 16.9738 12.5037 17.0263 12.4667C17.0526 12.4481 17.0733 12.4338 17.0879 12.4238L17.1052 12.412L17.1103 12.4086L17.112 12.4075L17.1125 12.4071C17.1126 12.4071 17.113 12.4068 17.425 12.8749L17.1125 12.4071C17.371 12.2348 17.7207 12.3044 17.893 12.5628C18.0653 12.8212 17.9952 13.1705 17.737 13.3429Z" fill="#FFE9AF"/>
<path fill-rule="evenodd" clip-rule="evenodd" d="M19.987 16.1554C19.9869 16.1555 19.9871 16.1553 19.987 16.1554L19.675 15.6874C19.987 16.1554 19.9869 16.1554 19.987 16.1554L19.985 16.1568L19.9736 16.1645C19.9629 16.1718 19.9463 16.1833 19.9243 16.1988C19.8801 16.2299 19.8143 16.2772 19.7312 16.3395C19.5649 16.4643 19.33 16.6488 19.061 16.8841C18.52 17.3576 17.8559 18.0238 17.3305 18.8119C17.1582 19.0704 16.809 19.1402 16.5505 18.9679C16.292 18.7956 16.2221 18.4463 16.3945 18.1878C16.9941 17.2884 17.7363 16.5484 18.3202 16.0375C18.6137 15.7806 18.8711 15.5784 19.0562 15.4395C19.1489 15.37 19.2238 15.3162 19.2763 15.2792C19.3026 15.2606 19.3233 15.2463 19.3379 15.2363L19.3552 15.2245L19.3603 15.2211L19.362 15.22L19.3625 15.2196C19.3626 15.2196 19.363 15.2193 19.675 15.6874L19.3625 15.2196C19.621 15.0473 19.9707 15.1169 20.143 15.3753C20.3153 15.6337 20.2452 15.983 19.987 16.1554Z" fill="white"/>
<path d="M21.6541 34.8228C21.3902 34.8228 21.1832 34.7794 21.033 34.6927C20.8712 34.6022 20.7836 34.4742 20.7701 34.3085L20.7441 34.037C20.9213 33.9946 21.0705 33.8848 21.1919 33.7076C21.2246 33.6575 21.241 33.6142 21.241 33.5776C21.241 33.5275 21.2159 33.5025 21.1659 33.5025H21.1572C21.1553 33.5044 21.1514 33.5054 21.1456 33.5054C21.0108 33.7885 20.7922 33.9301 20.4898 33.9301C20.3358 33.9301 20.2038 33.8964 20.0941 33.8289C19.9862 33.7615 19.887 33.645 19.7965 33.4794H19.7792C19.7272 33.4794 19.7012 33.5015 19.7012 33.5458C19.7012 33.5766 19.7127 33.6113 19.7358 33.6498C19.8129 33.7789 19.9092 33.88 20.0247 33.9532C20.1152 34.0148 20.2106 34.0514 20.3107 34.063L20.2876 34.609C20.1721 34.6841 20.0498 34.738 19.9207 34.7708C19.7936 34.8054 19.6116 34.8228 19.3747 34.8228C19.1397 34.8228 18.9298 34.7765 18.7449 34.6841C18.5176 34.5705 18.404 34.4125 18.404 34.2103C18.404 33.958 18.4541 33.3349 18.5542 32.3411C18.6082 31.823 18.6515 31.461 18.6842 31.2549C18.8826 31.0777 19.1754 30.9891 19.5625 30.9891C19.8437 30.9891 20.0767 31.0411 20.2616 31.1451L20.4205 31.6767L20.3194 32.1013C20.3117 32.1302 20.3078 32.1582 20.3078 32.1851C20.3078 32.2525 20.3464 32.2872 20.4234 32.2891L20.6979 31.148C20.7768 31.1056 20.8799 31.069 21.007 31.0382C21.1341 31.0055 21.2728 30.9891 21.423 30.9891C21.7042 30.9891 21.9122 31.0372 22.047 31.1335C22.1837 31.2279 22.2646 31.3878 22.2897 31.6131C22.2955 31.6555 22.3041 31.7258 22.3157 31.824C22.4909 33.3301 22.5786 34.217 22.5786 34.4847C22.3648 34.7101 22.0566 34.8228 21.6541 34.8228ZM24.2436 33.1616V33.6672C24.2571 33.6806 24.2792 33.6874 24.31 33.6874C24.3408 33.6874 24.363 33.6768 24.3765 33.6556C24.39 33.6344 24.3967 33.5978 24.3967 33.5458V33.1327C24.3967 32.9478 24.389 32.8255 24.3736 32.7658C24.3582 32.7042 24.3293 32.6734 24.2869 32.6734C24.2599 32.6734 24.2368 32.683 24.2176 32.7023C24.2349 32.8929 24.2436 33.046 24.2436 33.1616ZM23.1631 34.4414C22.8472 34.1371 22.6893 33.7249 22.6893 33.2049C22.6893 32.683 22.8376 32.2718 23.1342 31.9713C23.4327 31.669 23.8237 31.5178 24.3071 31.5178C24.7906 31.5178 25.1815 31.6747 25.4801 31.9887C25.7767 32.3026 25.925 32.7119 25.925 33.2165C25.925 33.7192 25.7815 34.1188 25.4945 34.4154C25.2095 34.712 24.8214 34.8603 24.3302 34.8603C23.8391 34.8603 23.4501 34.7207 23.1631 34.4414ZM29.202 33.3407C29.202 33.4794 29.2174 33.5911 29.2482 33.6758C29.279 33.7606 29.333 33.827 29.41 33.8752C29.4119 33.8848 29.4129 33.9031 29.4129 33.9301V33.9821C29.4129 34.2478 29.3359 34.4549 29.1818 34.6032C29.0296 34.7496 28.8322 34.8228 28.5895 34.8228C28.3488 34.8228 28.1533 34.7544 28.0031 34.6176C27.8278 34.4616 27.7402 34.2247 27.7402 33.907C27.7402 33.7721 27.746 33.6537 27.7575 33.5516C27.771 33.4476 27.7797 33.3735 27.7835 33.3292C27.7893 33.2849 27.7951 33.2435 27.8009 33.2049C27.8066 33.1664 27.8095 33.1096 27.8095 33.0345C27.8095 32.9594 27.7989 32.9054 27.7777 32.8727C27.7585 32.84 27.7306 32.8236 27.694 32.8236C27.6593 32.8236 27.6285 32.8313 27.6015 32.8467L27.6391 33.3176C27.6044 33.5121 27.5871 33.7182 27.5871 33.9358C27.5871 34.1535 27.6362 34.3519 27.7344 34.531C27.5457 34.7255 27.2808 34.8228 26.9399 34.8228C26.7454 34.8228 26.5769 34.7717 26.4344 34.6696C26.2687 34.5541 26.1859 34.401 26.1859 34.2103V32.812C26.0723 32.6522 26.0155 32.4557 26.0155 32.2227C26.0155 31.9877 26.0723 31.7845 26.1859 31.6131H26.7002C26.8369 31.6131 26.9534 31.6642 27.0497 31.7662C26.965 31.8452 26.9226 31.9107 26.9226 31.9627C26.9226 32.0224 26.9563 32.0522 27.0237 32.0522C27.1085 31.9059 27.2375 31.7845 27.4108 31.6882C27.5861 31.5919 27.7845 31.5438 28.006 31.5438C28.3392 31.5438 28.6098 31.6256 28.8178 31.7893C29.0797 31.9954 29.2107 32.3151 29.2107 32.7485L29.202 33.3407ZM29.7345 32.9449H29.9137C30.01 32.9449 30.0581 32.9131 30.0581 32.8496C30.0581 32.8419 30.0562 32.8303 30.0523 32.8149H29.4052C29.3628 32.6801 29.3416 32.5299 29.3416 32.3642C29.3416 32.1967 29.3542 32.0609 29.3792 31.9569C29.489 31.8876 29.6402 31.7816 29.8328 31.6391C29.8867 31.5081 29.957 31.3001 30.0437 31.0151C30.0552 30.9766 30.0687 30.939 30.0841 30.9024C30.2343 30.8639 30.4057 30.8446 30.5983 30.8446C30.7909 30.8446 30.9806 30.8649 31.1675 30.9053V31.6131H31.6673C31.779 31.7826 31.8348 31.9819 31.8348 32.2111C31.8348 32.3151 31.8204 32.422 31.7915 32.5318C31.7626 32.6416 31.7212 32.735 31.6673 32.812H31.2541V33.2483C31.2541 33.4948 31.3572 33.6181 31.5633 33.6181H31.6875C31.7279 33.7644 31.7481 33.8915 31.7481 33.9994C31.7481 34.2652 31.6644 34.4693 31.4968 34.6119C31.3312 34.7525 31.0895 34.8228 30.7717 34.8228C30.4558 34.8228 30.2035 34.7351 30.0148 34.5599C29.8279 34.3827 29.7345 34.1227 29.7345 33.7798V32.9449ZM35.0252 33.3407C35.0252 33.4794 35.0406 33.5911 35.0714 33.6758C35.1022 33.7606 35.1562 33.827 35.2332 33.8752C35.2351 33.8848 35.2361 33.9031 35.2361 33.9301V33.9821C35.2361 34.2478 35.1591 34.4549 35.005 34.6032C34.8528 34.7496 34.6554 34.8228 34.4127 34.8228C34.172 34.8228 33.9765 34.7544 33.8263 34.6176C33.651 34.4616 33.5634 34.2247 33.5634 33.907C33.5634 33.7721 33.5692 33.6537 33.5807 33.5516C33.5942 33.4476 33.6029 33.3735 33.6067 33.3292C33.6125 33.2849 33.6183 33.2435 33.624 33.2049C33.6298 33.1664 33.6327 33.1096 33.6327 33.0345C33.6327 32.9594 33.6221 32.9054 33.6009 32.8727C33.5817 32.84 33.5538 32.8236 33.5172 32.8236C33.4825 32.8236 33.4517 32.8313 33.4247 32.8467L33.4623 33.3176C33.4276 33.5121 33.4103 33.7182 33.4103 33.9358C33.4103 34.1535 33.4594 34.3519 33.5576 34.531C33.3689 34.7255 33.104 34.8228 32.7631 34.8228C32.5686 34.8228 32.4001 34.7717 32.2576 34.6696C32.0919 34.5541 32.0091 34.401 32.0091 34.2103V30.8389C32.1016 30.7849 32.2123 30.7406 32.3413 30.706C32.4723 30.6713 32.6042 30.654 32.7371 30.654C32.9586 30.654 33.1416 30.6973 33.286 30.784C33.4497 30.8861 33.5316 31.0324 33.5316 31.2231V31.4976C33.364 31.5072 33.2032 31.5553 33.0491 31.642C32.9163 31.719 32.8498 31.7893 32.8498 31.8529C32.8498 31.8741 32.8575 31.8933 32.8729 31.9107C32.8883 31.9261 32.9066 31.9357 32.9278 31.9396C33.0087 31.8452 33.1223 31.7662 33.2687 31.7027C33.417 31.6391 33.5923 31.6073 33.7945 31.6073C33.9967 31.6073 34.1787 31.6382 34.3405 31.6998C34.5447 31.7768 34.7055 31.8943 34.823 32.0522C34.9636 32.2448 35.0339 32.4865 35.0339 32.7774L35.0252 33.3407Z" fill="#FFB423"/>
<path d="M21.033 34.6927L21.7721 33.4115C21.7665 33.4083 21.7609 33.4051 21.7552 33.4019L21.033 34.6927ZM20.7701 34.3085L22.2444 34.1885C22.2438 34.1815 22.2432 34.1745 22.2425 34.1675L20.7701 34.3085ZM20.7441 34.037L20.4001 32.5984C19.6827 32.7699 19.2014 33.4437 19.2717 34.1779L20.7441 34.037ZM21.1919 33.7076L22.4123 34.5433C22.4182 34.5346 22.4241 34.5259 22.4299 34.5171L21.1919 33.7076ZM21.1572 33.5025V32.0233C20.7649 32.0233 20.3887 32.1792 20.1113 32.4566L21.1572 33.5025ZM21.1456 33.5054V32.0262C20.5751 32.0262 20.0555 32.3543 19.8102 32.8694L21.1456 33.5054ZM20.0941 33.8289L19.3101 35.0833L19.3201 35.0894L20.0941 33.8289ZM19.7965 33.4794L21.0945 32.77C20.8351 32.2954 20.3373 32.0002 19.7965 32.0002V33.4794ZM19.7358 33.6498L21.0059 32.8916L21.0042 32.8888L19.7358 33.6498ZM20.0247 33.9532L20.8572 32.7305C20.8436 32.7213 20.83 32.7123 20.8161 32.7036L20.0247 33.9532ZM20.3107 34.063L21.7886 34.1255C21.8213 33.3509 21.2505 32.6824 20.4803 32.5936L20.3107 34.063ZM20.2876 34.609L21.0937 35.8492C21.4949 35.5884 21.7452 35.1496 21.7654 34.6715L20.2876 34.609ZM19.9207 34.7708L19.5569 33.337C19.5485 33.3392 19.54 33.3414 19.5315 33.3437L19.9207 34.7708ZM18.5542 32.3411L17.083 32.188L17.0825 32.1928L18.5542 32.3411ZM18.6842 31.2549L17.6989 30.1517C17.4448 30.3787 17.2769 30.6863 17.2234 31.0228L18.6842 31.2549ZM20.2616 31.1451L21.6788 30.7215C21.569 30.3542 21.3209 30.0439 20.9868 29.8559L20.2616 31.1451ZM20.4205 31.6767L21.8594 32.0193C21.9196 31.7664 21.9122 31.5021 21.8377 31.2531L20.4205 31.6767ZM20.3194 32.1013L21.7486 32.4825C21.752 32.4697 21.7553 32.4568 21.7583 32.4439L20.3194 32.1013ZM20.4234 32.2891L20.3864 33.7678C21.0837 33.7853 21.6984 33.3132 21.8615 32.635L20.4234 32.2891ZM20.6979 31.148L19.9985 29.8446C19.627 30.0439 19.3583 30.3923 19.2597 30.8021L20.6979 31.148ZM21.007 31.0382L21.3555 32.4757C21.3623 32.4741 21.3691 32.4724 21.3759 32.4706L21.007 31.0382ZM22.047 31.1335L21.1873 32.3372C21.1937 32.3418 21.2003 32.3464 21.2068 32.3509L22.047 31.1335ZM22.2897 31.6131L20.8196 31.7765C20.8209 31.7886 20.8224 31.8008 20.8241 31.813L22.2897 31.6131ZM22.3157 31.824L23.7849 31.653L23.7847 31.6512L22.3157 31.824ZM22.5786 34.4847L23.6516 35.5028C23.9124 35.228 24.0577 34.8636 24.0577 34.4847H22.5786ZM21.6541 33.3436C21.6002 33.3436 21.5869 33.3389 21.6039 33.3425C21.6213 33.3461 21.6856 33.3616 21.7721 33.4115L20.2938 35.974C20.7565 36.2409 21.2553 36.3019 21.6541 36.3019V33.3436ZM21.7552 33.4019C21.835 33.4466 21.9589 33.5361 22.0667 33.6935C22.1784 33.8569 22.2318 34.0337 22.2444 34.1885L19.2958 34.4285C19.3544 35.1484 19.7772 35.6851 20.3107 35.9836L21.7552 33.4019ZM22.2425 34.1675L22.2165 33.896L19.2717 34.1779L19.2977 34.4495L22.2425 34.1675ZM21.0881 35.4755C21.6844 35.333 22.123 34.9658 22.4123 34.5433L19.9714 32.8719C19.99 32.8448 20.0339 32.7891 20.1125 32.7313C20.1943 32.6711 20.2932 32.6239 20.4001 32.5984L21.0881 35.4755ZM22.4299 34.5171C22.5296 34.3645 22.7201 34.0313 22.7201 33.5776H19.7618C19.7618 33.3769 19.8061 33.2177 19.845 33.1148C19.8839 33.0117 19.9275 32.9385 19.9539 32.8981L22.4299 34.5171ZM22.7201 33.5776C22.7201 33.3246 22.6559 32.8631 22.2681 32.4754C21.8804 32.0876 21.4189 32.0233 21.1659 32.0233V34.9816C20.9629 34.9816 20.539 34.9299 20.1763 34.5672C19.8136 34.2045 19.7618 33.7806 19.7618 33.5776H22.7201ZM21.1659 32.0233H21.1572V34.9816H21.1659V32.0233ZM20.1113 32.4566C20.3675 32.2004 20.6478 32.1063 20.7941 32.0697C20.9494 32.0308 21.0771 32.0262 21.1456 32.0262V34.9845C21.2199 34.9845 21.3524 34.9794 21.5116 34.9396C21.6618 34.9021 21.945 34.8066 22.2031 34.5484L20.1113 32.4566ZM19.8102 32.8694C19.8363 32.8146 19.9131 32.6882 20.0766 32.5823C20.2433 32.4743 20.4027 32.4509 20.4898 32.4509V35.4092C20.8794 35.4092 21.2992 35.315 21.6846 35.0655C22.0667 34.818 22.3202 34.4793 22.4811 34.1413L19.8102 32.8694ZM20.4898 32.4509C20.555 32.4509 20.7029 32.4671 20.868 32.5685L19.3201 35.0894C19.7048 35.3257 20.1165 35.4092 20.4898 35.4092V32.4509ZM20.878 32.5746C20.9757 32.6357 21.0357 32.6977 21.0651 32.7322C21.0942 32.7664 21.102 32.7837 21.0945 32.77L18.4985 34.1887C18.6561 34.4771 18.9075 34.8316 19.3101 35.0833L20.878 32.5746ZM19.7965 32.0002H19.7792V34.9585H19.7965V32.0002ZM19.7792 32.0002C19.578 32.0002 19.1512 32.0381 18.7615 32.37C18.3264 32.7406 18.222 33.2281 18.222 33.5458H21.1803C21.1803 33.8193 21.0889 34.2735 20.6798 34.622C20.3162 34.9318 19.9284 34.9585 19.7792 34.9585V32.0002ZM18.222 33.5458C18.222 33.9404 18.3657 34.2413 18.4675 34.4108L21.0042 32.8888C21.0597 32.9814 21.1803 33.2129 21.1803 33.5458H18.222ZM18.4658 34.4081C18.6497 34.7162 18.9032 34.9937 19.2333 35.2028L20.8161 32.7036C20.9152 32.7663 20.976 32.8416 21.0059 32.8916L18.4658 34.4081ZM19.1923 35.1758C19.4631 35.3602 19.7832 35.4911 20.1412 35.5324L20.4803 32.5936C20.6379 32.6117 20.7674 32.6694 20.8572 32.7305L19.1923 35.1758ZM18.8329 34.0004L18.8098 34.5464L21.7654 34.6715L21.7886 34.1255L18.8329 34.0004ZM19.4815 33.3688C19.4969 33.3587 19.5234 33.3455 19.5569 33.337L20.2845 36.2045C20.5761 36.1305 20.8472 36.0094 21.0937 35.8492L19.4815 33.3688ZM19.5315 33.3437C19.555 33.3373 19.5687 33.335 19.5697 33.3348C19.5711 33.3346 19.5646 33.3357 19.5486 33.3373C19.5155 33.3404 19.4592 33.3436 19.3747 33.3436V36.3019C19.6563 36.3019 19.9931 36.2842 20.3099 36.1978L19.5315 33.3437ZM19.3747 33.3436C19.3544 33.3436 19.3504 33.3416 19.3591 33.3435C19.3684 33.3456 19.3856 33.3507 19.4064 33.3611L18.0834 36.0071C18.5002 36.2155 18.9417 36.3019 19.3747 36.3019V33.3436ZM19.4064 33.3611C19.4437 33.3797 19.5706 33.4507 19.6899 33.6165C19.8216 33.7996 19.8832 34.0144 19.8832 34.2103H16.9249C16.9249 35.126 17.5086 35.7197 18.0834 36.0071L19.4064 33.3611ZM19.8832 34.2103C19.8832 34.0491 19.923 33.5104 20.0259 32.4894L17.0825 32.1928C16.9851 33.1594 16.9249 33.8669 16.9249 34.2103H19.8832ZM20.0254 32.4943C20.0795 31.9751 20.1193 31.6492 20.1451 31.487L17.2234 31.0228C17.1837 31.2727 17.1369 31.671 17.083 32.188L20.0254 32.4943ZM19.6696 32.358C19.5857 32.433 19.51 32.4625 19.481 32.4713C19.4573 32.4785 19.4775 32.4682 19.5625 32.4682V29.5099C18.9747 29.5099 18.2692 29.6423 17.6989 30.1517L19.6696 32.358ZM19.5625 32.4682C19.6133 32.4682 19.632 32.4731 19.626 32.4717C19.6188 32.4701 19.5848 32.4615 19.5364 32.4343L20.9868 29.8559C20.5199 29.5933 20.0178 29.5099 19.5625 29.5099V32.4682ZM18.8444 31.5687L19.0033 32.1003L21.8377 31.2531L21.6788 30.7215L18.8444 31.5687ZM18.9816 31.3341L18.8805 31.7587L21.7583 32.4439L21.8594 32.0193L18.9816 31.3341ZM18.8902 31.7202C18.8529 31.8601 18.8287 32.0164 18.8287 32.1851H21.787C21.787 32.2999 21.7705 32.4004 21.7486 32.4825L18.8902 31.7202ZM18.8287 32.1851C18.8287 32.5045 18.9291 32.9848 19.3472 33.3611C19.7304 33.706 20.1619 33.7622 20.3864 33.7678L20.4604 30.8104C20.6079 30.8141 20.9816 30.8521 21.3262 31.1622C21.7058 31.5039 21.787 31.9332 21.787 32.1851H18.8287ZM21.8615 32.635L22.136 31.4939L19.2597 30.8021L18.9853 31.9432L21.8615 32.635ZM21.3972 32.4514C21.3585 32.4721 21.3335 32.4812 21.3294 32.4826C21.3246 32.4843 21.3322 32.4814 21.3555 32.4757L20.6585 29.6007C20.4597 29.6489 20.2262 29.7224 19.9985 29.8446L21.3972 32.4514ZM21.3759 32.4706C21.3666 32.473 21.3797 32.4682 21.423 32.4682V29.5099C21.1658 29.5099 20.9015 29.5379 20.638 29.6058L21.3759 32.4706ZM21.423 32.4682C21.4844 32.4682 21.4898 32.474 21.4563 32.4663C21.4233 32.4586 21.3164 32.4294 21.1873 32.3372L22.9067 29.9299C22.3999 29.5679 21.8194 29.5099 21.423 29.5099V32.4682ZM21.2068 32.3509C21.0562 32.247 20.9525 32.1147 20.8904 31.9921C20.833 31.8785 20.8216 31.7949 20.8196 31.7765L23.7598 31.4498C23.7055 30.9612 23.4923 30.3338 22.8872 29.9162L21.2068 32.3509ZM20.8241 31.813C20.8279 31.8406 20.8352 31.8991 20.8467 31.9968L23.7847 31.6512C23.7731 31.5525 23.763 31.4703 23.7553 31.4133L20.8241 31.813ZM20.8464 31.995C20.9337 32.7445 20.9983 33.3331 21.0409 33.7642C21.0622 33.98 21.0774 34.1509 21.0872 34.2798C21.0921 34.3441 21.0953 34.3943 21.0973 34.4319C21.0994 34.472 21.0994 34.487 21.0994 34.4847H24.0577C24.0577 34.1078 23.9543 33.1085 23.7849 31.653L20.8464 31.995ZM21.5055 33.4667C21.5327 33.4381 21.5636 33.4124 21.5965 33.3911C21.6291 33.37 21.658 33.3568 21.6792 33.349C21.72 33.3341 21.7201 33.3436 21.6541 33.3436V36.3019C22.3361 36.3019 23.0821 36.1031 23.6516 35.5028L21.5055 33.4667ZM24.2436 33.6672H22.7644C22.7644 34.0595 22.9203 34.4357 23.1977 34.7131L24.2436 33.6672ZM24.3736 32.7658L22.9386 33.1246L22.9414 33.1354L24.3736 32.7658ZM24.2176 32.7023L23.1717 31.6563C22.8613 31.9667 22.7048 32.399 22.7445 32.8362L24.2176 32.7023ZM23.1631 34.4414L24.1947 33.3813L24.1894 33.3762L23.1631 34.4414ZM23.1342 31.9713L22.0816 30.9322L22.0816 30.9322L23.1342 31.9713ZM25.4801 31.9887L26.5552 30.9729L26.5519 30.9694L25.4801 31.9887ZM25.4945 34.4154L24.4315 33.3869L24.428 33.3905L25.4945 34.4154ZM22.7644 33.1616V33.6672H25.7227V33.1616H22.7644ZM23.1977 34.7131C23.6179 35.1333 24.1186 35.1665 24.31 35.1665V32.2082C24.4399 32.2082 24.8962 32.228 25.2895 32.6212L23.1977 34.7131ZM24.31 35.1665C24.7144 35.1665 25.2753 34.9983 25.6244 34.4497L23.1286 32.8615C23.2669 32.6441 23.4669 32.4621 23.7116 32.3451C23.9439 32.2339 24.1594 32.2082 24.31 32.2082V35.1665ZM25.6244 34.4497C25.8809 34.0466 25.8758 33.6355 25.8758 33.5458H22.9175C22.9175 33.5144 22.9191 33.4415 22.937 33.3443C22.953 33.2574 22.9964 33.0692 23.1286 32.8615L25.6244 34.4497ZM25.8758 33.5458V33.1327H22.9175V33.5458H25.8758ZM25.8758 33.1327C25.8758 32.9805 25.876 32.6681 25.8058 32.3962L22.9414 33.1354C22.9366 33.117 22.9329 33.1007 22.9299 33.0871C22.927 33.0735 22.9247 33.0616 22.923 33.0516C22.9195 33.0322 22.9174 33.0174 22.9163 33.0087C22.9152 32.9997 22.9147 32.994 22.9145 32.9924C22.9144 32.9907 22.9145 32.9915 22.9147 32.9953C22.9152 33.0033 22.916 33.0187 22.9166 33.0429C22.9172 33.0667 22.9175 33.0965 22.9175 33.1327H25.8758ZM25.8086 32.4071C25.7682 32.2454 25.6716 31.9538 25.4195 31.6848C25.1244 31.3701 24.7155 31.1942 24.2869 31.1942V34.1525C23.9007 34.1525 23.5274 33.992 23.2613 33.7081C23.038 33.47 22.9636 33.2246 22.9386 33.1246L25.8086 32.4071ZM24.2869 31.1942C23.8632 31.1942 23.4651 31.3628 23.1717 31.6563L25.2635 33.7482C25.1486 33.8631 25.0002 33.9702 24.8183 34.046C24.6361 34.1219 24.4535 34.1525 24.2869 34.1525V31.1942ZM22.7445 32.8362C22.76 33.0071 22.7644 33.1101 22.7644 33.1616H25.7227C25.7227 32.9819 25.7098 32.7788 25.6907 32.5683L22.7445 32.8362ZM24.1894 33.3762C24.1868 33.3738 24.1877 33.3743 24.1896 33.3771C24.1914 33.3799 24.191 33.38 24.189 33.3748C24.1852 33.3649 24.1685 33.3156 24.1685 33.2049H21.2102C21.2102 34.0462 21.4783 34.8721 22.1369 35.5066L24.1894 33.3762ZM24.1685 33.2049C24.1685 33.0827 24.1859 33.0237 24.192 33.0069C24.1961 32.9955 24.1944 33.0028 24.1869 33.0105L22.0816 30.9322C21.4502 31.5717 21.2102 32.3912 21.2102 33.2049H24.1685ZM24.1868 33.0105C24.1908 33.0065 24.1913 33.0067 24.1883 33.0087C24.1854 33.0106 24.1835 33.0113 24.1848 33.0108C24.1862 33.0102 24.2203 32.9969 24.3071 32.9969V30.0386C23.4875 30.0386 22.6972 30.3086 22.0816 30.9322L24.1868 33.0105ZM24.3071 32.9969C24.3876 32.9969 24.4154 33.0096 24.4118 33.0082C24.4109 33.0078 24.4078 33.0063 24.4046 33.0041C24.4015 33.002 24.4027 33.0022 24.4082 33.008L26.5519 30.9694C25.9404 30.3263 25.144 30.0386 24.3071 30.0386V32.9969ZM24.4049 33.0045C24.4129 33.013 24.4174 33.0192 24.4231 33.035C24.4302 33.0546 24.4458 33.1091 24.4458 33.2165H27.4041C27.4041 32.4022 27.1545 31.6072 26.5552 30.9729L24.4049 33.0045ZM24.4458 33.2165C24.4458 33.328 24.4299 33.3804 24.4252 33.3934C24.4229 33.3999 24.4223 33.3997 24.4247 33.3958C24.4272 33.3918 24.43 33.3884 24.4315 33.3869L26.5575 35.4439C27.1673 34.8137 27.4041 34.0143 27.4041 33.2165H24.4458ZM24.428 33.3905C24.4309 33.3875 24.4371 33.3818 24.4458 33.3761C24.4545 33.3703 24.4607 33.3677 24.4617 33.3674C24.4638 33.3665 24.4275 33.3812 24.3302 33.3812V36.3395C25.1397 36.3395 25.9436 36.0827 26.561 35.4403L24.428 33.3905ZM24.3302 33.3812C24.2238 33.3812 24.177 33.366 24.1698 33.3634C24.1663 33.3621 24.1695 33.363 24.1766 33.3674C24.1838 33.3718 24.1902 33.377 24.1947 33.3814L22.1315 35.5015C22.7544 36.1077 23.5462 36.3395 24.3302 36.3395V33.3812ZM29.202 33.3407L27.723 33.3191C27.7229 33.3263 27.7229 33.3335 27.7229 33.3407H29.202ZM29.41 33.8752L30.8604 33.5851C30.7805 33.1856 30.5394 32.8368 30.194 32.6209L29.41 33.8752ZM29.1818 34.6032L30.2073 35.6692L30.2075 35.6689L29.1818 34.6032ZM28.0031 34.6176L28.9988 33.5238C28.9947 33.5201 28.9906 33.5164 28.9865 33.5128L28.0031 34.6176ZM27.7575 33.5516L26.2906 33.3615C26.2896 33.3694 26.2887 33.3773 26.2878 33.3852L27.7575 33.5516ZM27.7835 33.3292L26.3168 33.1378C26.3141 33.1589 26.3118 33.1799 26.3099 33.201L27.7835 33.3292ZM27.7777 32.8727L26.5028 33.6227C26.5135 33.6408 26.5245 33.6586 26.5359 33.6763L27.7777 32.8727ZM27.6015 32.8467L26.8677 31.5624C26.37 31.8468 26.0815 32.393 26.127 32.9643L27.6015 32.8467ZM27.6391 33.3176L29.0953 33.5771C29.1175 33.4527 29.1236 33.326 29.1135 33.2L27.6391 33.3176ZM27.7344 34.531L28.796 35.561C29.248 35.0951 29.3435 34.3889 29.0313 33.8197L27.7344 34.531ZM26.4344 34.6696L27.2957 33.4671C27.2907 33.4636 27.2857 33.46 27.2807 33.4565L26.4344 34.6696ZM26.1859 32.812H27.6651C27.6651 32.5049 27.5695 32.2054 27.3915 31.955L26.1859 32.812ZM26.1859 31.6131V30.134C25.69 30.134 25.2271 30.3825 24.9531 30.7958L26.1859 31.6131ZM27.0497 31.7662L28.0581 32.8484C28.3463 32.5799 28.5154 32.2075 28.5281 31.8138C28.5408 31.4202 28.3959 31.0377 28.1256 30.7512L27.0497 31.7662ZM27.0237 32.0522V33.5314C27.5515 33.5314 28.0394 33.2501 28.3038 32.7933L27.0237 32.0522ZM27.4108 31.6882L26.6986 30.3919L26.6925 30.3952L27.4108 31.6882ZM28.8178 31.7893L27.903 32.9517L27.9032 32.9518L28.8178 31.7893ZM29.2107 32.7485L30.6897 32.7701C30.6898 32.7629 30.6898 32.7557 30.6898 32.7485H29.2107ZM27.7229 33.3407C27.7229 33.5692 27.7456 33.8718 27.8581 34.1813L30.6383 33.1703C30.6662 33.247 30.6756 33.3033 30.6788 33.3264C30.6822 33.3506 30.6812 33.3571 30.6812 33.3407H27.7229ZM27.8581 34.1813C28.0027 34.5788 28.2713 34.9078 28.6261 35.1295L30.194 32.6209C30.3946 32.7463 30.5554 32.9423 30.6383 33.1703L27.8581 34.1813ZM27.9596 34.1653C27.948 34.1073 27.9426 34.0612 27.94 34.0362C27.9371 34.0088 27.9358 33.9871 27.9351 33.9739C27.9337 33.9482 27.9337 33.9317 27.9337 33.9301H30.892C30.892 33.9183 30.8952 33.759 30.8604 33.5851L27.9596 34.1653ZM27.9337 33.9301V33.9821H30.892V33.9301H27.9337ZM27.9337 33.9821C27.9337 33.9736 27.9349 33.9121 27.9688 33.8209C28.0051 33.7234 28.0678 33.6224 28.156 33.5375L30.2075 35.6689C30.7185 35.1771 30.892 34.546 30.892 33.9821H27.9337ZM28.1563 33.5372C28.2264 33.4698 28.3129 33.4153 28.4054 33.381C28.4943 33.348 28.5618 33.3436 28.5895 33.3436V36.3019C29.153 36.3019 29.7381 36.1205 30.2073 35.6692L28.1563 33.5372ZM28.5895 33.3436C28.609 33.3436 28.6683 33.3464 28.7507 33.3753C28.8369 33.4054 28.9239 33.4556 28.9988 33.5238L27.0074 35.7115C27.4791 36.1408 28.0527 36.3019 28.5895 36.3019V33.3436ZM28.9865 33.5128C29.0937 33.6081 29.1595 33.7187 29.1932 33.8098C29.2235 33.8919 29.2193 33.934 29.2193 33.907H26.261C26.261 34.4903 26.4284 35.1963 27.0196 35.7225L28.9865 33.5128ZM29.2193 33.907C29.2193 33.8117 29.2236 33.7509 29.2273 33.718L26.2878 33.3852C26.2684 33.5565 26.261 33.7326 26.261 33.907H29.2193ZM29.2244 33.7418C29.238 33.6372 29.2503 33.5357 29.2571 33.4573L26.3099 33.201C26.31 33.2005 26.3097 33.204 26.3088 33.2125C26.3079 33.2207 26.3067 33.2319 26.305 33.2463C26.3016 33.2753 26.2969 33.3134 26.2906 33.3615L29.2244 33.7418ZM29.2502 33.5205C29.255 33.4842 29.2595 33.4523 29.2636 33.4244L26.3381 32.9855C26.3307 33.0346 26.3236 33.0855 26.3168 33.1378L29.2502 33.5205ZM29.2636 33.4244C29.2861 33.2743 29.2887 33.1289 29.2887 33.0345H26.3304C26.3304 33.0544 26.33 33.0614 26.3301 33.0583C26.3302 33.0564 26.3306 33.0496 26.3316 33.0387C26.3325 33.0282 26.3344 33.0098 26.3381 32.9855L29.2636 33.4244ZM29.2887 33.0345C29.2887 32.8958 29.2832 32.4766 29.0196 32.0692L26.5359 33.6763C26.4117 33.4843 26.3674 33.3105 26.3502 33.2228C26.3317 33.1288 26.3304 33.0605 26.3304 33.0345H29.2887ZM29.0527 32.1227C28.7801 31.6593 28.2788 31.3444 27.694 31.3444V34.3027C27.4843 34.3027 27.2356 34.2534 26.9943 34.1119C26.7556 33.972 26.5988 33.7858 26.5028 33.6227L29.0527 32.1227ZM27.694 31.3444C27.4325 31.3444 27.1433 31.405 26.8677 31.5624L28.3354 34.131C28.1137 34.2576 27.8861 34.3027 27.694 34.3027V31.3444ZM26.127 32.9643L26.1646 33.4352L29.1135 33.2L29.076 32.7291L26.127 32.9643ZM26.1829 33.0581C26.1315 33.3464 26.1079 33.6398 26.1079 33.9358H29.0662C29.0662 33.7966 29.0773 33.6779 29.0953 33.5771L26.1829 33.0581ZM26.1079 33.9358C26.1079 34.3853 26.2119 34.8308 26.4375 35.2422L29.0313 33.8197C29.0437 33.8423 29.0536 33.8675 29.0597 33.8924C29.0657 33.9168 29.0662 33.9326 29.0662 33.9358H26.1079ZM26.6728 33.5009C26.7395 33.4323 26.817 33.386 26.8843 33.3613C26.9453 33.3389 26.9716 33.3436 26.9399 33.3436V36.3019C27.5717 36.3019 28.2608 36.1125 28.796 35.561L26.6728 33.5009ZM26.9399 33.3436C26.9729 33.3436 27.0279 33.3481 27.0964 33.3688C27.1663 33.39 27.2348 33.4235 27.2957 33.4671L25.5731 35.8722C25.9942 36.1737 26.4719 36.3019 26.9399 36.3019V33.3436ZM27.2807 33.4565C27.3568 33.5096 27.4644 33.6079 27.5491 33.7644C27.6355 33.9241 27.6651 34.0839 27.6651 34.2103H24.7068C24.7068 34.9173 25.0536 35.5099 25.588 35.8827L27.2807 33.4565ZM27.6651 34.2103V32.812H24.7068V34.2103H27.6651ZM27.3915 31.955C27.4351 32.0164 27.4632 32.0792 27.479 32.1339C27.4942 32.1863 27.4946 32.2192 27.4946 32.2227H24.5363C24.5363 32.7036 24.6572 33.2145 24.9803 33.669L27.3915 31.955ZM27.4946 32.2227C27.4946 32.2248 27.4943 32.2506 27.4826 32.2924C27.4705 32.3357 27.4495 32.384 27.4188 32.4304L24.9531 30.7958C24.6568 31.2428 24.5363 31.7397 24.5363 32.2227H27.4946ZM26.1859 33.0923H26.7002V30.134H26.1859V33.0923ZM26.7002 33.0923C26.5798 33.0923 26.4392 33.0687 26.2967 33.0063C26.1549 32.9442 26.0479 32.8598 25.9738 32.7813L28.1256 30.7512C27.7582 30.3617 27.2561 30.134 26.7002 30.134V33.0923ZM26.0414 30.6841C25.9486 30.7705 25.8233 30.8998 25.7125 31.071C25.6089 31.2312 25.4435 31.5424 25.4435 31.9627H28.4018C28.4018 32.3309 28.2575 32.5834 28.1962 32.6781C28.1278 32.7839 28.0662 32.8409 28.0581 32.8484L26.0414 30.6841ZM25.4435 31.9627C25.4435 32.2702 25.5385 32.7575 25.9672 33.1371C26.3616 33.4865 26.8032 33.5314 27.0237 33.5314V30.5731C27.1768 30.5731 27.5679 30.6031 27.9286 30.9226C28.3236 31.2724 28.4018 31.7149 28.4018 31.9627H25.4435ZM28.3038 32.7933C28.2331 32.9156 28.1488 32.9703 28.1292 32.9812L26.6925 30.3952C26.3262 30.5987 25.9839 30.8961 25.7436 31.3111L28.3038 32.7933ZM28.1231 32.9846C28.094 33.0006 28.0649 33.0112 28.04 33.0173C28.0157 33.0232 28.0029 33.0229 28.006 33.0229V30.0646C27.5628 30.0646 27.1149 30.1631 26.6986 30.3919L28.1231 32.9846ZM28.006 33.0229C28.0526 33.0229 28.0563 33.0288 28.0306 33.021C28.0014 33.0121 27.9536 32.9915 27.903 32.9517L29.7326 30.627C29.2025 30.2098 28.5835 30.0646 28.006 30.0646V33.0229ZM27.9032 32.9518C27.8684 32.9245 27.8344 32.8903 27.8048 32.8506C27.7753 32.8112 27.7558 32.7739 27.7437 32.7444C27.7203 32.6873 27.7315 32.677 27.7315 32.7485H30.6898C30.6898 32.0093 30.4527 31.1935 29.7324 30.6269L27.9032 32.9518ZM27.7317 32.7268L27.723 33.3191L30.681 33.3624L30.6897 32.7701L27.7317 32.7268ZM29.7345 32.9449V31.4658C28.9176 31.4658 28.2554 32.128 28.2554 32.9449H29.7345ZM30.0523 32.8149L31.4873 32.4562C31.3227 31.7977 30.7311 31.3358 30.0523 31.3358V32.8149ZM29.4052 32.8149L27.9941 33.2584C28.1878 33.8748 28.7591 34.2941 29.4052 34.2941V32.8149ZM29.3792 31.9569L28.5893 30.7063C28.2638 30.9119 28.0313 31.2364 27.9411 31.6107L29.3792 31.9569ZM29.8328 31.6391L30.7126 32.8281C30.9292 32.6678 31.0979 32.4514 31.2005 32.2023L29.8328 31.6391ZM30.0437 31.0151L31.4588 31.4454L31.4604 31.4401L30.0437 31.0151ZM30.0841 30.9024L29.7167 29.4696C29.2688 29.5845 28.9003 29.9022 28.7209 30.3284L30.0841 30.9024ZM31.1675 30.9053H32.6466C32.6466 30.209 32.161 29.607 31.4804 29.4597L31.1675 30.9053ZM31.1675 31.6131H29.6883C29.6883 32.43 30.3506 33.0923 31.1675 33.0923V31.6131ZM31.6673 31.6131L32.9023 30.7991C32.6286 30.3839 32.1646 30.134 31.6673 30.134V31.6131ZM31.6673 32.812V34.2912C32.1499 34.2912 32.6022 34.0557 32.879 33.6603L31.6673 32.812ZM31.2541 32.812V31.3329C30.4372 31.3329 29.775 31.9951 29.775 32.812H31.2541ZM31.6875 33.6181L33.1132 33.2241C32.936 32.5829 32.3527 32.1389 31.6875 32.1389V33.6181ZM31.4968 34.6119L32.454 35.7395L32.4552 35.7386L31.4968 34.6119ZM30.0148 34.5599L28.9969 35.6331C29.0007 35.6367 29.0045 35.6402 29.0083 35.6438L30.0148 34.5599ZM29.7345 34.4241H29.9137V31.4658H29.7345V34.4241ZM29.9137 34.4241C30.0776 34.4241 30.4581 34.4056 30.8368 34.1556C31.3231 33.8346 31.5373 33.3186 31.5373 32.8496H28.579C28.579 32.6776 28.6123 32.4551 28.7288 32.2245C28.8482 31.988 29.022 31.8088 29.2072 31.6866C29.5378 31.4684 29.846 31.4658 29.9137 31.4658V34.4241ZM31.5373 32.8496C31.5373 32.6509 31.4964 32.4925 31.4873 32.4562L28.6173 33.1737C28.6128 33.1556 28.6049 33.1222 28.5976 33.0783C28.5913 33.0405 28.579 32.9575 28.579 32.8496H31.5373ZM30.0523 31.3358H29.4052V34.2941H30.0523V31.3358ZM30.8163 32.3714C30.826 32.4023 30.8208 32.4047 30.8208 32.3642H27.8625C27.8625 32.6551 27.8996 32.9579 27.9941 33.2584L30.8163 32.3714ZM30.8208 32.3642C30.8208 32.316 30.8226 32.2865 30.8239 32.2725C30.8245 32.266 30.8248 32.2653 30.8241 32.2697C30.8234 32.274 30.8215 32.2856 30.8173 32.3031L27.9411 31.6107C27.878 31.8731 27.8625 32.1378 27.8625 32.3642H30.8208ZM30.1691 33.2075C30.3252 33.1089 30.5108 32.9775 30.7126 32.8281L28.9529 30.4501C28.7696 30.5858 28.6528 30.6662 28.5893 30.7063L30.1691 33.2075ZM31.2005 32.2023C31.2828 32.0023 31.37 31.7377 31.4588 31.4454L28.6285 30.5848C28.544 30.8626 28.4905 31.014 28.465 31.0759L31.2005 32.2023ZM31.4604 31.4401C31.457 31.4515 31.4527 31.4637 31.4473 31.4764L28.7209 30.3284C28.6847 30.4143 28.6534 30.5016 28.6269 30.5901L31.4604 31.4401ZM30.4515 32.3352C30.4569 32.3338 30.5011 32.3238 30.5983 32.3238V29.3655C30.3103 29.3655 30.0118 29.394 29.7167 29.4696L30.4515 32.3352ZM30.5983 32.3238C30.6865 32.3238 30.7713 32.333 30.8545 32.351L31.4804 29.4597C31.19 29.3968 30.8954 29.3655 30.5983 29.3655V32.3238ZM29.6883 30.9053V31.6131H32.6466V30.9053H29.6883ZM31.1675 33.0923H31.6673V30.134H31.1675V33.0923ZM30.4322 32.4271C30.4022 32.3816 30.3811 32.3334 30.3686 32.2888C30.3565 32.2455 30.3557 32.2172 30.3557 32.2111H33.314C33.314 31.7311 33.1932 31.2405 32.9023 30.7991L30.4322 32.4271ZM30.3557 32.2111C30.3557 32.1771 30.3605 32.1573 30.361 32.1554L33.2219 32.9082C33.2802 32.6867 33.314 32.4532 33.314 32.2111H30.3557ZM30.361 32.1554C30.3677 32.1302 30.3909 32.0561 30.4555 31.9638L32.879 33.6603C33.0515 33.4139 33.1575 33.153 33.2219 32.9082L30.361 32.1554ZM31.6673 31.3329H31.2541V34.2912H31.6673V31.3329ZM29.775 32.812V33.2483H32.7333V32.812H29.775ZM29.775 33.2483C29.775 33.5414 29.8307 34.0367 30.1966 34.4743C30.6048 34.9627 31.1556 35.0972 31.5633 35.0972V32.1389C31.7648 32.1389 32.161 32.2118 32.4663 32.5769C32.7291 32.8913 32.7333 33.2017 32.7333 33.2483H29.775ZM31.5633 35.0972H31.6875V32.1389H31.5633V35.0972ZM30.2618 34.012C30.2657 34.0262 30.2683 34.037 30.27 34.0446C30.2717 34.0521 30.2722 34.0557 30.2722 34.0556C30.2722 34.0555 30.2714 34.0507 30.2707 34.0417C30.2699 34.0328 30.269 34.0185 30.269 33.9994H33.2273C33.2273 33.7166 33.1759 33.451 33.1132 33.2241L30.2618 34.012ZM30.269 33.9994C30.269 33.9781 30.2724 33.8988 30.3169 33.7903C30.3643 33.6747 30.4418 33.5674 30.5385 33.4852L32.4552 35.7386C33.0218 35.2566 33.2273 34.5999 33.2273 33.9994H30.269ZM30.5396 33.4842C30.6388 33.4 30.7306 33.3636 30.7782 33.3497C30.8214 33.3372 30.8256 33.3436 30.7717 33.3436V36.3019C31.2819 36.3019 31.9212 36.1918 32.454 35.7395L30.5396 33.4842ZM30.7717 33.3436C30.7495 33.3436 30.7754 33.3405 30.8309 33.3598C30.8909 33.3806 30.9599 33.419 31.0213 33.4759L29.0083 35.6438C29.5294 36.1277 30.1713 36.3019 30.7717 36.3019V33.3436ZM31.0327 33.4866C31.1192 33.5687 31.171 33.6605 31.1966 33.7319C31.2196 33.7957 31.2137 33.8203 31.2137 33.7798H28.2554C28.2554 34.3883 28.4273 35.0929 28.9969 35.6331L31.0327 33.4866ZM31.2137 33.7798V32.9449H28.2554V33.7798H31.2137ZM35.0252 33.3407L33.5462 33.318C33.5461 33.3255 33.546 33.3331 33.546 33.3407L35.0252 33.3407ZM35.2332 33.8752L36.6836 33.5851C36.6037 33.1856 36.3626 32.8368 36.0172 32.6209L35.2332 33.8752ZM35.005 34.6032L36.0305 35.6692L36.0307 35.6689L35.005 34.6032ZM33.8263 34.6176L34.822 33.5238C34.8179 33.5201 34.8138 33.5164 34.8097 33.5128L33.8263 34.6176ZM33.5807 33.5516L32.1138 33.3615C32.1128 33.3694 32.1118 33.3773 32.111 33.3852L33.5807 33.5516ZM33.6067 33.3292L32.14 33.1378C32.1372 33.1589 32.135 33.1799 32.1331 33.201L33.6067 33.3292ZM33.6009 32.8727L32.326 33.6227C32.3367 33.6408 32.3477 33.6586 32.3591 33.6763L33.6009 32.8727ZM33.4247 32.8467L32.6908 31.5624C32.1932 31.8468 31.9047 32.393 31.9502 32.9643L33.4247 32.8467ZM33.4623 33.3176L34.9185 33.5771C34.9406 33.4527 34.9468 33.326 34.9367 33.2L33.4623 33.3176ZM33.5576 34.531L34.6192 35.561C35.0712 35.0951 35.1667 34.3889 34.8545 33.8197L33.5576 34.531ZM32.2576 34.6696L33.1188 33.4671C33.1139 33.4636 33.1089 33.46 33.1039 33.4565L32.2576 34.6696ZM32.0091 30.8389L31.2638 29.5612C30.8094 29.8263 30.53 30.3128 30.53 30.8389H32.0091ZM32.3413 30.706L31.9628 29.2761L31.9576 29.2775L32.3413 30.706ZM33.286 30.784L34.0687 29.5288C34.0615 29.5244 34.0543 29.52 34.0471 29.5156L33.286 30.784ZM33.5316 31.4976L33.6165 32.9743C34.3991 32.9293 35.0108 32.2815 35.0108 31.4976H33.5316ZM33.0491 31.642L32.324 30.3528C32.3184 30.3559 32.3128 30.3591 32.3073 30.3623L33.0491 31.642ZM32.8729 31.9107L31.7674 32.8934C31.7866 32.915 31.8065 32.9361 31.827 32.9566L32.8729 31.9107ZM32.9278 31.9396L32.6632 33.3949C33.1804 33.4889 33.7087 33.3013 34.0509 32.9022L32.9278 31.9396ZM33.2687 31.7027L32.686 30.3431L32.6796 30.3459L33.2687 31.7027ZM34.3405 31.6998L33.8139 33.082L33.8183 33.0837L34.3405 31.6998ZM34.823 32.0522L36.0177 31.1801L36.0098 31.1694L34.823 32.0522ZM35.0339 32.7774L36.5128 32.8001C36.513 32.7925 36.513 32.785 36.513 32.7774L35.0339 32.7774ZM33.546 33.3407C33.546 33.5692 33.5688 33.8718 33.6813 34.1813L36.4615 33.1703C36.4894 33.247 36.4988 33.3033 36.502 33.3264C36.5054 33.3506 36.5043 33.3571 36.5043 33.3407H33.546ZM33.6813 34.1813C33.8259 34.5788 34.0945 34.9078 34.4493 35.1295L36.0172 32.6209C36.2178 32.7463 36.3786 32.9423 36.4615 33.1703L33.6813 34.1813ZM33.7828 34.1653C33.7712 34.1073 33.7657 34.0612 33.7632 34.0362C33.7603 34.0088 33.759 33.9871 33.7583 33.9739C33.7569 33.9482 33.7569 33.9317 33.7569 33.9301H36.7152C36.7152 33.9183 36.7184 33.759 36.6836 33.5851L33.7828 34.1653ZM33.7569 33.9301V33.9821H36.7152V33.9301H33.7569ZM33.7569 33.9821C33.7569 33.9736 33.7581 33.9121 33.792 33.8209C33.8283 33.7234 33.891 33.6224 33.9792 33.5375L36.0307 35.6689C36.5417 35.1771 36.7152 34.546 36.7152 33.9821H33.7569ZM33.9795 33.5372C34.0496 33.4698 34.1361 33.4153 34.2286 33.381C34.3175 33.348 34.385 33.3436 34.4127 33.3436V36.3019C34.9762 36.3019 35.5613 36.1205 36.0305 35.6692L33.9795 33.5372ZM34.4127 33.3436C34.4322 33.3436 34.4915 33.3464 34.5739 33.3753C34.6601 33.4054 34.7471 33.4556 34.822 33.5238L32.8306 35.7115C33.3022 36.1408 33.8759 36.3019 34.4127 36.3019V33.3436ZM34.8097 33.5128C34.9168 33.6081 34.9827 33.7187 35.0164 33.8098C35.0467 33.8919 35.0425 33.934 35.0425 33.907H32.0842C32.0842 34.4903 32.2516 35.1963 32.8428 35.7225L34.8097 33.5128ZM35.0425 33.907C35.0425 33.8117 35.0468 33.7509 35.0505 33.718L32.111 33.3852C32.0916 33.5565 32.0842 33.7326 32.0842 33.907H35.0425ZM35.0476 33.7418C35.0611 33.6372 35.0735 33.5357 35.0803 33.4573L32.1331 33.201C32.1332 33.2005 32.1329 33.204 32.132 33.2125C32.1311 33.2207 32.1299 33.2319 32.1282 33.2463C32.1248 33.2753 32.1201 33.3134 32.1138 33.3615L35.0476 33.7418ZM35.0734 33.5205C35.0782 33.4842 35.0826 33.4523 35.0868 33.4244L32.1613 32.9855C32.1539 33.0346 32.1468 33.0855 32.14 33.1378L35.0734 33.5205ZM35.0868 33.4244C35.1093 33.2743 35.1119 33.1289 35.1119 33.0345H32.1536C32.1536 33.0544 32.1532 33.0614 32.1533 33.0583C32.1534 33.0564 32.1538 33.0496 32.1548 33.0387C32.1557 33.0282 32.1576 33.0098 32.1613 32.9855L35.0868 33.4244ZM35.1119 33.0345C35.1119 32.8958 35.1064 32.4766 34.8428 32.0692L32.3591 33.6763C32.2349 33.4843 32.1906 33.3105 32.1734 33.2228C32.1549 33.1288 32.1536 33.0605 32.1536 33.0345H35.1119ZM34.8759 32.1227C34.6033 31.6593 34.1019 31.3444 33.5172 31.3444V34.3027C33.3075 34.3027 33.0588 34.2534 32.8175 34.1119C32.5788 33.972 32.422 33.7858 32.326 33.6227L34.8759 32.1227ZM33.5172 31.3444C33.2557 31.3444 32.9665 31.405 32.6908 31.5624L34.1586 34.131C33.9369 34.2576 33.7093 34.3027 33.5172 34.3027V31.3444ZM31.9502 32.9643L31.9878 33.4352L34.9367 33.2L34.8992 32.7291L31.9502 32.9643ZM32.0061 33.0581C31.9547 33.3464 31.9311 33.6398 31.9311 33.9358H34.8894C34.8894 33.7966 34.9005 33.6779 34.9185 33.5771L32.0061 33.0581ZM31.9311 33.9358C31.9311 34.3853 32.0351 34.8308 32.2607 35.2422L34.8545 33.8197C34.8669 33.8423 34.8768 33.8675 34.8829 33.8924C34.8889 33.9168 34.8894 33.9326 34.8894 33.9358H31.9311ZM32.496 33.5009C32.5627 33.4323 32.6402 33.386 32.7075 33.3613C32.7685 33.3389 32.7948 33.3436 32.7631 33.3436V36.3019C33.3949 36.3019 34.084 36.1125 34.6192 35.561L32.496 33.5009ZM32.7631 33.3436C32.7961 33.3436 32.8511 33.3481 32.9196 33.3688C32.9895 33.39 33.058 33.4235 33.1188 33.4671L31.3963 35.8722C31.8173 36.1737 32.2951 36.3019 32.7631 36.3019V33.3436ZM33.1039 33.4565C33.18 33.5096 33.2876 33.6079 33.3723 33.7644C33.4586 33.9241 33.4883 34.0839 33.4883 34.2103H30.53C30.53 34.9173 30.8768 35.5099 31.4112 35.8827L33.1039 33.4565ZM33.4883 34.2103V30.8389H30.53V34.2103H33.4883ZM32.7544 32.1165C32.7311 32.1301 32.7155 32.1367 32.7109 32.1386C32.7062 32.1404 32.7103 32.1385 32.7251 32.1345L31.9576 29.2775C31.7318 29.3381 31.4935 29.4272 31.2638 29.5612L32.7544 32.1165ZM32.7199 32.1359C32.7297 32.1333 32.7345 32.1331 32.7371 32.1331V29.1748C32.474 29.1748 32.2149 29.2094 31.9628 29.2761L32.7199 32.1359ZM32.7371 32.1331C32.7728 32.1331 32.672 32.1405 32.525 32.0523L34.0471 29.5156C33.6112 29.2541 33.1444 29.1748 32.7371 29.1748V32.1331ZM32.5034 32.0391C32.4057 31.9782 32.2773 31.8677 32.1792 31.6923C32.0807 31.5161 32.0525 31.3454 32.0525 31.2231H35.0108C35.0108 30.5145 34.6593 29.8971 34.0687 29.5288L32.5034 32.0391ZM32.0525 31.2231V31.4976H35.0108V31.2231H32.0525ZM33.4467 30.0208C33.0423 30.0441 32.6637 30.1617 32.324 30.3528L33.7743 32.9312C33.7611 32.9386 33.7393 32.949 33.7096 32.9579C33.6796 32.9669 33.6478 32.9725 33.6165 32.9743L33.4467 30.0208ZM32.3073 30.3623C32.181 30.4356 31.9957 30.5556 31.8247 30.7365C31.6639 30.9066 31.3707 31.2871 31.3707 31.8529H34.329C34.329 32.3552 34.0689 32.6687 33.9746 32.7686C33.9172 32.8292 33.868 32.8682 33.8411 32.888C33.813 32.9088 33.7945 32.9196 33.791 32.9217L32.3073 30.3623ZM31.3707 31.8529C31.3707 32.2718 31.5359 32.633 31.7674 32.8934L33.9784 30.928C34.1791 31.1537 34.329 31.4764 34.329 31.8529H31.3707ZM31.827 32.9566C32.0524 33.182 32.3423 33.3365 32.6632 33.3949L33.1924 30.4843C33.471 30.5349 33.7242 30.6701 33.9188 30.8648L31.827 32.9566ZM34.0509 32.9022C33.9506 33.0192 33.8606 33.0582 33.8578 33.0594L32.6796 30.3459C32.3841 30.4742 32.0668 30.6712 31.8048 30.9769L34.0509 32.9022ZM33.8514 33.0622C33.7753 33.0948 33.7435 33.0865 33.7945 33.0865V30.1282C33.441 30.1282 33.0588 30.1834 32.686 30.3431L33.8514 33.0622ZM33.7945 33.0865C33.8206 33.0865 33.8336 33.0885 33.8357 33.0888C33.8375 33.0891 33.8293 33.0879 33.8139 33.082L34.8671 30.3175C34.5114 30.182 34.147 30.1282 33.7945 30.1282V33.0865ZM33.8183 33.0837C33.8074 33.0796 33.7787 33.0671 33.7417 33.0401C33.7038 33.0123 33.667 32.9766 33.6362 32.9351L36.0098 31.1694C35.7052 30.76 35.302 30.4817 34.8627 30.3159L33.8183 33.0837ZM33.6283 32.9244C33.5918 32.8743 33.571 32.8259 33.5608 32.791C33.5514 32.7587 33.5547 32.7505 33.5547 32.7774H36.513C36.513 32.2433 36.3806 31.6773 36.0177 31.1801L33.6283 32.9244ZM33.5549 32.7546L33.5462 33.318L36.5042 33.3635L36.5128 32.8001L33.5549 32.7546Z" fill="#DF8D12"/>
<path d="M25.0076 23.4092C25.389 23.4092 25.7285 23.3737 26.0259 23.3026C26.3233 23.2314 26.4721 23.1247 26.4721 22.9825C26.4721 22.892 26.443 22.8176 26.3848 22.7594C25.9904 22.9017 25.5604 22.9728 25.0948 22.9728C24.4612 22.9728 23.9278 22.7562 23.4946 22.323C23.0614 21.8833 22.8448 21.2529 22.8448 20.4317C22.8448 19.8886 22.9579 19.3617 23.1842 18.8509C23.9989 18.7539 24.6325 18.5922 25.0851 18.3659C25.7188 18.0426 26.2619 17.5221 26.7145 16.8044H28.4506C29.0066 16.8044 29.4172 16.9079 29.6823 17.1148C29.9927 17.367 30.1479 17.8099 30.1479 18.4435V28.7435C29.8181 29.0474 29.4334 29.2802 28.9937 29.4418C28.5605 29.597 28.1144 29.6746 27.6553 29.6746C26.8988 29.6746 26.2845 29.4935 25.8125 29.1315C25.2759 28.7241 25.0076 28.1293 25.0076 27.3469V23.4092Z" fill="#FFB423"/>
<path d="M25.0076 23.4092V21.9301C24.1906 21.9301 23.5284 22.5923 23.5284 23.4092H25.0076ZM26.3848 22.7594L27.4307 21.7135C27.0253 21.3081 26.4222 21.1735 25.8829 21.368L26.3848 22.7594ZM23.4946 22.323L22.4409 23.3612L22.4486 23.3689L23.4946 22.323ZM23.1842 18.8509L23.0094 17.3821C22.4909 17.4438 22.0433 17.7743 21.8318 18.2517L23.1842 18.8509ZM25.0851 18.3659L25.7467 19.689L25.7574 19.6835L25.0851 18.3659ZM26.7145 16.8044V15.3253C26.2067 15.3253 25.7343 15.5858 25.4634 16.0154L26.7145 16.8044ZM29.6823 17.1148L30.6151 15.9668C30.6076 15.9607 30.6 15.9547 30.5924 15.9488L29.6823 17.1148ZM30.1479 28.7435L31.1502 29.8312C31.4541 29.5512 31.627 29.1568 31.627 28.7435H30.1479ZM28.9937 29.4418L29.4925 30.8344L29.5041 30.8301L28.9937 29.4418ZM25.8125 29.1315L26.7129 27.9578L26.7068 27.9533L25.8125 29.1315ZM25.0076 24.8884C25.4777 24.8884 25.9361 24.8449 26.3699 24.7411L25.6819 21.864C25.5209 21.9025 25.3004 21.9301 25.0076 21.9301V24.8884ZM26.3699 24.7411C26.5968 24.6869 26.9223 24.5866 27.2227 24.3711C27.5614 24.1281 27.9512 23.6637 27.9512 22.9825H24.9929C24.9929 22.7456 25.0587 22.5175 25.1744 22.3239C25.2833 22.1416 25.4124 22.029 25.4983 21.9673C25.65 21.8585 25.7525 21.8471 25.6819 21.864L26.3699 24.7411ZM27.9512 22.9825C27.9512 22.5428 27.7953 22.0781 27.4307 21.7135L25.3389 23.8053C25.2282 23.6947 25.1349 23.5566 25.0728 23.3978C25.0118 23.2419 24.9929 23.0972 24.9929 22.9825H27.9512ZM25.8829 21.368C25.6662 21.4462 25.4081 21.4936 25.0948 21.4936V24.4519C25.7127 24.4519 26.3145 24.3572 26.8866 24.1508L25.8829 21.368ZM25.0948 21.4936C24.8385 21.4936 24.6858 21.4224 24.5405 21.2771L22.4486 23.3689C23.1697 24.0899 24.0839 24.4519 25.0948 24.4519V21.4936ZM24.5482 21.2848C24.4683 21.2037 24.3239 20.9968 24.3239 20.4317H21.3656C21.3656 21.509 21.6544 22.5629 22.4409 23.3611L24.5482 21.2848ZM24.3239 20.4317C24.3239 20.101 24.3914 19.7777 24.5366 19.45L21.8318 18.2517C21.5244 18.9456 21.3656 19.6763 21.3656 20.4317H24.3239ZM23.3591 20.3196C24.2514 20.2134 25.0763 20.0241 25.7466 19.6889L24.4237 17.0429C24.1888 17.1604 23.7464 17.2943 23.0094 17.3821L23.3591 20.3196ZM25.7574 19.6835C26.6701 19.2178 27.3986 18.4926 27.9657 17.5934L25.4634 16.0154C25.1252 16.5517 24.7675 16.8674 24.4129 17.0484L25.7574 19.6835ZM26.7145 18.2836H28.4506V15.3253H26.7145V18.2836ZM28.4506 18.2836C28.6424 18.2836 28.7572 18.302 28.8142 18.3164C28.8699 18.3304 28.8382 18.3323 28.7722 18.2808L30.5924 15.9488C29.9456 15.4439 29.1387 15.3253 28.4506 15.3253V18.2836ZM28.7496 18.2628C28.7076 18.2287 28.677 18.1927 28.657 18.1628C28.6378 18.1341 28.6331 18.1183 28.6355 18.1252C28.6382 18.1328 28.6469 18.1606 28.6547 18.2151C28.6626 18.2695 28.6687 18.3445 28.6687 18.4435H31.627C31.627 17.6246 31.4321 16.6306 30.6151 15.9668L28.7496 18.2628ZM28.6687 18.4435V28.7435H31.627V18.4435H28.6687ZM29.1455 27.6558C28.9647 27.8223 28.7491 27.9558 28.4833 28.0535L29.5041 30.8301C30.1176 30.6045 30.6715 30.2724 31.1502 29.8312L29.1455 27.6558ZM28.4949 28.0493C28.2214 28.1473 27.9439 28.1954 27.6553 28.1954V31.1537C28.2848 31.1537 28.8996 31.0467 29.4925 30.8343L28.4949 28.0493ZM27.6553 28.1954C27.1348 28.1954 26.8635 28.0734 26.7128 27.9578L24.9122 30.3051C25.7056 30.9136 26.6628 31.1537 27.6553 31.1537V28.1954ZM26.7068 27.9533C26.6011 27.873 26.4867 27.7512 26.4867 27.3469H23.5284C23.5284 28.5073 23.9507 29.5752 24.9183 30.3096L26.7068 27.9533ZM26.4867 27.3469V23.4092H23.5284V27.3469H26.4867Z" fill="#DF8D12"/>
</svg>
