<svg width="55" height="55" viewBox="0 0 55 55" fill="none" xmlns="http://www.w3.org/2000/svg">
<path d="M44.5558 32.0133C41.9829 41.6157 32.3561 47.3794 23.0537 44.8868C13.7514 42.3943 8.2962 32.5894 10.8692 22.987C13.4421 13.3846 23.0689 7.62095 32.3712 10.1135C41.6735 12.606 47.1288 22.4109 44.5558 32.0133Z" fill="#607898"/>
<path fill-rule="evenodd" clip-rule="evenodd" d="M45.6425 32.3044C42.9175 42.4742 32.6973 48.6354 22.7626 45.9734C12.8278 43.3114 7.0575 32.8655 9.78248 22.6957C12.5075 12.526 22.7277 6.36474 32.6624 9.02674C42.5971 11.6887 48.3675 22.1346 45.6425 32.3044ZM23.0537 44.8867C32.356 47.3793 41.9829 41.6156 44.5558 32.0132C47.1288 22.4108 41.6735 12.606 32.3712 10.1134C23.0689 7.62086 13.4421 13.3845 10.8691 22.9869C8.29619 32.5893 13.7514 42.3942 23.0537 44.8867Z" fill="#003F5F"/>
<path d="M43.4308 30.8883C40.8579 40.4907 31.2311 46.2544 21.9287 43.7618C12.6264 41.2693 7.1712 31.4644 9.74415 21.862C12.3171 12.2596 21.9439 6.49595 31.2462 8.9885C40.5485 11.481 46.0038 21.2859 43.4308 30.8883Z" fill="#88A1B5"/>
<path fill-rule="evenodd" clip-rule="evenodd" d="M44.5175 31.1794C41.7925 41.3492 31.5723 47.5104 21.6376 44.8484C11.7029 42.1864 5.93253 31.7405 8.65751 21.5707C11.3825 11.401 21.6027 5.23974 31.5374 7.90174C41.4721 10.5637 47.2425 21.0096 44.5175 31.1794ZM21.9288 43.7617C31.2311 46.2543 40.8579 40.4906 43.4308 30.8882C46.0038 21.2858 40.5486 11.481 31.2462 8.98841C21.9439 6.49586 12.3171 12.2595 9.74417 21.8619C7.17122 31.4643 12.6264 41.2692 21.9288 43.7617Z" fill="#003F5F"/>
<path d="M40.1708 30.0146C38.0803 37.8165 30.3041 42.5117 22.8023 40.5016C15.3004 38.4915 10.9136 30.5372 13.0042 22.7353C15.0947 14.9334 22.8709 10.2382 30.3727 12.2483C37.8746 14.2584 42.2614 22.2127 40.1708 30.0146Z" fill="#D4E1EB"/>
<path fill-rule="evenodd" clip-rule="evenodd" d="M41.2575 30.3059C39.017 38.6674 30.6529 43.77 22.5111 41.5884C14.3693 39.4068 9.67703 30.8058 11.9175 22.4443C14.158 14.0828 22.5221 8.98018 30.6639 11.1618C38.8057 13.3434 43.498 21.9444 41.2575 30.3059ZM22.8023 40.5018C30.3041 42.5119 38.0803 37.8167 40.1708 30.0147C42.2614 22.2128 37.8746 14.2586 30.3727 12.2484C22.8709 10.2383 15.0947 14.9335 13.0042 22.7355C10.9136 30.5374 15.3004 38.4916 22.8023 40.5018Z" fill="#607898"/>
<path fill-rule="evenodd" clip-rule="evenodd" d="M37.0297 16.3588C35.4843 14.9815 33.6151 13.9406 31.4977 13.3733C23.9959 11.3632 16.2197 16.0584 14.1292 23.8603C12.7802 28.8949 14.1283 33.9929 17.2703 37.5161C13.3401 34.0136 11.5037 28.3352 13.0042 22.7353C15.0947 14.9334 22.8709 10.2382 30.3727 12.2483C33.0337 12.9613 35.3027 14.4222 37.0297 16.3588Z" fill="#EBF5FC"/>
<path fill-rule="evenodd" clip-rule="evenodd" d="M11.1406 20.9958C10.8496 20.887 10.7018 20.563 10.8106 20.2719C12.7521 15.0761 17.1002 11.0549 22.5004 9.5645C22.7998 9.48185 23.1096 9.65761 23.1922 9.95707C23.2749 10.2565 23.0991 10.5663 22.7997 10.649C17.7498 12.0427 13.6807 15.8052 11.8644 20.6657C11.7556 20.9567 11.4316 21.1045 11.1406 20.9958Z" fill="#ACC7DC"/>
<path fill-rule="evenodd" clip-rule="evenodd" d="M40.6026 34.8995C40.8653 35.0654 40.9437 35.4128 40.7778 35.6755C39.462 37.7585 37.7173 39.5432 35.6677 40.906C35.409 41.078 35.0599 41.0077 34.8879 40.749C34.7159 40.4903 34.7862 40.1412 35.0449 39.9692C36.9628 38.694 38.5955 37.0236 39.8267 35.0747C39.9926 34.812 40.34 34.7336 40.6026 34.8995Z" fill="#ACC7DC"/>
<path fill-rule="evenodd" clip-rule="evenodd" d="M17.337 13.3431C17.3369 13.3432 17.3371 13.3431 17.337 13.3431L17.025 12.8751C17.337 13.3431 17.3369 13.3432 17.337 13.3431L17.335 13.3445L17.3236 13.3523C17.3129 13.3596 17.2963 13.371 17.2743 13.3866C17.2301 13.4177 17.1644 13.4649 17.0812 13.5273C16.9149 13.652 16.68 13.8365 16.411 14.0719C15.87 14.5453 15.2059 15.2116 14.6805 15.9996C14.5082 16.2581 14.159 16.328 13.9005 16.1556C13.642 15.9833 13.5721 15.6341 13.7445 15.3756C14.3441 14.4761 15.0863 13.7362 15.6702 13.2252C15.9637 12.9684 16.2211 12.7661 16.4062 12.6273C16.4989 12.5578 16.5738 12.5039 16.6263 12.4669C16.6526 12.4484 16.6733 12.4341 16.688 12.424L16.7052 12.4123L16.7103 12.4088L16.712 12.4078L16.7125 12.4074C16.7126 12.4073 16.713 12.4071 17.025 12.8751L16.7125 12.4074C16.971 12.235 17.3207 12.3046 17.493 12.5631C17.6653 12.8215 17.5952 13.1707 17.337 13.3431Z" fill="#CEEAFF"/>
<path fill-rule="evenodd" clip-rule="evenodd" d="M19.587 16.1556C19.5869 16.1557 19.5871 16.1556 19.587 16.1556L19.275 15.6876C19.587 16.1556 19.5869 16.1557 19.587 16.1556L19.585 16.157L19.5736 16.1648C19.5629 16.1721 19.5463 16.1835 19.5243 16.1991C19.4801 16.2302 19.4144 16.2774 19.3312 16.3398C19.1649 16.4645 18.93 16.649 18.661 16.8844C18.12 17.3578 17.4559 18.0241 16.9305 18.8121C16.7582 19.0706 16.409 19.1405 16.1505 18.9681C15.892 18.7958 15.8221 18.4466 15.9945 18.1881C16.5941 17.2886 17.3363 16.5487 17.9202 16.0377C18.2137 15.7809 18.4711 15.5786 18.6562 15.4398C18.7489 15.3703 18.8238 15.3164 18.8763 15.2794C18.9026 15.2609 18.9233 15.2466 18.938 15.2365L18.9552 15.2248L18.9603 15.2213L18.962 15.2203L18.9625 15.2199C18.9626 15.2198 18.963 15.2196 19.275 15.6876L18.9625 15.2199C19.221 15.0475 19.5707 15.1171 19.743 15.3756C19.9153 15.634 19.8452 15.9832 19.587 16.1556Z" fill="white"/>
<path d="M19.0412 34.8199C18.8543 34.8199 18.6983 34.8054 18.5731 34.7765C18.3998 34.7399 18.2727 34.6831 18.1918 34.6061C18.0108 34.2228 17.8557 33.8029 17.7267 33.3465C17.5476 32.7148 17.4224 32.0628 17.3511 31.3907C17.4378 31.2635 17.5562 31.1653 17.7065 31.096C17.8567 31.0247 18.0242 30.9891 18.2091 30.9891C18.4865 30.9891 18.7041 31.0421 18.862 31.148C19.0219 31.2539 19.1018 31.4051 19.1018 31.6016C19.0883 31.7479 19.0758 31.9627 19.0643 32.2458C19.0546 32.5289 19.0498 32.7851 19.0498 33.0143C19.0498 33.0778 19.0556 33.1279 19.0672 33.1645C19.0806 33.1992 19.1076 33.2165 19.1481 33.2165C19.1635 33.2165 19.1827 33.2136 19.2058 33.2078C19.2039 33.1905 19.2029 33.1616 19.2029 33.1212V33.02C19.2029 32.7408 19.2126 32.4191 19.2318 32.0551C19.2511 31.6892 19.2742 31.4167 19.3012 31.2375C19.4764 31.1297 19.6825 31.0758 19.9194 31.0758C20.1563 31.0758 20.347 31.1085 20.4914 31.174C20.6648 31.2549 20.7562 31.3733 20.7659 31.5293C20.7562 31.7181 20.7379 31.9039 20.711 32.0869C20.6859 32.2699 20.6551 32.4808 20.6185 32.7196C20.5819 32.9584 20.5588 33.1163 20.5492 33.1934C20.5646 33.2011 20.5848 33.2049 20.6099 33.2049C20.6349 33.2049 20.658 33.1953 20.6792 33.176C20.7004 33.1568 20.7177 33.1106 20.7312 33.0374C20.7909 32.7292 20.84 32.4047 20.8785 32.0638C20.9171 31.721 20.9421 31.4224 20.9537 31.1682C21.1308 31.0488 21.3754 30.9891 21.6875 30.9891C21.9398 30.9891 22.141 31.0565 22.2912 31.1913C22.4415 31.3242 22.5166 31.5033 22.5166 31.7287C22.5166 31.8789 22.4453 32.2728 22.3028 32.9103C22.2296 33.2454 22.1593 33.5323 22.0919 33.7712C22.0245 34.0081 21.9696 34.1747 21.9272 34.271C21.8386 34.4655 21.7057 34.6061 21.5286 34.6927C21.3533 34.7775 21.1289 34.8199 20.8554 34.8199C20.7456 34.8199 20.6185 34.8035 20.4741 34.7708C20.3316 34.738 20.2227 34.7014 20.1476 34.661C20.1091 34.6013 20.0658 34.5107 20.0176 34.3894C19.9695 34.2681 19.9396 34.1766 19.9281 34.115C19.853 34.1169 19.8154 34.1573 19.8154 34.2363C19.8154 34.2979 19.8453 34.4116 19.905 34.5772C19.7027 34.739 19.4148 34.8199 19.0412 34.8199ZM24.2191 34.8603C23.6857 34.8603 23.2648 34.712 22.9567 34.4154C22.6408 34.1169 22.4829 33.7086 22.4829 33.1905C22.4829 32.6705 22.6456 32.2583 22.9711 31.954C23.2716 31.6709 23.6519 31.5293 24.1123 31.5293C24.5726 31.5293 24.9414 31.6564 25.2187 31.9107C25.498 32.163 25.6376 32.474 25.6376 32.8438C25.6376 33.1732 25.523 33.4216 25.2938 33.5892C25.082 33.7471 24.7931 33.8261 24.4272 33.8261C24.1537 33.8261 23.9225 33.7692 23.7338 33.6556C23.7184 33.6672 23.7107 33.6884 23.7107 33.7192C23.7107 33.7769 23.7868 33.8299 23.9389 33.8781C24.0911 33.9301 24.2634 33.9561 24.456 33.9561C24.6506 33.9561 24.8268 33.932 24.9847 33.8838C25.1446 33.8338 25.2727 33.775 25.369 33.7076C25.4152 33.7481 25.4518 33.8232 25.4787 33.933C25.5076 34.0408 25.5221 34.14 25.5221 34.2305C25.5221 34.3191 25.5134 34.3981 25.4961 34.4674C25.3458 34.5945 25.1918 34.685 25.0338 34.739C24.8104 34.8199 24.5389 34.8603 24.2191 34.8603ZM24.1816 32.9045C24.2779 32.9045 24.326 32.8679 24.326 32.7947C24.326 32.7254 24.275 32.6907 24.1729 32.6907C24.0708 32.6907 24.0121 32.7456 23.9967 32.8554C24.0506 32.8881 24.1123 32.9045 24.1816 32.9045ZM27.5193 34.8603C26.9858 34.8603 26.565 34.712 26.2568 34.4154C25.941 34.1169 25.783 33.7086 25.783 33.1905C25.783 32.6705 25.9458 32.2583 26.2713 31.954C26.5717 31.6709 26.9521 31.5293 27.4124 31.5293C27.8727 31.5293 28.2416 31.6564 28.5189 31.9107C28.7982 32.163 28.9378 32.474 28.9378 32.8438C28.9378 33.1732 28.8232 33.4216 28.594 33.5892C28.3821 33.7471 28.0933 33.8261 27.7273 33.8261C27.4538 33.8261 27.2227 33.7692 27.034 33.6556C27.0186 33.6672 27.0109 33.6884 27.0109 33.7192C27.0109 33.7769 27.0869 33.8299 27.2391 33.8781C27.3912 33.9301 27.5636 33.9561 27.7562 33.9561C27.9507 33.9561 28.127 33.932 28.2849 33.8838C28.4447 33.8338 28.5728 33.775 28.6691 33.7076C28.7153 33.7481 28.7519 33.8232 28.7789 33.933C28.8078 34.0408 28.8222 34.14 28.8222 34.2305C28.8222 34.3191 28.8136 34.3981 28.7962 34.4674C28.646 34.5945 28.4919 34.685 28.334 34.739C28.1106 34.8199 27.839 34.8603 27.5193 34.8603ZM27.4818 32.9045C27.5781 32.9045 27.6262 32.8679 27.6262 32.7947C27.6262 32.7254 27.5752 32.6907 27.4731 32.6907C27.371 32.6907 27.3123 32.7456 27.2969 32.8554C27.3508 32.8881 27.4124 32.9045 27.4818 32.9045ZM30.5681 33.6845L30.4295 33.7452C30.4295 33.8742 30.4545 34.0119 30.5046 34.1583C30.5469 34.297 30.6057 34.4202 30.6808 34.5281C30.4901 34.7245 30.2253 34.8228 29.8863 34.8228C29.6918 34.8228 29.5233 34.7717 29.3808 34.6696C29.2151 34.5541 29.1323 34.401 29.1323 34.2103V30.8389C29.2248 30.7849 29.3355 30.7406 29.4645 30.706C29.5955 30.6713 29.7274 30.654 29.8603 30.654C30.0818 30.654 30.2648 30.6973 30.4092 30.784C30.5729 30.8861 30.6548 31.0324 30.6548 31.2231V31.5293C30.6548 31.7855 30.6095 32.0359 30.519 32.2805C30.5017 32.3055 30.4709 32.3421 30.4266 32.3902C30.3823 32.4365 30.3466 32.4788 30.3197 32.5174C30.2946 32.5559 30.2821 32.5896 30.2821 32.6185C30.2821 32.6454 30.3052 32.6705 30.3515 32.6936C30.5017 32.553 30.6192 32.3999 30.7039 32.2342C30.7906 32.0686 30.8695 31.849 30.9408 31.5756C30.9658 31.5717 30.9947 31.5669 31.0275 31.5611C31.0602 31.5553 31.1141 31.5467 31.1893 31.5351C31.2663 31.5216 31.3202 31.5149 31.351 31.5149C31.6476 31.5149 31.8788 31.5833 32.0444 31.72C32.21 31.8548 32.2928 32.0407 32.2928 32.2776C32.2928 32.5145 32.2177 32.7177 32.0675 32.8871C31.9288 33.0393 31.7488 33.1539 31.5273 33.2309C31.7045 33.3349 31.9279 33.4091 32.1975 33.4534C32.3015 33.6421 32.3535 33.8434 32.3535 34.0572C32.3535 34.269 32.2861 34.4462 32.1513 34.5887C32.0011 34.7448 31.7931 34.8228 31.5273 34.8228C31.2634 34.8228 31.0458 34.7216 30.8744 34.5194C30.7049 34.3153 30.6028 34.037 30.5681 33.6845ZM34.0734 32.5058C34.0233 32.5212 33.9983 32.5511 33.9983 32.5954V32.6098C33.9983 32.6194 33.9993 32.6252 34.0012 32.6271C34.0224 32.6252 34.0503 32.6243 34.085 32.6243H34.1543C34.3739 32.6243 34.579 32.658 34.7697 32.7254C34.9622 32.7908 35.1192 32.8968 35.2406 33.0432C35.3754 33.2088 35.4428 33.4178 35.4428 33.6701C35.4428 34.063 35.307 34.3596 35.0354 34.5599C34.7639 34.7602 34.4008 34.8603 33.9463 34.8603C33.4918 34.8603 33.1355 34.7852 32.8774 34.635C32.6212 34.4847 32.4931 34.2642 32.4931 33.9734C32.4931 33.8655 32.5163 33.7673 32.5625 33.6787C32.6087 33.5882 32.6607 33.5246 32.7185 33.4881C32.8244 33.5766 32.9775 33.6537 33.1778 33.7192C33.3801 33.7827 33.5938 33.8145 33.8192 33.8145C33.9097 33.8145 33.955 33.7895 33.955 33.7394C33.955 33.7163 33.9521 33.697 33.9463 33.6816C33.9328 33.6835 33.9164 33.6845 33.8972 33.6845H33.8654C33.4571 33.6845 33.1306 33.6036 32.886 33.4418C32.6087 33.2589 32.47 33.0008 32.47 32.6676C32.47 32.3344 32.5943 32.0648 32.8427 31.8587C33.1181 31.6314 33.4966 31.5178 33.9781 31.5178C34.215 31.5178 34.4355 31.5428 34.6396 31.5929C34.8457 31.643 35.022 31.7094 35.1683 31.7922C35.2049 31.8712 35.2232 31.9877 35.2232 32.1418C35.2232 32.3768 35.1587 32.5568 35.0297 32.682C34.9314 32.6281 34.8111 32.5838 34.6685 32.5491C34.5279 32.5125 34.4008 32.4942 34.2872 32.4942C34.1736 32.4942 34.1023 32.4981 34.0734 32.5058Z" fill="#B4C8D8"/>
<path d="M18.5731 34.7765L18.9057 33.3353C18.8967 33.3332 18.8877 33.3312 18.8787 33.3293L18.5731 34.7765ZM18.1918 34.6061L16.8544 35.2378C16.9322 35.4026 17.0398 35.5515 17.1717 35.6772L18.1918 34.6061ZM17.7267 33.3465L19.15 32.9441L19.1497 32.943L17.7267 33.3465ZM17.3511 31.3907L16.129 30.5574C15.9314 30.8472 15.8432 31.1978 15.8802 31.5466L17.3511 31.3907ZM17.7065 31.096L18.3263 32.439C18.331 32.4368 18.3357 32.4346 18.3404 32.4324L17.7065 31.096ZM18.862 31.148L18.0381 32.3764L18.045 32.381L18.862 31.148ZM19.1018 31.6016L20.5747 31.7372C20.5789 31.6921 20.581 31.6468 20.581 31.6016H19.1018ZM19.0643 32.2458L17.5863 32.1855L17.586 32.1955L19.0643 32.2458ZM19.0672 33.1645L17.6567 33.6099C17.6663 33.6405 17.677 33.6707 17.6886 33.7006L19.0672 33.1645ZM19.2058 33.2078L19.5646 34.6428C20.2828 34.4632 20.7577 33.7803 20.6759 33.0445L19.2058 33.2078ZM19.2318 32.0551L20.7089 32.1333L20.7089 32.1329L19.2318 32.0551ZM19.3012 31.2375L18.5259 29.9778C18.1549 30.2062 17.9034 30.5865 17.8385 31.0174L19.3012 31.2375ZM20.4914 31.174L21.1169 29.8336C21.112 29.8313 21.1071 29.829 21.1021 29.8268L20.4914 31.174ZM20.7659 31.5293L22.2431 31.6047C22.2459 31.5492 22.2456 31.4936 22.2422 31.4382L20.7659 31.5293ZM20.711 32.0869L19.2476 31.8713C19.2469 31.8763 19.2462 31.8813 19.2455 31.8864L20.711 32.0869ZM20.5492 33.1934L19.0815 33.0099C19.0037 33.6322 19.3268 34.2359 19.8877 34.5164L20.5492 33.1934ZM20.7312 33.0374L19.279 32.756L19.2765 32.7694L20.7312 33.0374ZM20.8785 32.0638L22.3483 32.2299L22.3484 32.2289L20.8785 32.0638ZM20.9537 31.1682L20.127 29.9416C19.7387 30.2033 19.4973 30.6333 19.476 31.101L20.9537 31.1682ZM22.2912 31.1913L21.3033 32.2922L21.3112 32.2992L22.2912 31.1913ZM22.3028 32.9103L20.8593 32.5875L20.8577 32.5947L22.3028 32.9103ZM22.0919 33.7712L23.5146 34.176L23.5154 34.173L22.0919 33.7712ZM21.9272 34.271L23.2733 34.884C23.276 34.8783 23.2786 34.8725 23.2811 34.8667L21.9272 34.271ZM21.5286 34.6927L22.1724 36.0244L22.1785 36.0215L21.5286 34.6927ZM20.4741 34.7708L20.1429 36.2124L20.1471 36.2133L20.4741 34.7708ZM20.1476 34.661L18.9047 35.4629C19.0401 35.6727 19.2265 35.8449 19.4464 35.9633L20.1476 34.661ZM19.9281 34.115L21.3819 33.8424C21.2481 33.1287 20.616 32.6177 19.8902 32.6363L19.9281 34.115ZM19.905 34.5772L20.829 35.7322C21.3231 35.3369 21.5111 34.671 21.2965 34.0756L19.905 34.5772ZM19.0412 33.3407C18.9849 33.3407 18.9455 33.3385 18.9204 33.3362C18.8947 33.3338 18.8915 33.332 18.9057 33.3353L18.2405 36.2178C18.5118 36.2804 18.7881 36.299 19.0412 36.299V33.3407ZM18.8787 33.3293C18.8682 33.3271 18.8976 33.332 18.9514 33.3561C19.0052 33.3801 19.1046 33.4328 19.2119 33.535L17.1717 35.6772C17.5357 36.0239 17.9691 36.1608 18.2676 36.2238L18.8787 33.3293ZM19.5293 33.9743C19.387 33.6731 19.2594 33.331 19.15 32.9441L16.3033 33.7489C16.452 34.2749 16.6345 34.7725 16.8544 35.2378L19.5293 33.9743ZM19.1497 32.943C18.9942 32.3946 18.8847 31.8256 18.822 31.2347L15.8802 31.5466C15.9601 32.3 16.1009 33.0349 16.3036 33.75L19.1497 32.943ZM18.5732 32.2239C18.5386 32.2747 18.4964 32.3211 18.4491 32.3602C18.4025 32.399 18.359 32.4239 18.3263 32.439L17.0866 29.753C16.7122 29.9258 16.3779 30.1923 16.129 30.5574L18.5732 32.2239ZM18.3404 32.4324C18.3083 32.4476 18.2779 32.4572 18.2524 32.4626C18.2275 32.4679 18.212 32.4682 18.2091 32.4682V29.5099C17.8297 29.5099 17.4421 29.5843 17.0725 29.7596L18.3404 32.4324ZM18.2091 32.4682C18.2567 32.4682 18.2596 32.4731 18.2306 32.466C18.1997 32.4585 18.1269 32.4359 18.0381 32.3764L19.686 29.9196C19.1964 29.5912 18.6522 29.5099 18.2091 29.5099V32.4682ZM18.045 32.381C17.9441 32.3141 17.8234 32.2008 17.7342 32.0321C17.6458 31.8649 17.6227 31.7082 17.6227 31.6016H20.581C20.581 30.9237 20.2644 30.3029 19.6791 29.915L18.045 32.381ZM17.6289 31.4659C17.6119 31.6507 17.5982 31.8957 17.5864 32.1855L20.5422 32.3061C20.5535 32.0297 20.5648 31.8452 20.5747 31.7372L17.6289 31.4659ZM17.586 32.1955C17.5759 32.4917 17.5707 32.765 17.5707 33.0143H20.529C20.529 32.8052 20.5334 32.5662 20.5426 32.2961L17.586 32.1955ZM17.5707 33.0143C17.5707 33.1436 17.5796 33.3657 17.6567 33.6099L20.4777 32.7191C20.5075 32.8135 20.5188 32.8886 20.5236 32.9299C20.5286 32.9735 20.529 33.0032 20.529 33.0143H17.5707ZM17.6886 33.7006C17.7898 33.9608 17.9808 34.244 18.2976 34.4477C18.605 34.6453 18.9181 34.6956 19.1481 34.6956V31.7373C19.3376 31.7373 19.6169 31.779 19.8974 31.9593C20.1873 32.1456 20.358 32.4028 20.4457 32.6284L17.6886 33.7006ZM19.1481 34.6956C19.3312 34.6956 19.4805 34.6638 19.5646 34.6428L18.8471 31.7728C18.8718 31.7667 18.9084 31.7585 18.9546 31.7515C18.9996 31.7448 19.0661 31.7373 19.1481 31.7373V34.6956ZM20.6759 33.0445C20.6788 33.07 20.6802 33.0896 20.6808 33.1004C20.6816 33.1119 20.6819 33.1201 20.682 33.1239C20.6822 33.1309 20.6821 33.1309 20.6821 33.1212H17.7238C17.7238 33.1641 17.7239 33.265 17.7357 33.3712L20.6759 33.0445ZM20.6821 33.1212V33.02H17.7238V33.1212H20.6821ZM20.6821 33.02C20.6821 32.7733 20.6906 32.4786 20.7089 32.1333L17.7547 31.977C17.7345 32.3597 17.7238 32.7083 17.7238 33.02H20.6821ZM20.7089 32.1329C20.7277 31.7768 20.748 31.563 20.7638 31.4577L17.8385 31.0174C17.8004 31.2703 17.7745 31.6016 17.7547 31.9774L20.7089 32.1329ZM20.0764 32.4973C20.0353 32.5226 19.9949 32.5385 19.9616 32.5472C19.9296 32.5556 19.9134 32.5549 19.9194 32.5549V29.5966C19.451 29.5966 18.9678 29.7059 18.5259 29.9778L20.0764 32.4973ZM19.9194 32.5549C19.9448 32.5549 19.9633 32.5558 19.9755 32.5567C19.9877 32.5577 19.9921 32.5585 19.9897 32.5581C19.9874 32.5577 19.9764 32.5557 19.9584 32.5505C19.9403 32.5452 19.9136 32.5361 19.8807 32.5212L21.1021 29.8268C20.6951 29.6423 20.2722 29.5966 19.9194 29.5966V32.5549ZM19.8659 32.5144C19.7965 32.482 19.6525 32.3999 19.5194 32.2276C19.3759 32.0418 19.3021 31.8241 19.2895 31.6205L22.2422 31.4382C22.1912 30.6115 21.6509 30.0828 21.1169 29.8336L19.8659 32.5144ZM19.2886 31.454C19.2814 31.5968 19.2676 31.7358 19.2476 31.8713L22.1743 32.3026C22.2083 32.0721 22.2311 31.8394 22.2431 31.6047L19.2886 31.454ZM19.2455 31.8864C19.2218 32.0595 19.1922 32.2623 19.1564 32.4956L22.0806 32.9436C22.1181 32.6992 22.1501 32.4802 22.1765 32.2874L19.2455 31.8864ZM19.1564 32.4956C19.1205 32.7304 19.0941 32.909 19.0815 33.0099L22.0169 33.3768C22.0236 33.3237 22.0434 33.1864 22.0806 32.9436L19.1564 32.4956ZM19.8877 34.5164C20.1802 34.6626 20.4517 34.6841 20.6099 34.6841V31.7258C20.718 31.7258 20.949 31.7395 21.2107 31.8704L19.8877 34.5164ZM20.6099 34.6841C21.0558 34.6841 21.4226 34.4993 21.6742 34.2705L19.6842 32.0816C19.8935 31.8913 20.2141 31.7258 20.6099 31.7258V34.6841ZM21.6742 34.2705C21.9421 34.027 22.0536 33.7514 22.0931 33.6463C22.1435 33.5118 22.1704 33.3892 22.1859 33.3053L19.2765 32.7694C19.2785 32.7587 19.29 32.6959 19.3231 32.6076C19.3404 32.5615 19.3704 32.49 19.4194 32.4066C19.467 32.3257 19.5502 32.2034 19.6842 32.0816L21.6742 34.2705ZM22.1833 33.3187C22.2511 32.9691 22.3058 32.6059 22.3483 32.2299L19.4087 31.8977C19.3742 32.2035 19.3307 32.4894 19.2791 32.756L22.1833 33.3187ZM22.3484 32.2289C22.3894 31.8641 22.4178 31.5315 22.4313 31.2354L19.476 31.101C19.4664 31.3134 19.4447 31.5778 19.4086 31.8986L22.3484 32.2289ZM21.7803 32.3948C21.7006 32.4485 21.6386 32.4665 21.6207 32.4708C21.6048 32.4747 21.6227 32.4682 21.6875 32.4682V29.5099C21.2096 29.5099 20.6369 29.598 20.127 29.9416L21.7803 32.3948ZM21.6875 32.4682C21.6832 32.4682 21.6341 32.4678 21.5579 32.4422C21.477 32.4152 21.3862 32.3666 21.3033 32.2922L23.2792 30.0905C22.7945 29.6555 22.2097 29.5099 21.6875 29.5099V32.4682ZM21.3112 32.2992C21.2252 32.2232 21.1475 32.1198 21.0962 31.9974C21.0466 31.8791 21.0374 31.7813 21.0374 31.7287H23.9957C23.9957 31.1379 23.7801 30.5335 23.2713 30.0834L21.3112 32.2992ZM21.0374 31.7287C21.0374 31.6698 21.0428 31.6478 21.0366 31.6949C21.0319 31.731 21.0229 31.7889 21.0076 31.8734C20.9771 32.0421 20.9285 32.2779 20.8593 32.5875L23.7463 33.233C23.8196 32.9051 23.8779 32.6253 23.9187 32.4001C23.9524 32.2136 23.9957 31.9544 23.9957 31.7287H21.0374ZM20.8577 32.5947C20.7887 32.9109 20.7254 33.1675 20.6684 33.3694L23.5154 34.173C23.5933 33.8972 23.6706 33.5799 23.7479 33.2259L20.8577 32.5947ZM20.6692 33.3663C20.639 33.4724 20.6145 33.5528 20.5953 33.6109C20.5744 33.6746 20.567 33.6896 20.5733 33.6752L23.2811 34.8667C23.3683 34.6685 23.4466 34.415 23.5146 34.176L20.6692 33.3663ZM20.5811 33.6579C20.5973 33.6223 20.6295 33.5662 20.6862 33.5062C20.7439 33.4451 20.8111 33.397 20.8786 33.364L22.1785 36.0215C22.6902 35.7712 23.0554 35.3626 23.2733 34.884L20.5811 33.6579ZM20.8847 33.3611C20.9324 33.338 20.96 33.3336 20.9544 33.3346C20.9519 33.3351 20.9427 33.3367 20.9259 33.3381C20.9091 33.3395 20.8858 33.3407 20.8554 33.3407V36.299C21.2674 36.299 21.7321 36.2373 22.1724 36.0244L20.8847 33.3611ZM20.8554 33.3407C20.8731 33.3407 20.8777 33.342 20.8667 33.3406C20.856 33.3392 20.8345 33.3358 20.8011 33.3282L20.1471 36.2133C20.3643 36.2625 20.6051 36.299 20.8554 36.299V33.3407ZM20.8053 33.3292C20.7693 33.3209 20.7549 33.316 20.757 33.3168C20.7587 33.3173 20.7674 33.3203 20.7817 33.3263C20.7958 33.3322 20.8191 33.3426 20.8489 33.3586L19.4464 35.9633C19.692 36.0956 19.9492 36.1678 20.1429 36.2124L20.8053 33.3292ZM21.3906 33.8591C21.3976 33.87 21.4031 33.8791 21.4073 33.8862C21.4115 33.8933 21.4146 33.8989 21.4167 33.9027C21.4207 33.9101 21.4219 33.9128 21.4204 33.9096C21.4189 33.9066 21.4157 33.8997 21.4108 33.8882C21.4059 33.8769 21.3998 33.8622 21.3925 33.8438L18.6428 34.935C18.7022 35.0848 18.7875 35.2812 18.9047 35.4629L21.3906 33.8591ZM21.3925 33.8438C21.3846 33.8238 21.3784 33.8077 21.3738 33.795C21.3691 33.7822 21.3664 33.7743 21.3653 33.7709C21.3641 33.7672 21.3654 33.7709 21.368 33.7806C21.3694 33.7857 21.3714 33.7933 21.3737 33.8032C21.376 33.813 21.3789 33.8262 21.3819 33.8424L18.4743 34.3875C18.5135 34.5969 18.5887 34.7987 18.6428 34.935L21.3925 33.8438ZM19.8902 32.6363C19.6026 32.6437 19.1358 32.7352 18.7597 33.1402C18.3956 33.5323 18.3363 33.9835 18.3363 34.2363H21.2946C21.2946 34.4101 21.254 34.8016 20.9275 35.1532C20.5889 35.5178 20.1784 35.5882 19.966 35.5936L19.8902 32.6363ZM18.3363 34.2363C18.3363 34.4615 18.3835 34.6536 18.4072 34.7436C18.4373 34.8582 18.4753 34.9728 18.5135 35.0788L21.2965 34.0756C21.275 34.0159 21.2681 33.991 21.2684 33.9919C21.2687 33.9931 21.2737 34.0119 21.2791 34.0439C21.282 34.0606 21.2856 34.0846 21.2886 34.1147C21.2916 34.1442 21.2946 34.1857 21.2946 34.2363H18.3363ZM18.9809 33.4222C19.0568 33.3615 19.1196 33.3401 19.1373 33.3352C19.1512 33.3313 19.1248 33.3407 19.0412 33.3407V36.299C19.6061 36.299 20.2703 36.1792 20.829 35.7322L18.9809 33.4222ZM22.9567 34.4154L23.9825 33.3497L23.9727 33.3404L22.9567 34.4154ZM22.9711 31.954L23.9813 33.0345L23.9855 33.0305L22.9711 31.954ZM25.2187 31.9107L24.2192 33.0011L24.2271 33.0082L25.2187 31.9107ZM25.2938 33.5892L24.4208 32.395L24.4098 32.4033L25.2938 33.5892ZM23.7338 33.6556L24.4967 32.3884C23.9808 32.0778 23.3281 32.111 22.8463 32.4723L23.7338 33.6556ZM23.9389 33.8781L24.4173 32.4784C24.4066 32.4748 24.3959 32.4712 24.3852 32.4678L23.9389 33.8781ZM24.9847 33.8838L25.4161 35.2987L25.4269 35.2954L24.9847 33.8838ZM25.369 33.7076L26.343 32.5944C25.8306 32.1461 25.0784 32.1054 24.5207 32.4958L25.369 33.7076ZM25.4787 33.933L24.0423 34.2858C24.0447 34.2958 24.0473 34.3057 24.05 34.3157L25.4787 33.933ZM25.4961 34.4674L26.4515 35.5966C26.6881 35.3964 26.8559 35.1269 26.9311 34.8262L25.4961 34.4674ZM25.0338 34.739L24.5559 33.3392C24.5473 33.3421 24.5388 33.3451 24.5303 33.3482L25.0338 34.739ZM23.9967 32.8554L22.5319 32.6498C22.4498 33.235 22.7239 33.813 23.2291 34.1197L23.9967 32.8554ZM24.2191 33.3812C24.088 33.3812 24.02 33.3628 23.995 33.354C23.9828 33.3497 23.9786 33.347 23.9795 33.3475C23.9797 33.3476 23.9803 33.348 23.9811 33.3486C23.982 33.3493 23.9824 33.3497 23.9824 33.3497L21.9309 35.4811C22.5788 36.1047 23.4026 36.3395 24.2191 36.3395V33.3812ZM23.9727 33.3404C23.972 33.3398 23.9747 33.3423 23.9781 33.3474C23.9814 33.3524 23.9821 33.3548 23.9809 33.3517C23.9786 33.3458 23.962 33.2998 23.962 33.1905H21.0037C21.0037 34.0308 21.2729 34.8593 21.9407 35.4904L23.9727 33.3404ZM23.962 33.1905C23.962 33.0847 23.9784 33.0405 23.9807 33.0346C23.982 33.0312 23.9819 33.0324 23.9798 33.0354C23.9778 33.0384 23.9773 33.0382 23.9813 33.0345L21.961 30.8735C21.2858 31.5047 21.0037 32.3356 21.0037 33.1905H23.962ZM23.9855 33.0305C23.9887 33.0275 23.991 33.0257 23.9922 33.0247C23.9935 33.0237 23.9941 33.0233 23.9943 33.0232C23.9944 33.0231 23.9945 33.0231 23.9947 33.023C23.995 33.0229 23.9959 33.0224 23.9976 33.0218C24.0022 33.0201 24.0348 33.0085 24.1123 33.0085V30.0502C23.3219 30.0502 22.564 30.3052 21.9567 30.8775L23.9855 33.0305ZM24.1123 33.0085C24.2072 33.0085 24.2479 33.0216 24.2521 33.0231C24.2542 33.0238 24.2499 33.0225 24.2418 33.0177C24.2336 33.0128 24.2256 33.0069 24.2192 33.001L26.2182 30.8203C25.6102 30.263 24.8558 30.0502 24.1123 30.0502V33.0085ZM24.2271 33.0082C24.2306 33.0114 24.2059 32.989 24.1835 32.939C24.1608 32.8883 24.1585 32.8499 24.1585 32.8438H27.1168C27.1168 32.0473 26.7937 31.3402 26.2103 30.8131L24.2271 33.0082ZM24.1585 32.8438C24.1585 32.8374 24.1599 32.7631 24.2085 32.6576C24.2606 32.5447 24.3404 32.4539 24.4209 32.3951L26.1668 34.7832C26.8416 34.2899 27.1168 33.5589 27.1168 32.8438H24.1585ZM24.4098 32.4033C24.4391 32.3814 24.4662 32.366 24.488 32.3557C24.5095 32.3456 24.5239 32.3412 24.5283 32.34C24.5354 32.3381 24.5064 32.3469 24.4272 32.3469V35.3052C24.9916 35.3052 25.6287 35.1844 26.1779 34.7751L24.4098 32.4033ZM24.4272 32.3469C24.3921 32.3469 24.3862 32.3432 24.4018 32.3471C24.419 32.3513 24.454 32.3627 24.4967 32.3884L22.9709 34.9228C23.4396 35.205 23.9493 35.3052 24.4272 35.3052V32.3469ZM22.8463 32.4723C22.2795 32.8974 22.2315 33.5046 22.2315 33.7192H25.1898C25.1898 33.8721 25.1573 34.4369 24.6213 34.8389L22.8463 32.4723ZM22.2315 33.7192C22.2315 34.4688 22.7324 34.8838 22.9226 35.0162C23.1401 35.1676 23.3612 35.2467 23.4926 35.2883L24.3852 32.4678C24.3856 32.468 24.4054 32.4741 24.4382 32.4887C24.4684 32.502 24.5332 32.5328 24.6129 32.5883C24.727 32.6677 25.1898 33.0273 25.1898 33.7192H22.2315ZM23.4606 35.2777C23.7937 35.3916 24.1319 35.4352 24.456 35.4352V32.4769C24.3949 32.4769 24.3884 32.4685 24.4173 32.4784L23.4606 35.2777ZM24.456 35.4352C24.7714 35.4352 25.096 35.3963 25.4161 35.2987L24.5534 32.469C24.5576 32.4677 24.5297 32.4769 24.456 32.4769V35.4352ZM25.4269 35.2954C25.6754 35.2175 25.9561 35.1021 26.2172 34.9194L24.5207 32.4958C24.54 32.4824 24.5555 32.473 24.5659 32.4672C24.5763 32.4614 24.5826 32.4584 24.584 32.4577C24.5861 32.4568 24.5737 32.4626 24.5426 32.4723L25.4269 35.2954ZM24.3949 34.8208C24.2265 34.6734 24.1402 34.5218 24.1013 34.4421C24.0608 34.359 24.0457 34.2996 24.0423 34.2858L26.9152 33.5801C26.8684 33.3896 26.741 32.9427 26.343 32.5944L24.3949 34.8208ZM24.05 34.3157C24.0529 34.3265 24.0429 34.2952 24.0429 34.2305H27.0012C27.0012 33.9848 26.9624 33.7551 26.9075 33.5502L24.05 34.3157ZM24.0429 34.2305C24.0429 34.2257 24.0431 34.1807 24.0611 34.1087L26.9311 34.8262C26.9837 34.6155 27.0012 34.4125 27.0012 34.2305H24.0429ZM24.5406 33.3382C24.5236 33.3527 24.516 33.3568 24.5186 33.3553C24.5215 33.3536 24.534 33.3466 24.5559 33.3392L25.5118 36.1388C25.8727 36.0156 26.1852 35.8219 26.4515 35.5966L24.5406 33.3382ZM24.5303 33.3482C24.5134 33.3543 24.4227 33.3812 24.2191 33.3812V36.3395C24.655 36.3395 25.1075 36.2854 25.5374 36.1298L24.5303 33.3482ZM24.1816 34.3836C24.3751 34.3836 24.7908 34.3542 25.1849 34.0547C25.6557 33.6969 25.8052 33.1849 25.8052 32.7947H22.8469C22.8469 32.4777 22.9723 32.0206 23.3949 31.6994C23.7409 31.4365 24.0844 31.4253 24.1816 31.4253V34.3836ZM25.8052 32.7947C25.8052 32.3409 25.605 31.8233 25.1189 31.4931C24.735 31.2324 24.3452 31.2115 24.1729 31.2115V34.1698C24.1028 34.1698 23.7895 34.1663 23.4567 33.9403C23.2713 33.8144 23.1027 33.6334 22.9886 33.4008C22.8777 33.1749 22.8469 32.9593 22.8469 32.7947H25.8052ZM24.1729 31.2115C23.8521 31.2115 23.414 31.3039 23.0424 31.6511C22.6866 31.9836 22.569 32.3855 22.5319 32.6498L25.4615 33.061C25.4398 33.2155 25.3592 33.5351 25.0622 33.8126C24.7494 34.1049 24.3917 34.1698 24.1729 34.1698V31.2115ZM23.2291 34.1197C23.5369 34.3067 23.8692 34.3836 24.1816 34.3836V31.4253C24.3553 31.4253 24.5643 31.4696 24.7643 31.591L23.2291 34.1197ZM26.2568 34.4154L27.2826 33.3497L27.2728 33.3404L26.2568 34.4154ZM26.2713 31.954L27.2814 33.0345L27.2857 33.0305L26.2713 31.954ZM28.5189 31.9107L27.5194 33.0011L27.5273 33.0082L28.5189 31.9107ZM28.594 33.5892L27.721 32.395L27.71 32.4033L28.594 33.5892ZM27.034 33.6556L27.7969 32.3884C27.281 32.0778 26.6282 32.111 26.1465 32.4723L27.034 33.6556ZM27.2391 33.8781L27.7174 32.4784C27.7068 32.4748 27.6961 32.4712 27.6854 32.4678L27.2391 33.8781ZM28.2849 33.8838L28.7163 35.2987L28.727 35.2954L28.2849 33.8838ZM28.6691 33.7076L29.6431 32.5944C29.1308 32.1461 28.3786 32.1054 27.8209 32.4958L28.6691 33.7076ZM28.7789 33.933L27.3424 34.2858C27.3449 34.2958 27.3475 34.3057 27.3501 34.3157L28.7789 33.933ZM28.7962 34.4674L29.7517 35.5966C29.9883 35.3964 30.156 35.1269 30.2312 34.8262L28.7962 34.4674ZM28.334 34.739L27.856 33.3392C27.8475 33.3421 27.8389 33.3451 27.8304 33.3482L28.334 34.739ZM27.2969 32.8554L25.8321 32.6498C25.7499 33.235 26.024 33.813 26.5292 34.1197L27.2969 32.8554ZM27.5193 33.3812C27.3882 33.3812 27.3202 33.3628 27.2952 33.354C27.283 33.3497 27.2788 33.347 27.2796 33.3475C27.2798 33.3476 27.2805 33.348 27.2813 33.3486C27.2821 33.3493 27.2826 33.3497 27.2826 33.3497L25.2311 35.4811C25.879 36.1047 26.7027 36.3395 27.5193 36.3395V33.3812ZM27.2728 33.3404C27.2722 33.3398 27.2748 33.3423 27.2782 33.3474C27.2816 33.3524 27.2822 33.3548 27.281 33.3517C27.2788 33.3458 27.2622 33.2998 27.2622 33.1905H24.3039C24.3039 34.0308 24.573 34.8593 25.2408 35.4904L27.2728 33.3404ZM27.2622 33.1905C27.2622 33.0847 27.2786 33.0405 27.2809 33.0346C27.2822 33.0312 27.2821 33.0324 27.28 33.0354C27.278 33.0384 27.2775 33.0382 27.2814 33.0345L25.2611 30.8735C24.586 31.5047 24.3039 32.3356 24.3039 33.1905H27.2622ZM27.2857 33.0305C27.2889 33.0275 27.2911 33.0257 27.2924 33.0247C27.2936 33.0237 27.2943 33.0233 27.2944 33.0232C27.2946 33.0231 27.2947 33.0231 27.2949 33.023C27.2951 33.0229 27.296 33.0224 27.2978 33.0218C27.3023 33.0201 27.335 33.0085 27.4124 33.0085V30.0502C26.622 30.0502 25.8642 30.3052 25.2569 30.8775L27.2857 33.0305ZM27.4124 33.0085C27.5073 33.0085 27.548 33.0216 27.5523 33.0231C27.5544 33.0238 27.55 33.0225 27.542 33.0177C27.5337 33.0128 27.5258 33.0069 27.5194 33.001L29.5184 30.8203C28.9104 30.263 28.156 30.0502 27.4124 30.0502V33.0085ZM27.5273 33.0082C27.5308 33.0114 27.5061 32.989 27.4837 32.939C27.4609 32.8883 27.4586 32.8499 27.4586 32.8438H30.4169C30.4169 32.0473 30.0939 31.3402 29.5105 30.8131L27.5273 33.0082ZM27.4586 32.8438C27.4586 32.8374 27.46 32.7631 27.5087 32.6576C27.5608 32.5447 27.6406 32.4539 27.721 32.3951L29.467 34.7832C30.1418 34.2899 30.4169 33.5589 30.4169 32.8438H27.4586ZM27.71 32.4033C27.7393 32.3814 27.7663 32.366 27.7881 32.3557C27.8096 32.3456 27.824 32.3412 27.8284 32.34C27.8355 32.3381 27.8065 32.3469 27.7273 32.3469V35.3052C28.2918 35.3052 28.9289 35.1844 29.478 34.7751L27.71 32.4033ZM27.7273 32.3469C27.6923 32.3469 27.6863 32.3432 27.702 32.3471C27.7192 32.3513 27.7541 32.3627 27.7969 32.3884L26.271 34.9228C26.7397 35.205 27.2495 35.3052 27.7273 35.3052V32.3469ZM26.1465 32.4723C25.5797 32.8974 25.5317 33.5046 25.5317 33.7192H28.49C28.49 33.8721 28.4574 34.4369 27.9215 34.8389L26.1465 32.4723ZM25.5317 33.7192C25.5317 34.4688 26.0326 34.8838 26.2228 35.0162C26.4403 35.1676 26.6614 35.2467 26.7928 35.2883L27.6854 32.4678C27.6858 32.468 27.7056 32.4741 27.7384 32.4887C27.7685 32.502 27.8334 32.5328 27.913 32.5883C28.0271 32.6677 28.49 33.0273 28.49 33.7192H25.5317ZM26.7607 35.2777C27.0939 35.3916 27.4321 35.4352 27.7562 35.4352V32.4769C27.6951 32.4769 27.6886 32.4685 27.7174 32.4784L26.7607 35.2777ZM27.7562 35.4352C28.0716 35.4352 28.3962 35.3963 28.7162 35.2987L27.8535 32.469C27.8577 32.4677 27.8299 32.4769 27.7562 32.4769V35.4352ZM28.727 35.2954C28.9755 35.2175 29.2563 35.1021 29.5174 34.9194L27.8209 32.4958C27.8401 32.4824 27.8556 32.473 27.866 32.4672C27.8764 32.4614 27.8828 32.4584 27.8842 32.4577C27.8862 32.4568 27.8739 32.4626 27.8427 32.4723L28.727 35.2954ZM27.6951 34.8208C27.5267 34.6734 27.4403 34.5218 27.4015 34.4421C27.361 34.359 27.3458 34.2996 27.3424 34.2858L30.2154 33.5801C30.1686 33.3896 30.0412 32.9427 29.6431 32.5944L27.6951 34.8208ZM27.3501 34.3157C27.353 34.3265 27.3431 34.2952 27.3431 34.2305H30.3014C30.3014 33.9848 30.2626 33.7551 30.2077 33.5502L27.3501 34.3157ZM27.3431 34.2305C27.3431 34.2257 27.3432 34.1807 27.3612 34.1087L30.2312 34.8262C30.2839 34.6155 30.3014 34.4125 30.3014 34.2305H27.3431ZM27.8408 33.3382C27.8237 33.3527 27.8161 33.3568 27.8187 33.3553C27.8217 33.3536 27.8342 33.3466 27.856 33.3392L28.812 36.1388C29.1728 36.0156 29.4853 35.8219 29.7517 35.5966L27.8408 33.3382ZM27.8304 33.3482C27.8135 33.3543 27.7229 33.3812 27.5193 33.3812V36.3395C27.9552 36.3395 28.4076 36.2854 28.8376 36.1298L27.8304 33.3482ZM27.4818 34.3836C27.6752 34.3836 28.091 34.3542 28.4851 34.0547C28.9559 33.6969 29.1054 33.1849 29.1054 32.7947H26.1471C26.1471 32.4777 26.2725 32.0206 26.6951 31.6994C27.041 31.4365 27.3846 31.4253 27.4818 31.4253V34.3836ZM29.1054 32.7947C29.1054 32.3409 28.9052 31.8233 28.419 31.4931C28.0352 31.2324 27.6453 31.2115 27.4731 31.2115V34.1698C27.4029 34.1698 27.0896 34.1663 26.7568 33.9403C26.5715 33.8144 26.4029 33.6334 26.2888 33.4008C26.1779 33.1749 26.1471 32.9593 26.1471 32.7947H29.1054ZM27.4731 31.2115C27.1523 31.2115 26.7141 31.3039 26.3426 31.6511C25.9868 31.9836 25.8692 32.3855 25.8321 32.6498L28.7617 33.061C28.74 33.2155 28.6594 33.5351 28.3624 33.8126C28.0495 34.1049 27.6918 34.1698 27.4731 34.1698V31.2115ZM26.5292 34.1197C26.8371 34.3067 27.1694 34.3836 27.4818 34.3836V31.4253C27.6555 31.4253 27.8645 31.4696 28.0645 31.591L26.5292 34.1197ZM30.5681 33.6845L32.0402 33.5397C31.9938 33.0684 31.7246 32.6479 31.3161 32.4084C30.9076 32.1689 30.4091 32.1396 29.9753 32.3294L30.5681 33.6845ZM30.4295 33.7452L29.8366 32.39C29.2982 32.6256 28.9503 33.1575 28.9503 33.7452H30.4295ZM30.5046 34.1583L31.9192 33.7261C31.9144 33.7105 31.9094 33.6949 31.9041 33.6795L30.5046 34.1583ZM30.6808 34.5281L31.7422 35.5583C32.2354 35.0502 32.2993 34.2638 31.8946 33.6828L30.6808 34.5281ZM29.3808 34.6696L30.242 33.4671C30.2371 33.4636 30.2321 33.46 30.2271 33.4565L29.3808 34.6696ZM29.1323 30.8389L28.387 29.5612C27.9326 29.8263 27.6532 30.3128 27.6532 30.8389H29.1323ZM29.4645 30.706L29.086 29.2761L29.0808 29.2775L29.4645 30.706ZM30.4092 30.784L31.1919 29.5288C31.1847 29.5244 31.1775 29.52 31.1703 29.5156L30.4092 30.784ZM30.519 32.2805L31.7352 33.1224C31.8057 33.0205 31.8632 32.9101 31.9062 32.7938L30.519 32.2805ZM30.4266 32.3902L31.4945 33.4137C31.5015 33.4064 31.5083 33.3991 31.5151 33.3917L30.4266 32.3902ZM30.3197 32.5174L29.1079 31.6691C29.0982 31.683 29.0887 31.697 29.0795 31.7112L30.3197 32.5174ZM30.3515 32.6936L29.69 34.0166C30.2433 34.2933 30.9105 34.1963 31.3622 33.7735L30.3515 32.6936ZM30.7039 32.2342L29.3933 31.5484L29.3871 31.5605L30.7039 32.2342ZM30.9408 31.5756L30.7159 30.1136C30.1325 30.2034 29.6583 30.6314 29.5095 31.2026L30.9408 31.5756ZM31.1893 31.5351L31.4142 32.9971C31.4242 32.9955 31.4342 32.9939 31.4442 32.9921L31.1893 31.5351ZM32.0444 31.72L31.1027 32.8607L31.1106 32.8672L32.0444 31.72ZM32.0675 32.8871L33.1607 33.8835C33.1653 33.8785 33.1699 33.8734 33.1744 33.8683L32.0675 32.8871ZM31.5273 33.2309L31.0413 31.8339C30.4966 32.0234 30.1117 32.5122 30.0552 33.0862C29.9988 33.6602 30.2811 34.2146 30.7785 34.5066L31.5273 33.2309ZM32.1975 33.4534L33.493 32.7395C33.2741 32.3422 32.8849 32.0673 32.4373 31.9938L32.1975 33.4534ZM32.1513 34.5887L33.2168 35.6148L33.2258 35.6052L32.1513 34.5887ZM30.8744 34.5194L29.7363 35.4642C29.7395 35.4681 29.7428 35.472 29.746 35.4758L30.8744 34.5194ZM29.9753 32.3294L29.8366 32.39L31.0223 35.1003L31.161 35.0396L29.9753 32.3294ZM28.9503 33.7452C28.9503 34.0658 29.0124 34.3663 29.1051 34.6371L31.9041 33.6795C31.8966 33.6575 31.9086 33.6826 31.9086 33.7452H28.9503ZM29.09 34.5905C29.1728 34.8614 29.2953 35.1268 29.467 35.3734L31.8946 33.6828C31.9161 33.7136 31.9211 33.7325 31.9192 33.7261L29.09 34.5905ZM29.6194 33.4979C29.6825 33.4329 29.7573 33.3873 29.8248 33.3623C29.8863 33.3395 29.9144 33.3436 29.8863 33.3436V36.3019C30.5238 36.3019 31.2095 36.1071 31.7422 35.5583L29.6194 33.4979ZM29.8863 33.3436C29.9193 33.3436 29.9743 33.3481 30.0428 33.3688C30.1127 33.39 30.1812 33.4235 30.242 33.4671L28.5195 35.8722C28.9405 36.1737 29.4183 36.3019 29.8863 36.3019V33.3436ZM30.2271 33.4565C30.3032 33.5096 30.4108 33.6079 30.4955 33.7644C30.5818 33.9241 30.6115 34.0839 30.6115 34.2103H27.6532C27.6532 34.9173 28 35.5099 28.5344 35.8827L30.2271 33.4565ZM30.6115 34.2103V30.8389H27.6532V34.2103H30.6115ZM29.8776 32.1165C29.8543 32.1301 29.8387 32.1367 29.8341 32.1386C29.8294 32.1404 29.8335 32.1385 29.8483 32.1345L29.0808 29.2775C28.855 29.3381 28.6167 29.4272 28.387 29.5612L29.8776 32.1165ZM29.8431 32.1359C29.8529 32.1333 29.8577 32.1331 29.8603 32.1331V29.1748C29.5972 29.1748 29.3381 29.2094 29.086 29.2761L29.8431 32.1359ZM29.8603 32.1331C29.896 32.1331 29.7952 32.1405 29.6482 32.0523L31.1703 29.5156C30.7344 29.2541 30.2676 29.1748 29.8603 29.1748V32.1331ZM29.6266 32.0391C29.5289 31.9782 29.4005 31.8677 29.3024 31.6923C29.2039 31.5161 29.1757 31.3454 29.1757 31.2231H32.134C32.134 30.5145 31.7825 29.8971 31.1919 29.5288L29.6266 32.0391ZM29.1757 31.2231V31.5293H32.134V31.2231H29.1757ZM29.1757 31.5293C29.1757 31.607 29.1627 31.6838 29.1318 31.7671L31.9062 32.7938C32.0564 32.388 32.134 31.9639 32.134 31.5293H29.1757ZM29.3029 31.4385C29.3185 31.4159 29.331 31.3996 29.3379 31.3908C29.3451 31.3815 29.35 31.3757 29.3515 31.3739C29.354 31.3709 29.3504 31.3753 29.338 31.3888L31.5151 33.3917C31.5656 33.3368 31.6558 33.237 31.7352 33.1224L29.3029 31.4385ZM29.3586 31.3668C29.2793 31.4496 29.1906 31.551 29.1079 31.6691L31.5314 33.3656C31.516 33.3877 31.5042 33.4021 31.4987 33.4087C31.493 33.4154 31.4912 33.4172 31.4945 33.4137L29.3586 31.3668ZM29.0795 31.7112C28.9827 31.8602 28.803 32.1806 28.803 32.6185H31.7613C31.7613 32.8169 31.7187 32.9774 31.6781 33.0865C31.6377 33.1954 31.5912 33.2752 31.5599 33.3235L29.0795 31.7112ZM28.803 32.6185C28.803 33.5789 29.5996 33.9714 29.69 34.0166L31.013 31.3706C31.0756 31.4019 31.2308 31.4857 31.3863 31.6542C31.5578 31.84 31.7613 32.1694 31.7613 32.6185H28.803ZM31.3622 33.7735C31.624 33.5285 31.8504 33.2409 32.0207 32.908L29.3871 31.5605C29.387 31.5607 29.385 31.5647 29.3787 31.5729C29.3724 31.5812 29.3606 31.595 29.3407 31.6136L31.3622 33.7735ZM32.0145 32.92C32.1724 32.6183 32.2854 32.2813 32.3722 31.9485L29.5095 31.2026C29.4536 31.4168 29.4088 31.5189 29.3933 31.5485L32.0145 32.92ZM31.1657 33.0375C31.2042 33.0316 31.2442 33.0249 31.2845 33.0178L30.7704 30.1045C30.7453 30.1089 30.7275 30.1118 30.7159 30.1136L31.1657 33.0375ZM31.2845 33.0178C31.2998 33.0151 31.3398 33.0085 31.4142 32.9971L30.9643 30.0732C30.8885 30.0848 30.8206 30.0956 30.7704 30.1045L31.2845 33.0178ZM31.4442 32.9921C31.4683 32.9879 31.4757 32.9871 31.471 32.9877C31.4681 32.988 31.4575 32.9893 31.4409 32.9906C31.4259 32.9918 31.394 32.994 31.351 32.994V30.0357C31.1763 30.0357 31.006 30.0656 30.9343 30.0781L31.4442 32.9921ZM31.351 32.994C31.4339 32.994 31.2875 33.0132 31.1027 32.8607L32.9861 30.5794C32.4701 30.1533 31.8614 30.0357 31.351 30.0357V32.994ZM31.1106 32.8672C31.0227 32.7956 30.9374 32.6921 30.8796 32.5625C30.8239 32.4374 30.8137 32.3328 30.8137 32.2776H33.772C33.772 31.6509 33.5295 31.0216 32.9781 30.5728L31.1106 32.8672ZM30.8137 32.2776C30.8137 32.2374 30.8206 32.172 30.8491 32.0948C30.8781 32.0165 30.9196 31.9523 30.9606 31.906L33.1744 33.8683C33.5763 33.4149 33.772 32.8578 33.772 32.2776H30.8137ZM30.9743 31.8908C30.9963 31.8666 31.0181 31.8497 31.0343 31.8393C31.0499 31.8294 31.0544 31.8293 31.0413 31.8339L32.0132 34.628C32.4346 34.4814 32.8343 34.2417 33.1607 33.8835L30.9743 31.8908ZM30.7785 34.5066C31.155 34.7275 31.5644 34.8484 31.9577 34.913L32.4373 31.9938C32.3673 31.9823 32.3209 31.9698 32.2937 31.9607C32.2665 31.9517 32.2633 31.9478 32.276 31.9553L30.7785 34.5066ZM30.902 34.1672C30.8965 34.1572 30.8885 34.1395 30.8824 34.1159C30.8763 34.0923 30.8744 34.0716 30.8744 34.0572H33.8327C33.8327 33.5917 33.7165 33.1451 33.493 32.7395L30.902 34.1672ZM30.8744 34.0572C30.8744 34.0044 30.8832 33.921 30.9205 33.823C30.9585 33.723 31.0149 33.6376 31.0767 33.5723L33.2258 35.6052C33.6423 35.1649 33.8327 34.614 33.8327 34.0572H30.8744ZM31.0858 33.5627C31.1677 33.4777 31.2662 33.4157 31.3632 33.3793C31.4544 33.3451 31.5167 33.3436 31.5273 33.3436V36.3019C32.0974 36.3019 32.7265 36.1238 33.2167 35.6147L31.0858 33.5627ZM31.5273 33.3436C31.589 33.3436 31.6842 33.3566 31.7894 33.4055C31.8944 33.4542 31.9645 33.518 32.0027 33.563L29.746 35.4758C30.1969 36.0078 30.8264 36.3019 31.5273 36.3019V33.3436ZM32.0124 33.5746C32.0293 33.5949 32.0411 33.613 32.0489 33.6269C32.0566 33.6405 32.0594 33.6484 32.0594 33.6482C32.0588 33.6467 32.0476 33.6147 32.0402 33.5397L29.0961 33.8293C29.1502 34.3792 29.3244 34.9681 29.7363 35.4642L32.0124 33.5746ZM34.0734 32.5058L33.6923 31.0766C33.6742 31.0814 33.6563 31.0866 33.6384 31.0921L34.0734 32.5058ZM34.0012 32.6271L32.9553 33.6731C33.2657 33.9835 33.6979 34.14 34.1351 34.1002L34.0012 32.6271ZM34.7697 32.7254L34.2766 34.1199C34.2822 34.1219 34.2879 34.1239 34.2935 34.1258L34.7697 32.7254ZM35.2406 33.0432L36.3878 32.1094L36.3793 32.0992L35.2406 33.0432ZM32.8774 34.635L32.1291 35.9109L32.1333 35.9133L32.8774 34.635ZM32.5625 33.6787L33.8739 34.363L33.8798 34.3514L32.5625 33.6787ZM32.7185 33.4881L33.6674 32.3534C33.174 31.9408 32.4705 31.8943 31.9271 32.2384L32.7185 33.4881ZM33.1778 33.7192L32.7182 35.1251C32.7236 35.1268 32.729 35.1286 32.7343 35.1303L33.1778 33.7192ZM33.9463 33.6816L35.3313 33.1622C35.0875 32.5122 34.4244 32.1191 33.7371 32.2173L33.9463 33.6816ZM32.886 33.4418L33.702 32.2081L33.7006 32.2072L32.886 33.4418ZM32.8427 31.8587L31.9013 30.7178L31.8984 30.7202L32.8427 31.8587ZM34.6396 31.5929L34.2873 33.0295L34.2904 33.0302L34.6396 31.5929ZM35.1683 31.7922L36.5104 31.1703C36.3804 30.8898 36.1658 30.6571 35.8967 30.5049L35.1683 31.7922ZM35.0297 32.682L34.3178 33.9786C34.887 34.2911 35.5935 34.1958 36.0596 33.7437L35.0297 32.682ZM34.6685 32.5491L34.296 33.9806C34.3036 33.9826 34.3113 33.9845 34.3189 33.9864L34.6685 32.5491ZM33.6384 31.0921C33.4323 31.1555 33.1326 31.2925 32.8838 31.5892C32.6174 31.9068 32.5191 32.2761 32.5191 32.5954H35.4774C35.4774 32.8704 35.3917 33.2026 35.1504 33.4903C34.9265 33.7572 34.6644 33.8715 34.5084 33.9195L33.6384 31.0921ZM32.5191 32.5954V32.6098H35.4774V32.5954H32.5191ZM32.5191 32.6098C32.5191 32.6514 32.5204 32.7467 32.54 32.8645C32.5444 32.8908 32.5971 33.3149 32.9553 33.6731L35.0471 31.5812C35.2523 31.7864 35.3455 32.0004 35.3849 32.1056C35.4289 32.2229 35.4486 32.3215 35.458 32.3782C35.4767 32.4902 35.4774 32.5779 35.4774 32.6098H32.5191ZM34.1351 34.1002C34.1111 34.1024 34.0947 34.103 34.089 34.1032C34.0825 34.1035 34.0808 34.1034 34.085 34.1034V31.1451C34.0296 31.1451 33.9518 31.1464 33.8673 31.1541L34.1351 34.1002ZM34.085 34.1034H34.1543V31.1451H34.085V34.1034ZM34.1543 34.1034C34.2203 34.1034 34.2573 34.1131 34.2766 34.1199L35.2627 31.3308C34.9006 31.2028 34.5274 31.1451 34.1543 31.1451V34.1034ZM34.2935 34.1258C34.2747 34.1194 34.2425 34.1057 34.2044 34.08C34.1657 34.0539 34.1306 34.0219 34.1018 33.9871L36.3793 32.0992C36.0712 31.7275 35.6784 31.472 35.2458 31.3249L34.2935 34.1258ZM34.0934 33.9769C34.0417 33.9134 34.0055 33.8434 33.9845 33.7782C33.9644 33.716 33.9636 33.6755 33.9636 33.6701H36.9219C36.9219 33.142 36.7747 32.5848 36.3877 32.1094L34.0934 33.9769ZM33.9636 33.6701C33.9636 33.6967 33.9593 33.6518 33.996 33.5715C34.0362 33.4837 34.0986 33.4129 34.1574 33.3695L35.9134 35.7502C36.6286 35.2228 36.9219 34.4448 36.9219 33.6701H33.9636ZM34.1574 33.3695C34.2153 33.3268 34.1931 33.3812 33.9463 33.3812V36.3395C34.6085 36.3395 35.3124 36.1935 35.9134 35.7502L34.1574 33.3695ZM33.9463 33.3812C33.7975 33.3812 33.7 33.3686 33.6433 33.3566C33.5869 33.3447 33.588 33.3371 33.6215 33.3566L32.1333 35.9133C32.7056 36.2465 33.3561 36.3395 33.9463 36.3395V33.3812ZM33.6257 33.3591C33.681 33.3915 33.7846 33.47 33.8683 33.614C33.9528 33.7596 33.9723 33.8951 33.9723 33.9734H31.014C31.014 34.8026 31.432 35.5021 32.1291 35.9109L33.6257 33.3591ZM33.9723 33.9734C33.9723 34.0844 33.9465 34.2238 33.8739 34.3629L31.2511 32.9945C31.086 33.3109 31.014 33.6466 31.014 33.9734H33.9723ZM33.8798 34.3514C33.8601 34.39 33.7592 34.5798 33.5099 34.7377L31.9271 32.2384C31.5622 32.4695 31.3573 32.7864 31.2451 33.006L33.8798 34.3514ZM31.7695 34.6227C32.0751 34.8783 32.4235 35.0287 32.7182 35.1251L33.6375 32.3132C33.6157 32.3061 33.6 32.3003 33.5897 32.2961C33.5793 32.2919 33.5756 32.29 33.5776 32.291C33.5795 32.2919 33.5888 32.2967 33.6036 32.3061C33.6184 32.3156 33.6406 32.331 33.6674 32.3534L31.7695 34.6227ZM32.7343 35.1303C33.0889 35.2417 33.4529 35.2937 33.8192 35.2937V32.3354C33.7348 32.3354 33.6713 32.3238 33.6213 32.3081L32.7343 35.1303ZM33.8192 35.2937C33.9524 35.2937 34.2871 35.2836 34.637 35.09C34.8343 34.9809 35.0516 34.8043 35.2134 34.5357C35.3767 34.2646 35.4341 33.982 35.4341 33.7394H32.4758C32.4758 33.5219 32.5275 33.2611 32.6796 33.0088C32.8301 32.759 33.0303 32.598 33.205 32.5014C33.5097 32.3329 33.7765 32.3354 33.8192 32.3354V35.2937ZM35.4341 33.7394C35.4341 33.6052 35.419 33.3961 35.3313 33.1622L32.5613 34.201C32.4852 33.9979 32.4758 33.8274 32.4758 33.7394H35.4341ZM33.7371 32.2173C33.8147 32.2062 33.8726 32.2054 33.8972 32.2054V35.1637C33.9603 35.1637 34.0509 35.1608 34.1555 35.1459L33.7371 32.2173ZM33.8972 32.2054H33.8654V35.1637H33.8972V32.2054ZM33.8654 32.2054C33.7566 32.2054 33.6953 32.1943 33.6701 32.1881C33.647 32.1824 33.6646 32.1833 33.702 32.2081L32.0701 34.6755C32.6344 35.0488 33.2767 35.1637 33.8654 35.1637V32.2054ZM33.7006 32.2072C33.7387 32.2323 33.8156 32.2966 33.877 32.4109C33.9384 32.5252 33.9492 32.6238 33.9492 32.6676H30.9909C30.9909 33.4962 31.3778 34.2189 32.0715 34.6765L33.7006 32.2072ZM33.9492 32.6676C33.9492 32.6884 33.9443 32.7526 33.9066 32.8344C33.8683 32.9175 33.8179 32.9715 33.787 32.9972L31.8984 30.7202C31.2988 31.2176 30.9909 31.9106 30.9909 32.6676H33.9492ZM33.7841 32.9996C33.7545 33.024 33.7377 33.0259 33.7585 33.0197C33.7835 33.0122 33.8511 32.9969 33.9781 32.9969V30.0386C33.2728 30.0386 32.5214 30.2061 31.9013 30.7178L33.7841 32.9996ZM33.9781 32.9969C34.111 32.9969 34.212 33.011 34.2873 33.0295L34.992 30.1563C34.659 30.0746 34.319 30.0386 33.9781 30.0386V32.9969ZM34.2904 33.0302C34.342 33.0428 34.3793 33.0548 34.4045 33.0643C34.4297 33.0738 34.4403 33.0798 34.4399 33.0796L35.8967 30.5049C35.6053 30.34 35.2948 30.2299 34.9889 30.1556L34.2904 33.0302ZM33.8263 32.4142C33.7705 32.2937 33.7534 32.2011 33.7483 32.1683C33.7425 32.1317 33.7441 32.1197 33.7441 32.1418H36.7024C36.7024 31.9136 36.682 31.5407 36.5104 31.1703L33.8263 32.4142ZM33.7441 32.1418C33.7441 32.1267 33.7459 32.056 33.7824 31.9542C33.8214 31.8453 33.8917 31.7252 33.9997 31.6204L36.0596 33.7437C36.5564 33.2617 36.7024 32.6485 36.7024 32.1418H33.7441ZM35.7415 31.3854C35.5004 31.2531 35.2505 31.1684 35.0181 31.1119L34.3189 33.9864C34.3308 33.9893 34.3397 33.9917 34.3458 33.9936C34.3488 33.9945 34.3511 33.9952 34.3526 33.9957C34.3534 33.996 34.3539 33.9962 34.3543 33.9963C34.3545 33.9964 34.3546 33.9964 34.3547 33.9964C34.3548 33.9965 34.3549 33.9965 34.3549 33.9965C34.3549 33.9965 34.3548 33.9965 34.3547 33.9964C34.3546 33.9964 34.3545 33.9964 34.3543 33.9963C34.3539 33.9961 34.3533 33.9959 34.3526 33.9956C34.351 33.995 34.3487 33.994 34.3456 33.9926C34.3395 33.9898 34.33 33.9853 34.3178 33.9786L35.7415 31.3854ZM35.0411 31.1177C34.8108 31.0577 34.5557 31.0151 34.2872 31.0151V33.9734C34.2651 33.9734 34.2544 33.9717 34.257 33.972C34.2595 33.9724 34.2722 33.9744 34.296 33.9806L35.0411 31.1177ZM34.2872 31.0151C34.2173 31.0151 34.1417 31.0162 34.0687 31.0201C34.0324 31.0221 33.8699 31.0292 33.6923 31.0766L34.4545 33.935C34.4028 33.9488 34.3608 33.9568 34.3352 33.9611C34.3081 33.9658 34.2864 33.9685 34.2726 33.9701C34.2459 33.9732 34.2293 33.9741 34.2284 33.9741C34.2266 33.9742 34.2434 33.9734 34.2872 33.9734V31.0151Z" fill="#637A9C"/>
<path d="M32.2361 21.3143C32.2361 22.3553 31.929 23.2217 31.3147 23.9136C30.6229 24.6895 29.611 25.21 28.279 25.4751C28.279 25.7208 28.3889 25.8436 28.6088 25.8436C28.9967 25.8436 29.472 25.7208 30.0345 25.4751C30.597 25.2294 31.0335 24.9384 31.3438 24.6022C31.9581 25.2164 32.2652 26.0279 32.2652 27.0365C32.2652 28.0387 31.9775 28.8276 31.402 29.403H22.6829C22.185 28.6594 21.9361 27.8383 21.9361 26.9396C21.9361 26.0343 22.1107 25.2746 22.4598 24.6604C23.7336 24.4147 24.8877 23.9653 25.9223 23.3122C26.9568 22.6592 27.474 21.9674 27.474 21.2367C27.474 21.0428 27.4288 20.8843 27.3383 20.7615C27.2542 20.6386 27.1346 20.5772 26.9794 20.5772C26.6626 20.5772 26.5042 20.7453 26.5042 21.0816C26.5042 21.4113 26.6173 21.6538 26.8436 21.809C26.5268 22.281 26.0386 22.7142 25.3791 23.1086C24.7196 23.503 24.073 23.7875 23.4394 23.9621C22.2885 23.1991 21.713 22.1678 21.713 20.8682C21.713 19.5686 22.2271 18.5373 23.2551 17.7743C24.2121 17.0631 25.4373 16.7075 26.9309 16.7075C28.431 16.7075 29.6724 17.1019 30.6552 17.8907C31.7091 18.7442 32.2361 19.8854 32.2361 21.3143Z" fill="#B4C8D8"/>
<path d="M31.3147 23.9136L32.4187 24.898L32.4208 24.8956L31.3147 23.9136ZM28.279 25.4751L27.9903 24.0244C27.2983 24.1621 26.7999 24.7695 26.7999 25.4751H28.279ZM31.3438 24.6022L32.3897 23.5563C32.1051 23.2716 31.7167 23.1153 31.3142 23.1233C30.9118 23.1314 30.53 23.3031 30.2569 23.5989L31.3438 24.6022ZM31.402 29.403V30.8822C31.7943 30.8822 32.1705 30.7263 32.4479 30.4489L31.402 29.403ZM22.6829 29.403L21.4538 30.226C21.7284 30.636 22.1894 30.8822 22.6829 30.8822V29.403ZM22.4598 24.6604L22.1797 23.208C21.7551 23.2899 21.3876 23.5535 21.1739 23.9294L22.4598 24.6604ZM27.3383 20.7615L26.1175 21.5968C26.1272 21.611 26.1372 21.625 26.1475 21.6389L27.3383 20.7615ZM26.8436 21.809L28.0718 22.6333C28.5239 21.9598 28.3491 21.0478 27.6801 20.5891L26.8436 21.809ZM23.4394 23.9621L22.6221 25.1949C22.9786 25.4312 23.4199 25.5017 23.8323 25.3881L23.4394 23.9621ZM23.2551 17.7743L24.1366 18.9621L24.1375 18.9615L23.2551 17.7743ZM30.6552 17.8907L31.5861 16.7412L31.5811 16.7372L30.6552 17.8907ZM30.7569 21.3143C30.7569 22.0419 30.5521 22.5446 30.2086 22.9315L32.4208 24.8956C33.3058 23.8988 33.7152 22.6687 33.7152 21.3143H30.7569ZM30.2107 22.9292C29.7902 23.4008 29.1037 23.8028 27.9903 24.0244L28.5678 26.9257C30.1183 26.6172 31.4556 25.9781 32.4187 24.898L30.2107 22.9292ZM26.7999 25.4751C26.7999 25.7878 26.8663 26.2987 27.2591 26.7378C27.68 27.2082 28.2257 27.3228 28.6088 27.3228V24.3645C28.772 24.3645 29.1528 24.4176 29.4638 24.7652C29.7467 25.0814 29.7582 25.408 29.7582 25.4751H26.7999ZM28.6088 27.3228C29.2846 27.3228 29.9739 27.1156 30.6265 26.8305L29.4424 24.1196C28.97 24.3259 28.7089 24.3645 28.6088 24.3645V27.3228ZM30.6265 26.8305C31.316 26.5294 31.9428 26.134 32.4307 25.6055L30.2569 23.5989C30.1241 23.7428 29.878 23.9293 29.4424 24.1196L30.6265 26.8305ZM30.2979 25.6481C30.5899 25.9401 30.786 26.3518 30.786 27.0365H33.7443C33.7443 25.7039 33.3262 24.4928 32.3897 23.5563L30.2979 25.6481ZM30.786 27.0365C30.786 27.7428 30.5927 28.1205 30.3561 28.3571L32.4479 30.4489C33.3622 29.5346 33.7443 28.3346 33.7443 27.0365H30.786ZM31.402 27.9239H22.6829V30.8822H31.402V27.9239ZM23.912 28.5801C23.5779 28.0811 23.4152 27.5466 23.4152 26.9396H20.4569C20.4569 28.13 20.7922 29.2378 21.4538 30.226L23.912 28.5801ZM23.4152 26.9396C23.4152 26.2201 23.554 25.7286 23.7458 25.3913L21.1739 23.9294C20.6673 24.8207 20.4569 25.8486 20.4569 26.9396H23.4152ZM22.74 26.1127C24.1836 25.8343 25.5123 25.3202 26.7118 24.563L25.1327 22.0615C24.2632 22.6103 23.2836 22.995 22.1797 23.208L22.74 26.1127ZM26.7118 24.563C27.8804 23.8253 28.9532 22.7462 28.9532 21.2367H25.9949C25.9949 21.2408 25.9948 21.2503 25.987 21.2719C25.9782 21.296 25.9561 21.3448 25.9014 21.4179C25.786 21.5722 25.5557 21.7944 25.1327 22.0615L26.7118 24.563ZM28.9532 21.2367C28.9532 20.8132 28.8523 20.3227 28.5291 19.8841L26.1475 21.6389C26.0053 21.446 25.9949 21.2723 25.9949 21.2367H28.9532ZM28.559 19.9262C28.1856 19.3805 27.5981 19.0981 26.9794 19.0981V22.0564C26.8583 22.0564 26.6891 22.0312 26.5098 21.9391C26.3281 21.8458 26.1992 21.7162 26.1175 21.5968L28.559 19.9262ZM26.9794 19.0981C26.5698 19.0981 25.9968 19.211 25.5465 19.6889C25.1117 20.1503 25.025 20.7066 25.025 21.0816H27.9833C27.9833 21.1203 27.9759 21.4244 27.6995 21.7177C27.4076 22.0275 27.0722 22.0564 26.9794 22.0564V19.0981ZM25.025 21.0816C25.025 21.7866 25.294 22.5399 26.0071 23.0289L27.6801 20.5891C27.7792 20.657 27.8712 20.7605 27.9294 20.8852C27.9829 20.9999 27.9833 21.0794 27.9833 21.0816H25.025ZM25.6155 20.9846C25.4551 21.2235 25.1546 21.5193 24.6199 21.8391L26.1383 24.378C26.9226 23.909 27.5985 23.3384 28.0718 22.6333L25.6155 20.9846ZM24.6199 21.8391C24.0561 22.1763 23.532 22.4023 23.0465 22.536L23.8323 25.3881C24.6141 25.1727 25.3831 24.8297 26.1383 24.378L24.6199 21.8391ZM24.2567 22.7292C23.4883 22.2198 23.1922 21.636 23.1922 20.8682H20.2339C20.2339 22.6996 21.0887 24.1784 22.6221 25.1949L24.2567 22.7292ZM23.1922 20.8682C23.1922 20.0284 23.4912 19.4411 24.1366 18.9621L22.3736 16.5865C20.9629 17.6335 20.2339 19.1087 20.2339 20.8682H23.1922ZM24.1375 18.9615C24.7809 18.4832 25.6738 18.1866 26.9309 18.1866V15.2283C25.2009 15.2283 23.6432 15.6429 22.3728 16.5871L24.1375 18.9615ZM26.9309 18.1866C28.1609 18.1866 29.0567 18.5044 29.7293 19.0442L31.5811 16.7372C30.2881 15.6993 28.701 15.2283 26.9309 15.2283V18.1866ZM29.7243 19.0402C30.4106 19.5959 30.7569 20.3041 30.7569 21.3143H33.7152C33.7152 19.4667 33.0077 17.8924 31.5861 16.7412L29.7243 19.0402Z" fill="#637A9C"/>
</svg>
