<svg width="12" height="12" viewBox="0 0 12 12" fill="none" xmlns="http://www.w3.org/2000/svg">
<path d="M5.99999 12C6.8278 12 7.49928 11.3285 7.49928 10.5H4.50069C4.50069 11.3285 5.17217 12 5.99999 12ZM11.0482 8.49117C10.5954 8.00461 9.74811 7.27266 9.74811 4.875C9.74811 3.05391 8.47124 1.59609 6.74952 1.23844V0.75C6.74952 0.335859 6.41389 0 5.99999 0C5.58608 0 5.25045 0.335859 5.25045 0.75V1.23844C3.52874 1.59609 2.25186 3.05391 2.25186 4.875C2.25186 7.27266 1.4046 8.00461 0.951783 8.49117C0.811158 8.64234 0.748814 8.82305 0.749986 9C0.752564 9.38437 1.0542 9.75 1.50233 9.75H10.4976C10.9458 9.75 11.2476 9.38437 11.25 9C11.2512 8.82305 11.1888 8.64211 11.0482 8.49117Z" fill="#003F5F"/>
</svg>
