<svg width="22" height="26" viewBox="0 0 22 26"  xmlns="http://www.w3.org/2000/svg">
<path d="M11 25.5C12.7246 25.5 14.1235 24.1011 14.1235 22.375H7.87647C7.87647 24.1011 9.27539 25.5 11 25.5ZM21.5171 18.1899C20.5737 17.1763 18.8086 15.6514 18.8086 10.6562C18.8086 6.8623 16.1484 3.8252 12.5615 3.08008V2.0625C12.5615 1.19971 11.8623 0.5 11 0.5C10.1377 0.5 9.43848 1.19971 9.43848 2.0625V3.08008C5.85157 3.8252 3.19141 6.8623 3.19141 10.6562C3.19141 15.6514 1.42627 17.1763 0.482913 18.1899C0.189945 18.5049 0.0600618 18.8813 0.0625032 19.25C0.0678743 20.0508 0.696292 20.8125 1.62989 20.8125H20.3701C21.3037 20.8125 21.9326 20.0508 21.9375 19.25C21.9399 18.8813 21.8101 18.5044 21.5171 18.1899Z" />
</svg>
