<svg width="19" height="18" viewBox="0 0 19 18" fill="none" xmlns="http://www.w3.org/2000/svg">
<path d="M16.1995 17.75H2.44952C1.41437 17.75 0.574524 16.9102 0.574524 15.875V2.125C0.574524 1.08984 1.41437 0.25 2.44952 0.25H16.1995C17.2347 0.25 18.0745 1.08984 18.0745 2.125V15.875C18.0745 16.9102 17.2347 17.75 16.1995 17.75ZM9.87531 5.94922L4.57452 11.25L4.32843 13.4805C4.29718 13.7773 4.54718 14.0312 4.84796 14L7.07843 13.7539L12.3792 8.45312C12.4691 8.36328 12.4691 8.21484 12.3792 8.12109L10.2112 5.95312C10.1136 5.85938 9.96515 5.85938 9.87531 5.94922ZM14.0511 5.44922L12.8753 4.27344C12.5081 3.90625 11.9144 3.90625 11.5511 4.27344L10.6487 5.17578C10.5589 5.26562 10.5589 5.41406 10.6487 5.50781L12.8167 7.67578C12.9066 7.76562 13.055 7.76562 13.1487 7.67578L14.0511 6.77344C14.4144 6.41016 14.4144 5.81641 14.0511 5.44922Z" fill="#F273B2"/>
</svg>
