<svg width="21" height="16" viewBox="0 0 21 16" fill="none" xmlns="http://www.w3.org/2000/svg">
<path d="M4.21341 0.222168C2.06411 0.222168 0.324524 1.96175 0.324524 4.11106V11.8888C0.324524 14.0381 2.06411 15.7777 4.21341 15.7777C6.36272 15.7777 8.1023 14.0381 8.1023 11.8888V4.11106C8.1023 1.96175 6.36272 0.222168 4.21341 0.222168ZM5.88008 7.99995H2.54675V4.11106C2.54675 3.19092 3.29327 2.44439 4.21341 2.44439C5.13355 2.44439 5.88008 3.19092 5.88008 4.11106V7.99995ZM10.7308 6.9687C10.6092 6.84717 10.4044 6.86106 10.3037 6.99647C8.73077 9.16661 8.90091 12.2083 10.8558 14.1631C12.8106 16.118 15.8523 16.2881 18.0224 14.7152C18.1613 14.6145 18.1717 14.4097 18.0502 14.2881L10.7308 6.9687ZM18.7099 6.30897C16.7551 4.35411 13.7134 4.18397 11.5433 5.75689C11.4044 5.85758 11.394 6.06245 11.5155 6.18397L18.8349 13.5034C18.9565 13.6249 19.1613 13.6111 19.262 13.4756C20.8349 11.302 20.6683 8.26383 18.7099 6.30897Z" fill="#4C3BB2"/>
</svg>
