<svg width="17" height="18" viewBox="0 0 17 18" fill="none" xmlns="http://www.w3.org/2000/svg">
<path fill-rule="evenodd" clip-rule="evenodd" d="M8.54974 0.58667C6.22555 0.58667 4.34307 2.46915 4.34307 4.79334C4.34307 7.11752 6.22555 9 8.54974 9C10.8739 9 12.7564 7.11752 12.7564 4.79334C12.7564 2.46915 10.8739 0.58667 8.54974 0.58667ZM10.6533 4.79333C10.6533 3.63649 9.70681 2.68999 8.54998 2.68999C7.39315 2.68999 6.44665 3.63649 6.44665 4.79333C6.44665 5.95016 7.39315 6.89666 8.54998 6.89666C9.70681 6.89666 10.6533 5.95016 10.6533 4.79333ZM14.8601 14.2583C14.6498 13.5117 11.3896 12.155 8.55011 12.155C5.71061 12.155 2.45045 13.5117 2.24011 14.2689V15.31H14.8601V14.2583ZM0.136536 14.2583C0.136536 11.4609 5.74192 10.0517 8.54987 10.0517C11.3578 10.0517 16.9632 11.4609 16.9632 14.2583V17.4133H0.136536V14.2583Z" fill="#003F5F"/>
</svg>
