<svg width="109" height="98" viewBox="0 0 109 98" fill="none" xmlns="http://www.w3.org/2000/svg">
<mask id="mask0_202_1672" style="mask-type:alpha" maskUnits="userSpaceOnUse" x="0" y="0" width="109" height="101">
<rect width="109" height="101" fill="#D9D9D9"/>
</mask>
<g mask="url(#mask0_202_1672)">
<path fill-rule="evenodd" clip-rule="evenodd" d="M99.8352 18.703C94.7094 17.9517 88.5075 17.9587 84.1041 20.9387C81.9008 22.4297 79.5102 25.1177 76.992 28.331C75.5224 30.2063 74.0156 32.2521 72.4804 34.3365C71.3844 35.8245 70.274 37.3321 69.1523 38.8115C66.4635 42.3574 63.7162 45.7317 60.9757 48.2381C58.2379 50.742 55.4886 52.3968 52.7967 52.4696C47.5597 52.6113 43.0574 49.2811 38.4444 45.869C38.3501 45.7993 38.2558 45.7296 38.1615 45.6598C33.4345 42.1652 28.5639 38.6478 22.5959 38.5768C19.623 38.5414 16.3627 39.8612 13.1358 41.8768C9.91109 43.891 6.73223 46.5921 3.92543 49.3008C1.11911 52.0092 -1.31239 54.7224 -3.04244 56.7588C-3.90739 57.7769 -4.59681 58.6256 -5.06986 59.2196C-5.30639 59.5166 -5.48881 59.7499 -5.61203 59.9089C-5.67363 59.9884 -5.72044 60.0492 -5.7518 60.0902C-5.76748 60.1107 -5.77931 60.1262 -5.78719 60.1366L-5.79604 60.1482L-5.79824 60.1511L-5.79877 60.1518C-5.79888 60.152 -5.79893 60.152 -5.89957 60.0606C-6.00021 59.9692 -6.00013 59.9691 -5.99999 59.9689L-5.99708 59.9651L-5.98798 59.9531C-5.97994 59.9426 -5.96795 59.9268 -5.95211 59.9061C-5.92041 59.8647 -5.87326 59.8034 -5.81129 59.7234C-5.68737 59.5636 -5.50419 59.3293 -5.26685 59.0313C-4.79219 58.4353 -4.10089 57.5843 -3.2338 56.5637C-1.49979 54.5226 0.93801 51.8022 3.75263 49.0859C6.56677 46.37 9.76048 43.6553 13.0064 41.6279C16.2501 39.6018 19.5584 38.2541 22.5987 38.2903C28.6568 38.3625 33.5902 41.9348 38.3077 45.4224C38.3907 45.4837 38.4736 45.545 38.5564 45.6063C43.1982 49.0392 47.6379 52.3226 52.7902 52.1832C55.3925 52.1128 58.0844 50.5092 60.8082 48.0182C63.5293 45.5295 66.264 42.1722 68.9512 38.6285C70.0671 37.1567 71.176 35.6512 72.2719 34.1634C73.8104 32.0747 75.3231 30.0209 76.7937 28.1444C79.3123 24.9304 81.7256 22.2116 83.9667 20.6949C88.4523 17.6594 94.7341 17.6664 99.8698 18.419C102.442 18.796 104.735 19.3613 106.385 19.8323C107.21 20.0678 107.874 20.2798 108.333 20.4331C108.562 20.5097 108.74 20.5716 108.86 20.6145C108.921 20.6359 108.967 20.6525 108.998 20.6638C109.013 20.6695 109.025 20.6738 109.033 20.6767L109.042 20.6801L109.044 20.6809L109.045 20.6812C109.045 20.6812 109.045 20.6813 109.003 20.8168C108.982 20.8846 108.971 20.9184 108.966 20.9354C108.961 20.9523 108.961 20.9523 108.96 20.9523L108.958 20.9513L108.949 20.9482C108.942 20.9454 108.93 20.9412 108.915 20.9356C108.885 20.9245 108.839 20.9081 108.78 20.887C108.661 20.8446 108.484 20.7832 108.256 20.7071C107.801 20.5548 107.14 20.3439 106.319 20.1095C104.676 19.6405 102.394 19.078 99.8352 18.703Z" fill="#4C3BB2" stroke="#4C3BB2" stroke-width="2"/>
<path d="M22.7813 38.5077C10.7972 38.3665 -5.61572 59.8335 -5.61572 59.8335H108.884V21.1364C108.884 21.1364 92.8621 15.2048 84.0043 21.1364C75.1465 27.0681 63.423 51.9246 52.8718 52.207C42.3206 52.4895 34.7654 38.6489 22.7813 38.5077Z" fill="url(#paint0_linear_202_1672)"/>
</g>
<defs>
<linearGradient id="paint0_linear_202_1672" x1="33.8536" y1="-14.4065" x2="45.5921" y2="52.945" gradientUnits="userSpaceOnUse">
<stop stop-color="#4C3BB2" stop-opacity="0.6"/>
<stop offset="1" stop-color="#4C3BB2" stop-opacity="0"/>
</linearGradient>
</defs>
</svg>
